<?xml version="1.0" encoding="UTF-8"?>
<!DOCTYPE svg PUBLIC "-//W3C//DTD SVG 1.1//EN" "http://www.w3.org/Graphics/SVG/1.1/DTD/svg11.dtd">
<svg xmlns="http://www.w3.org/2000/svg" version="1.1" width="500px" height="368px" style="shape-rendering:geometricPrecision; text-rendering:geometricPrecision; image-rendering:optimizeQuality; fill-rule:evenodd; clip-rule:evenodd" xmlns:xlink="http://www.w3.org/1999/xlink">
<g><path style="opacity:0.992" fill="#0f7478" d="M 165.5,49.5 C 171.708,52.7356 175.041,57.9023 175.5,65C 172.41,77.6417 170.743,90.4751 170.5,103.5C 173.919,143.184 177.585,182.85 181.5,222.5C 181.946,249.326 174.113,273.326 158,294.5C 150.643,303.086 141.81,309.586 131.5,314C 117.325,316.654 109.659,310.82 108.5,296.5C 109.541,284.275 111.208,272.275 113.5,260.5C 114.266,258.316 114.933,255.982 115.5,253.5C 109.586,251.507 103.586,251.174 97.5,252.5C 85.4168,278.083 66.7501,297.25 41.5,310C 33.585,314.018 25.2517,315.352 16.5,314C 11.406,312.401 7.73934,309.234 5.5,304.5C 4.47944,300.896 4.47944,297.229 5.5,293.5C 7.00751,291.819 8.00751,289.819 8.5,287.5C 8.32842,286.508 8.66175,285.842 9.5,285.5C 11.2503,284.341 12.2503,282.674 12.5,280.5C 13.6737,279.486 14.3404,278.153 14.5,276.5C 14.3284,275.508 14.6618,274.842 15.5,274.5C 17.588,272.664 18.9213,270.331 19.5,267.5C 20.0421,264.088 21.3754,261.088 23.5,258.5C 24.9313,257.22 25.5979,255.553 25.5,253.5C 25.3284,252.508 25.6618,251.842 26.5,251.5C 27.9313,250.22 28.5979,248.553 28.5,246.5C 29.6737,245.486 30.3404,244.153 30.5,242.5C 30.5,242.167 30.5,241.833 30.5,241.5C 31.9313,240.22 32.5979,238.553 32.5,236.5C 32.5569,235.391 32.8902,234.391 33.5,233.5C 34.3909,232.739 35.0576,231.739 35.5,230.5C 30.7923,228.819 26.7923,226.152 23.5,222.5C 22.6618,222.158 22.3284,221.492 22.5,220.5C 22.5,216.833 22.5,213.167 22.5,209.5C 22.6596,207.847 23.3263,206.514 24.5,205.5C 25.9063,205.027 26.573,204.027 26.5,202.5C 28.5869,201.415 29.9202,199.749 30.5,197.5C 33.0892,196.581 35.0892,194.914 36.5,192.5C 36.8417,191.662 37.5084,191.328 38.5,191.5C 40.0269,191.573 41.0269,190.906 41.5,189.5C 46.4714,187.862 49.8047,184.529 51.5,179.5C 52.9313,178.22 53.5979,176.553 53.5,174.5C 55.1289,168.608 57.1289,162.942 59.5,157.5C 60.9313,156.22 61.5979,154.553 61.5,152.5C 61.8751,150.302 62.5418,148.302 63.5,146.5C 64.9313,145.22 65.5979,143.553 65.5,141.5C 66.6546,137.203 68.3213,133.203 70.5,129.5C 71.6737,128.486 72.3404,127.153 72.5,125.5C 73.0749,122.088 74.4082,119.088 76.5,116.5C 77.6737,115.486 78.3404,114.153 78.5,112.5C 78.7329,110.938 79.3995,109.605 80.5,108.5C 81.9063,108.027 82.573,107.027 82.5,105.5C 82.3284,104.508 82.6618,103.842 83.5,103.5C 84.9063,103.027 85.573,102.027 85.5,100.5C 86.9063,100.027 87.573,99.0269 87.5,97.5C 89.2624,96.7377 90.2624,95.4044 90.5,93.5C 91.9063,93.0269 92.573,92.0269 92.5,90.5C 92.8333,89.5 93.5,88.8333 94.5,88.5C 96.2624,87.7377 97.2624,86.4044 97.5,84.5C 99.8605,81.4728 102.527,78.8062 105.5,76.5C 108.764,74.9059 111.431,72.5725 113.5,69.5C 115.749,68.9202 117.415,67.5869 118.5,65.5C 120.027,65.573 121.027,64.9063 121.5,63.5C 122.899,62.1103 124.566,61.1103 126.5,60.5C 128.027,60.573 129.027,59.9063 129.5,58.5C 134.827,55.1699 140.494,52.3365 146.5,50C 152.825,49.5005 159.158,49.3338 165.5,49.5 Z"/></g>
<g><path style="opacity:0.992" fill="#0c7377" d="M 363.5,49.5 C 370.156,53.6662 372.989,59.6662 372,67.5C 367.915,79.5187 366.581,91.852 368,104.5C 369.91,120.296 372.577,135.962 376,151.5C 376.791,150.255 377.291,148.922 377.5,147.5C 377.263,146.209 377.596,145.209 378.5,144.5C 379.906,144.027 380.573,143.027 380.5,141.5C 382.816,132.538 386.483,124.205 391.5,116.5C 392.906,116.027 393.573,115.027 393.5,113.5C 393.66,111.847 394.326,110.514 395.5,109.5C 396.906,109.027 397.573,108.027 397.5,106.5C 397.932,105.29 398.599,104.29 399.5,103.5C 400.906,103.027 401.573,102.027 401.5,100.5C 402.906,100.027 403.573,99.0269 403.5,97.5C 406.367,93.0906 409.701,89.0906 413.5,85.5C 415.262,84.7377 416.262,83.4044 416.5,81.5C 416.833,80.5 417.5,79.8333 418.5,79.5C 422.771,76.8991 426.437,73.5658 429.5,69.5C 431.404,69.2624 432.738,68.2624 433.5,66.5C 433.5,65.8333 433.833,65.5 434.5,65.5C 436.027,65.573 437.027,64.9063 437.5,63.5C 439.027,63.573 440.027,62.9063 440.5,61.5C 442.027,61.573 443.027,60.9063 443.5,59.5C 447.182,56.9922 451.182,54.9922 455.5,53.5C 457.553,53.5979 459.22,52.9313 460.5,51.5C 461.263,50.7321 462.263,50.2321 463.5,50C 470.826,49.5003 478.159,49.3337 485.5,49.5C 492.704,54.2656 495.204,60.9322 493,69.5C 484.629,80.913 478.962,93.5797 476,107.5C 471.521,147.808 467.188,188.141 463,228.5C 458.528,259.293 444.361,284.46 420.5,304C 412.47,309.601 403.637,313.101 394,314.5C 381.597,313.596 375.764,306.93 376.5,294.5C 376.5,294.167 376.5,293.833 376.5,293.5C 378.399,291.747 379.065,289.747 378.5,287.5C 369.219,299.281 357.553,307.781 343.5,313C 337.569,314.471 331.569,314.804 325.5,314C 317.293,310.087 313.959,303.587 315.5,294.5C 316.404,293.791 316.737,292.791 316.5,291.5C 317.905,289.775 318.405,287.775 318,285.5C 307.173,299.319 293.34,308.819 276.5,314C 267.443,315.932 260.443,313.099 255.5,305.5C 254.627,301.232 254.294,296.898 254.5,292.5C 254.66,290.847 255.326,289.514 256.5,288.5C 258.262,287.738 259.262,286.404 259.5,284.5C 261.25,283.341 262.25,281.674 262.5,279.5C 264.873,277.421 266.206,274.754 266.5,271.5C 266.328,270.508 266.662,269.842 267.5,269.5C 268.674,268.486 269.34,267.153 269.5,265.5C 269.5,265.167 269.5,264.833 269.5,264.5C 271.277,261.495 272.277,258.162 272.5,254.5C 272.366,252.708 272.699,251.042 273.5,249.5C 274.972,245.081 275.638,240.414 275.5,235.5C 275.569,230.146 275.902,224.813 276.5,219.5C 278.019,210.042 278.685,200.375 278.5,190.5C 278.5,190.167 278.5,189.833 278.5,189.5C 279.682,183.699 280.348,177.699 280.5,171.5C 280.639,154.816 282.972,138.483 287.5,122.5C 288.924,120.485 289.59,118.152 289.5,115.5C 289.595,113.214 290.262,111.214 291.5,109.5C 292.931,108.22 293.598,106.553 293.5,104.5C 293.796,102.597 294.463,100.93 295.5,99.5C 296.906,99.0269 297.573,98.0269 297.5,96.5C 297.557,95.391 297.89,94.391 298.5,93.5C 299.906,93.0269 300.573,92.0269 300.5,90.5C 300.328,89.5084 300.662,88.8417 301.5,88.5C 302.906,88.0269 303.573,87.0269 303.5,85.5C 304.906,85.0269 305.573,84.0269 305.5,82.5C 307.262,81.7377 308.262,80.4044 308.5,78.5C 309.906,78.0269 310.573,77.0269 310.5,75.5C 310.833,74.5 311.5,73.8333 312.5,73.5C 314.914,72.0892 316.581,70.0892 317.5,67.5C 320.089,66.5806 322.089,64.914 323.5,62.5C 325.749,61.9202 327.415,60.5869 328.5,58.5C 330.027,58.573 331.027,57.9063 331.5,56.5C 331.842,55.6618 332.508,55.3284 333.5,55.5C 335.027,55.573 336.027,54.9063 336.5,53.5C 338.493,51.8368 340.826,50.6701 343.5,50C 350.158,49.5004 356.825,49.3337 363.5,49.5 Z"/></g>
<g><path style="opacity:0.012" fill="#eff4f6" d="M 460.5,51.5 C 459.22,52.9313 457.553,53.5979 455.5,53.5C 456.78,52.0687 458.447,51.4021 460.5,51.5 Z"/></g>
<g><path style="opacity:0.171" fill="#f6fafa" d="M 363.5,49.5 C 370.33,51.8416 373.997,56.6749 374.5,64C 369.768,79.4954 368.268,95.3287 370,111.5C 371.697,119.774 373.031,128.108 374,136.5C 374.614,140.475 375.781,144.141 377.5,147.5C 377.291,148.922 376.791,150.255 376,151.5C 372.577,135.962 369.91,120.296 368,104.5C 366.581,91.852 367.915,79.5187 372,67.5C 372.989,59.6662 370.156,53.6662 363.5,49.5 Z"/></g>
<g><path style="opacity:0.221" fill="#f3f8f8" d="M 165.5,49.5 C 173.839,51.6921 177.839,57.1921 177.5,66C 172.329,87.9411 171.163,110.108 174,132.5C 177.246,158.8 180.246,185.134 183,211.5C 185.547,240.125 179.214,266.459 164,290.5C 154.564,304.203 141.898,313.203 126,317.5C 113.485,315.526 107.652,308.526 108.5,296.5C 109.659,310.82 117.325,316.654 131.5,314C 141.81,309.586 150.643,303.086 158,294.5C 174.113,273.326 181.946,249.326 181.5,222.5C 177.585,182.85 173.919,143.184 170.5,103.5C 170.743,90.4751 172.41,77.6417 175.5,65C 175.041,57.9023 171.708,52.7356 165.5,49.5 Z"/></g>
<g><path style="opacity:0.192" fill="#b2d9d9" d="M 336.5,53.5 C 336.027,54.9063 335.027,55.573 333.5,55.5C 333.973,54.0937 334.973,53.427 336.5,53.5 Z"/></g>
<g><path style="opacity:0.161" fill="#bbd8da" d="M 331.5,56.5 C 331.027,57.9063 330.027,58.573 328.5,58.5C 328.973,57.0937 329.973,56.427 331.5,56.5 Z"/></g>
<g><path style="opacity:0.188" fill="#abd3d5" d="M 129.5,58.5 C 129.027,59.9063 128.027,60.573 126.5,60.5C 126.973,59.0937 127.973,58.427 129.5,58.5 Z"/></g>
<g><path style="opacity:0.161" fill="#bbd9d9" d="M 443.5,59.5 C 443.027,60.9063 442.027,61.573 440.5,61.5C 440.973,60.0937 441.973,59.427 443.5,59.5 Z"/></g>
<g><path style="opacity:0.365" fill="#89b9ba" d="M 328.5,58.5 C 327.415,60.5869 325.749,61.9202 323.5,62.5C 324.585,60.4131 326.251,59.0798 328.5,58.5 Z"/></g>
<g><path style="opacity:0.999" fill="#5adfe4" d="M 155.5,61.5 C 159.513,60.832 161.513,62.4987 161.5,66.5C 157.735,83.3018 156.568,100.302 158,117.5C 160.836,144.851 163.836,172.184 167,199.5C 170.871,226.939 166.538,252.939 154,277.5C 147.127,288.212 137.96,296.212 126.5,301.5C 123.698,301.029 122.364,299.362 122.5,296.5C 126.869,276.731 128.536,256.731 127.5,236.5C 115.597,239.758 103.93,239.091 92.5,234.5C 91.8333,234.833 91.1667,235.167 90.5,235.5C 82.5375,254.952 70.8708,271.785 55.5,286C 46.0422,293.562 35.3755,298.728 23.5,301.5C 21.8653,300.954 20.1986,300.62 18.5,300.5C 24.7257,287.086 31.2257,273.752 38,260.5C 44.2675,246.196 49.4342,231.529 53.5,216.5C 47.1318,216.83 40.7985,216.496 34.5,215.5C 37.6374,210.863 41.304,206.696 45.5,203C 50.9073,200.548 56.0739,197.714 61,194.5C 68.9107,166.686 79.5774,140.02 93,114.5C 107.337,88.9831 128.17,71.3165 155.5,61.5 Z"/></g>
<g><path style="opacity:0.999" fill="#5adfe4" d="M 352.5,61.5 C 356.099,60.9376 358.099,62.4376 358.5,66C 354.225,77.4833 352.725,89.3166 354,101.5C 359.511,136.901 365.345,172.235 371.5,207.5C 377.966,186.602 385.133,165.936 393,145.5C 402.32,121.007 416.487,99.8405 435.5,82C 448.289,71.345 462.955,64.845 479.5,62.5C 479.66,64.1992 479.494,65.8659 479,67.5C 470.613,79.6157 464.946,92.949 462,107.5C 458.527,137.754 455.861,168.088 454,198.5C 452.214,218.096 447.881,237.096 441,255.5C 432.32,277.513 416.987,292.846 395,301.5C 392.501,301.184 391.001,299.851 390.5,297.5C 403.724,278.329 410.891,256.995 412,233.5C 413.685,216.197 414.351,198.863 414,181.5C 405.529,203.246 396.862,224.913 388,246.5C 380.32,264.845 368.82,280.345 353.5,293C 347.304,297.347 340.471,300.181 333,301.5C 329.707,300.862 328.707,298.862 330,295.5C 339.475,272.039 342.808,247.705 340,222.5C 338.827,207.958 336.827,193.625 334,179.5C 331.989,197.268 329.322,214.935 326,232.5C 321.606,255.13 311.106,274.296 294.5,290C 288.104,294.866 281.104,298.699 273.5,301.5C 269.448,301.293 267.948,299.293 269,295.5C 273.922,286.657 278.588,277.657 283,268.5C 285.294,261.99 286.961,255.323 288,248.5C 290.901,216.522 293.567,184.522 296,152.5C 298.233,125.06 307.9,100.727 325,79.5C 332.846,71.3369 342.013,65.3369 352.5,61.5 Z"/></g>
<g><path style="opacity:0.208" fill="#a0c6c5" d="M 440.5,61.5 C 440.027,62.9063 439.027,63.573 437.5,63.5C 437.973,62.0937 438.973,61.427 440.5,61.5 Z"/></g>
<g><path style="opacity:0.145" fill="#bedbdb" d="M 121.5,63.5 C 121.027,64.9063 120.027,65.573 118.5,65.5C 118.973,64.0937 119.973,63.427 121.5,63.5 Z"/></g>
<g><path style="opacity:0.161" fill="#b3d5d5" d="M 437.5,63.5 C 437.027,64.9063 436.027,65.573 434.5,65.5C 434.973,64.0937 435.973,63.427 437.5,63.5 Z"/></g>
<g><path style="opacity:0.204" fill="#a0c9c9" d="M 323.5,62.5 C 322.089,64.914 320.089,66.5806 317.5,67.5C 318.911,65.086 320.911,63.4194 323.5,62.5 Z"/></g>
<g><path style="opacity:0.161" fill="#a2c9cb" d="M 433.5,66.5 C 432.738,68.2624 431.404,69.2624 429.5,69.5C 430.262,67.7376 431.596,66.7376 433.5,66.5 Z"/></g>
<g><path style="opacity:0.337" fill="#97c2c2" d="M 118.5,65.5 C 117.415,67.5869 115.749,68.9202 113.5,69.5C 114.585,67.4131 116.251,66.0798 118.5,65.5 Z"/></g>
<g><path style="opacity:0.169" fill="#aecfd1" d="M 317.5,67.5 C 316.581,70.0892 314.914,72.0892 312.5,73.5C 313.419,70.9108 315.086,68.9108 317.5,67.5 Z"/></g>
<g><path style="opacity:0.302" fill="#85b7b8" d="M 113.5,69.5 C 111.431,72.5725 108.764,74.9059 105.5,76.5C 107.569,73.4275 110.236,71.0941 113.5,69.5 Z"/></g>
<g><path style="opacity:0.212" fill="#98c3c3" d="M 429.5,69.5 C 426.437,73.5658 422.771,76.8991 418.5,79.5C 421.563,75.4342 425.229,72.1009 429.5,69.5 Z"/></g>
<g><path style="opacity:0.102" fill="#bad5da" d="M 310.5,75.5 C 310.573,77.0269 309.906,78.0269 308.5,78.5C 308.427,76.9731 309.094,75.9731 310.5,75.5 Z"/></g>
<g><path style="opacity:0.157" fill="#aacecf" d="M 308.5,78.5 C 308.262,80.4044 307.262,81.7377 305.5,82.5C 305.738,80.5956 306.738,79.2623 308.5,78.5 Z"/></g>
<g><path style="opacity:0.122" fill="#aed0d0" d="M 416.5,81.5 C 416.262,83.4044 415.262,84.7377 413.5,85.5C 413.738,83.5956 414.738,82.2623 416.5,81.5 Z"/></g>
<g><path style="opacity:0.082" fill="#d4e7e7" d="M 305.5,82.5 C 305.573,84.0269 304.906,85.0269 303.5,85.5C 303.427,83.9731 304.094,82.9731 305.5,82.5 Z"/></g>
<g><path style="opacity:0.212" fill="#a6cbcc" d="M 97.5,84.5 C 97.2624,86.4044 96.2624,87.7377 94.5,88.5C 94.7376,86.5956 95.7376,85.2623 97.5,84.5 Z"/></g>
<g><path style="opacity:0.059" fill="#dee8e9" d="M 303.5,85.5 C 303.573,87.0269 302.906,88.0269 301.5,88.5C 301.427,86.9731 302.094,85.9731 303.5,85.5 Z"/></g>
<g><path style="opacity:0.051" fill="#c4e2e4" d="M 92.5,90.5 C 92.573,92.0269 91.9063,93.0269 90.5,93.5C 90.427,91.9731 91.0937,90.9731 92.5,90.5 Z"/></g>
<g><path style="opacity:0.051" fill="#e0f1f1" d="M 300.5,90.5 C 300.573,92.0269 299.906,93.0269 298.5,93.5C 298.427,91.9731 299.094,90.9731 300.5,90.5 Z"/></g>
<g><path style="opacity:0.137" fill="#afd0d0" d="M 90.5,93.5 C 90.2624,95.4044 89.2624,96.7377 87.5,97.5C 87.7376,95.5956 88.7376,94.2623 90.5,93.5 Z"/></g>
<g><path style="opacity:0.149" fill="#bbd5d4" d="M 297.5,96.5 C 297.573,98.0269 296.906,99.0269 295.5,99.5C 295.427,97.9731 296.094,96.9731 297.5,96.5 Z"/></g>
<g><path style="opacity:0.075" fill="#d0e1e1" d="M 87.5,97.5 C 87.573,99.0269 86.9063,100.027 85.5,100.5C 85.427,98.9731 86.0937,97.9731 87.5,97.5 Z"/></g>
<g><path style="opacity:0.051" fill="#cde3e3" d="M 403.5,97.5 C 403.573,99.0269 402.906,100.027 401.5,100.5C 401.427,98.9731 402.094,97.9731 403.5,97.5 Z"/></g>
<g><path style="opacity:0.039" fill="#d9eef0" d="M 85.5,100.5 C 85.573,102.027 84.9063,103.027 83.5,103.5C 83.427,101.973 84.0937,100.973 85.5,100.5 Z"/></g>
<g><path style="opacity:0.055" fill="#c2dada" d="M 401.5,100.5 C 401.573,102.027 400.906,103.027 399.5,103.5C 399.427,101.973 400.094,100.973 401.5,100.5 Z"/></g>
<g><path style="opacity:0.129" fill="#c5dfdf" d="M 82.5,105.5 C 82.573,107.027 81.9063,108.027 80.5,108.5C 80.427,106.973 81.0937,105.973 82.5,105.5 Z"/></g>
<g><path style="opacity:0.016" fill="#eff8f8" d="M 293.5,104.5 C 293.598,106.553 292.931,108.22 291.5,109.5C 291.402,107.447 292.069,105.78 293.5,104.5 Z"/></g>
<g><path style="opacity:0.039" fill="#d5eeee" d="M 397.5,106.5 C 397.573,108.027 396.906,109.027 395.5,109.5C 395.427,107.973 396.094,106.973 397.5,106.5 Z"/></g>
<g><path style="opacity:0.114" fill="#d8e9e8" d="M 78.5,112.5 C 78.3404,114.153 77.6737,115.486 76.5,116.5C 76.2291,114.62 76.8958,113.287 78.5,112.5 Z"/></g>
<g><path style="opacity:0.999" fill="#037276" d="M 128.5,111.5 C 129.124,111.917 129.457,112.584 129.5,113.5C 124.901,143.22 124.235,173.053 127.5,203C 127.167,205.5 126.833,208 126.5,210.5C 119.549,208.512 112.549,206.679 105.5,205C 103.349,204.735 101.682,203.735 100.5,202C 105.944,180.39 111.777,158.89 118,137.5C 121.236,128.699 124.736,120.032 128.5,111.5 Z"/></g>
<g><path style="opacity:0.055" fill="#c7dee0" d="M 393.5,113.5 C 393.573,115.027 392.906,116.027 391.5,116.5C 391.427,114.973 392.094,113.973 393.5,113.5 Z"/></g>
<g><path style="opacity:0.018" fill="#f3f8f8" d="M 289.5,115.5 C 289.59,118.152 288.924,120.485 287.5,122.5C 287.41,119.848 288.076,117.515 289.5,115.5 Z"/></g>
<g><path style="opacity:0.11" fill="#c8dde1" d="M 72.5,125.5 C 72.3404,127.153 71.6737,128.486 70.5,129.5C 70.2291,127.62 70.8958,126.287 72.5,125.5 Z"/></g>
<g><path style="opacity:0.204" fill="#9fcbcd" d="M 380.5,141.5 C 380.573,143.027 379.906,144.027 378.5,144.5C 378.427,142.973 379.094,141.973 380.5,141.5 Z"/></g>
<g><path style="opacity:0.029" fill="#f8fbfb" d="M 65.5,141.5 C 65.5979,143.553 64.9313,145.22 63.5,146.5C 63.4021,144.447 64.0687,142.78 65.5,141.5 Z"/></g>
<g><path style="opacity:0.018" fill="#f4fafa" d="M 61.5,152.5 C 61.5979,154.553 60.9313,156.22 59.5,157.5C 59.4021,155.447 60.0687,153.78 61.5,152.5 Z"/></g>
<g><path style="opacity:0.021" fill="#f7fbfb" d="M 53.5,174.5 C 53.5979,176.553 52.9313,178.22 51.5,179.5C 51.4021,177.447 52.0687,175.78 53.5,174.5 Z"/></g>
<g><path style="opacity:0.2" fill="#d0e3e4" d="M 280.5,171.5 C 280.348,177.699 279.682,183.699 278.5,189.5C 278.276,183.261 278.943,177.261 280.5,171.5 Z"/></g>
<g><path style="opacity:0.213" fill="#f3f8f8" d="M 485.5,49.5 C 488.959,50.436 491.793,52.436 494,55.5C 494.667,61.1667 494.667,66.8333 494,72.5C 485.84,83.9532 480.173,96.6198 477,110.5C 472.34,150.432 468.34,190.432 465,230.5C 460.404,258.863 447.571,282.697 426.5,302C 417.33,309.668 406.83,314.501 395,316.5C 381.233,315.568 374.733,308.234 375.5,294.5C 375.833,294.5 376.167,294.5 376.5,294.5C 375.764,306.93 381.597,313.596 394,314.5C 403.637,313.101 412.47,309.601 420.5,304C 444.361,284.46 458.528,259.293 463,228.5C 467.188,188.141 471.521,147.808 476,107.5C 478.962,93.5797 484.629,80.913 493,69.5C 495.204,60.9322 492.704,54.2656 485.5,49.5 Z"/></g>
<g><path style="opacity:0.275" fill="#91c0c1" d="M 41.5,189.5 C 41.0269,190.906 40.0269,191.573 38.5,191.5C 38.9731,190.094 39.9731,189.427 41.5,189.5 Z"/></g>
<g><path style="opacity:0.188" fill="#a9cdcf" d="M 36.5,192.5 C 35.0892,194.914 33.0892,196.581 30.5,197.5C 31.9108,195.086 33.9108,193.419 36.5,192.5 Z"/></g>
<g><path style="opacity:0.192" fill="#b6d4d5" d="M 30.5,197.5 C 29.9202,199.749 28.5869,201.415 26.5,202.5C 27.0798,200.251 28.4131,198.585 30.5,197.5 Z"/></g>
<g><path style="opacity:0.082" fill="#cbdfe0" d="M 26.5,202.5 C 26.573,204.027 25.9063,205.027 24.5,205.5C 24.427,203.973 25.0937,202.973 26.5,202.5 Z"/></g>
<g><path style="opacity:0.028" fill="#f1f7f7" d="M 278.5,190.5 C 278.685,200.375 278.019,210.042 276.5,219.5C 276.557,209.641 277.224,199.974 278.5,190.5 Z"/></g>
<g><path style="opacity:0.125" fill="#bcd7da" d="M 22.5,209.5 C 22.5,213.167 22.5,216.833 22.5,220.5C 19.8333,216.833 19.8333,213.167 22.5,209.5 Z"/></g>
<g><path style="opacity:0.075" fill="#edf5f6" d="M 23.5,222.5 C 26.7923,226.152 30.7923,228.819 35.5,230.5C 35.0576,231.739 34.3909,232.739 33.5,233.5C 32.7106,230.566 30.7106,228.732 27.5,228C 25.5359,226.549 24.2026,224.716 23.5,222.5 Z"/></g>
<g><path style="opacity:0.024" fill="#f2f7f7" d="M 32.5,236.5 C 32.5979,238.553 31.9313,240.22 30.5,241.5C 30.4021,239.447 31.0687,237.78 32.5,236.5 Z"/></g>
<g><path style="opacity:0.037" fill="#f9fbfb" d="M 275.5,235.5 C 275.638,240.414 274.972,245.081 273.5,249.5C 273.532,244.609 274.199,239.943 275.5,235.5 Z"/></g>
<g><path style="opacity:0.106" fill="#deeaea" d="M 30.5,242.5 C 30.3404,244.153 29.6737,245.486 28.5,246.5C 28.2291,244.62 28.8958,243.287 30.5,242.5 Z"/></g>
<g><path style="opacity:0.02" fill="#f0f5f7" d="M 28.5,246.5 C 28.5979,248.553 27.9313,250.22 26.5,251.5C 26.4021,249.447 27.0687,247.78 28.5,246.5 Z"/></g>
<g><path style="opacity:0.205" fill="#f4f9f9" d="M 113.5,260.5 C 113.5,258.167 113.5,255.833 113.5,253.5C 109.168,252.903 104.835,252.737 100.5,253C 90.5928,271.463 77.5928,287.463 61.5,301C 48.8428,310.775 34.5095,315.775 18.5,316C 11.439,315.099 7.10567,311.266 5.5,304.5C 7.73934,309.234 11.406,312.401 16.5,314C 25.2517,315.352 33.585,314.018 41.5,310C 66.7501,297.25 85.4168,278.083 97.5,252.5C 103.586,251.174 109.586,251.507 115.5,253.5C 114.933,255.982 114.266,258.316 113.5,260.5 Z"/></g>
<g><path style="opacity:0.041" fill="#eef5f5" d="M 25.5,253.5 C 25.5979,255.553 24.9313,257.22 23.5,258.5C 23.4021,256.447 24.0687,254.78 25.5,253.5 Z"/></g>
<g><path style="opacity:0.033" fill="#f4f8f9" d="M 272.5,254.5 C 272.277,258.162 271.277,261.495 269.5,264.5C 269.723,260.838 270.723,257.505 272.5,254.5 Z"/></g>
<g><path style="opacity:0.098" fill="#e0eded" d="M 269.5,265.5 C 269.34,267.153 268.674,268.486 267.5,269.5C 267.229,267.62 267.896,266.287 269.5,265.5 Z"/></g>
<g><path style="opacity:0.049" fill="#e0eded" d="M 19.5,267.5 C 18.9213,270.331 17.588,272.664 15.5,274.5C 16.0787,271.669 17.412,269.336 19.5,267.5 Z"/></g>
<g><path style="opacity:0.024" fill="#e9f2f3" d="M 266.5,271.5 C 266.206,274.754 264.873,277.421 262.5,279.5C 263.326,276.515 264.659,273.849 266.5,271.5 Z"/></g>
<g><path style="opacity:0.098" fill="#f7f9f9" d="M 14.5,276.5 C 14.3404,278.153 13.6737,279.486 12.5,280.5C 12.2291,278.62 12.8958,277.287 14.5,276.5 Z"/></g>
<g><path style="opacity:0.102" fill="#e5f0f0" d="M 262.5,279.5 C 262.25,281.674 261.25,283.341 259.5,284.5C 259.75,282.326 260.75,280.659 262.5,279.5 Z"/></g>
<g><path style="opacity:0.094" fill="#e3edf0" d="M 12.5,280.5 C 12.2503,282.674 11.2503,284.341 9.5,285.5C 9.74973,283.326 10.7497,281.659 12.5,280.5 Z"/></g>
<g><path style="opacity:0.122" fill="#daeded" d="M 259.5,284.5 C 259.262,286.404 258.262,287.738 256.5,288.5C 256.738,286.596 257.738,285.262 259.5,284.5 Z"/></g>
<g><path style="opacity:0.218" fill="#f4f8f9" d="M 316.5,291.5 C 316.737,292.791 316.404,293.791 315.5,294.5C 315.631,293.761 315.464,293.094 315,292.5C 304.589,303.56 292.089,311.394 277.5,316C 268.879,317.556 261.712,315.056 256,308.5C 255.517,307.552 255.351,306.552 255.5,305.5C 260.443,313.099 267.443,315.932 276.5,314C 293.34,308.819 307.173,299.319 318,285.5C 318.405,287.775 317.905,289.775 316.5,291.5 Z"/></g>
<g><path style="opacity:0.229" fill="#f4f9f9" d="M 376.5,293.5 C 375.833,293.5 375.5,293.833 375.5,294.5C 364.944,306.032 351.944,313.366 336.5,316.5C 326.667,318.266 319.5,314.599 315,305.5C 314.19,301.642 314.357,297.976 315.5,294.5C 313.959,303.587 317.293,310.087 325.5,314C 331.569,314.804 337.569,314.471 343.5,313C 357.553,307.781 369.219,299.281 378.5,287.5C 379.065,289.747 378.399,291.747 376.5,293.5 Z"/></g>
<g><path style="opacity:0.024" fill="#eff6f6" d="M 8.5,287.5 C 8.00751,289.819 7.00751,291.819 5.5,293.5C 5.46095,290.911 6.46095,288.911 8.5,287.5 Z"/></g>
<g><path style="opacity:0.184" fill="#d1e5e5" d="M 254.5,292.5 C 254.294,296.898 254.627,301.232 255.5,305.5C 252.144,301.392 251.811,297.058 254.5,292.5 Z"/></g>
</svg>
