<?xml version="1.0" encoding="UTF-8"?>
<!DOCTYPE svg PUBLIC "-//W3C//DTD SVG 1.1//EN" "http://www.w3.org/Graphics/SVG/1.1/DTD/svg11.dtd">
<svg xmlns="http://www.w3.org/2000/svg" version="1.1" width="484px" height="499px" style="shape-rendering:geometricPrecision; text-rendering:geometricPrecision; image-rendering:optimizeQuality; fill-rule:evenodd; clip-rule:evenodd" xmlns:xlink="http://www.w3.org/1999/xlink">
<g><path style="opacity:0.992" fill="#2d077a" d="M 260.5,5.5 C 263.554,8.09255 267.22,9.75922 271.5,10.5C 276.263,13.4124 280.929,16.5791 285.5,20C 291.852,26.4039 298.019,32.9039 304,39.5C 306.999,45.5016 310.499,51.1683 314.5,56.5C 317.112,62.8902 320.112,69.0568 323.5,75C 326.473,84.917 329.639,94.7503 333,104.5C 337.326,128.454 341.16,152.454 344.5,176.5C 348.747,176.178 352.747,177.011 356.5,179C 361.04,183.046 365.707,186.879 370.5,190.5C 370.511,192.017 371.177,193.184 372.5,194C 377.801,197.439 383.468,198.273 389.5,196.5C 390.605,209.803 391.272,223.136 391.5,236.5C 388.951,236.613 386.618,235.946 384.5,234.5C 383.932,241.914 383.099,249.247 382,256.5C 372.84,263.081 363.506,269.414 354,275.5C 354.854,291.06 356.687,306.393 359.5,321.5C 359.493,327.479 360.493,333.146 362.5,338.5C 365.184,355.575 370.184,371.908 377.5,387.5C 380.325,390.495 382.992,393.662 385.5,397C 389.619,399.726 393.952,401.893 398.5,403.5C 400.288,406.615 402.954,408.615 406.5,409.5C 406.908,410.643 407.575,411.643 408.5,412.5C 412.91,414.694 416.91,417.361 420.5,420.5C 409.012,421.495 397.345,421.828 385.5,421.5C 385.557,423.884 385.223,426.218 384.5,428.5C 384.453,430.038 385.12,431.038 386.5,431.5C 387.802,433.822 389.802,435.155 392.5,435.5C 393.287,437.104 394.62,437.771 396.5,437.5C 397.478,439.812 399.145,441.478 401.5,442.5C 394.03,444.865 386.696,447.532 379.5,450.5C 379.167,450.833 378.833,451.167 378.5,451.5C 379.946,453.618 380.613,455.951 380.5,458.5C 377.482,458.335 374.482,458.502 371.5,459C 374.779,468.839 378.445,478.506 382.5,488C 382.167,488.5 381.833,489 381.5,489.5C 375.325,485.17 368.992,481.004 362.5,477C 361.833,476.333 361.167,476.333 360.5,477C 363.859,482.604 366.526,488.438 368.5,494.5C 363.967,491.891 359.3,489.224 354.5,486.5C 353.035,488.424 351.368,488.757 349.5,487.5C 348.087,483.993 345.754,481.327 342.5,479.5C 342.217,478.711 341.717,478.044 341,477.5C 340.827,481.541 340.327,485.541 339.5,489.5C 337.52,485.863 334.854,482.863 331.5,480.5C 331.085,475.801 328.752,472.468 324.5,470.5C 323.833,470.5 323.5,470.167 323.5,469.5C 323.573,467.973 322.906,466.973 321.5,466.5C 320.5,466.167 319.833,465.5 319.5,464.5C 319.5,462.5 318.5,461.5 316.5,461.5C 315.738,459.738 314.404,458.738 312.5,458.5C 312.586,457.504 312.252,456.671 311.5,456C 308.95,454.558 306.284,453.392 303.5,452.5C 300.613,457.93 297.447,463.264 294,468.5C 293.434,466.277 292.6,464.277 291.5,462.5C 288.898,456.111 286.898,449.444 285.5,442.5C 285.603,439.781 285.269,437.115 284.5,434.5C 284.253,433.287 283.586,432.62 282.5,432.5C 281.624,432.631 280.957,432.298 280.5,431.5C 277.902,425.966 275.568,420.3 273.5,414.5C 272.275,409.656 270.942,404.823 269.5,400C 268.629,398.636 267.629,397.47 266.5,396.5C 266.59,393.848 265.924,391.515 264.5,389.5C 264.232,386.26 263.566,383.094 262.5,380C 262.164,378.97 261.497,378.47 260.5,378.5C 260.5,378.167 260.5,377.833 260.5,377.5C 260.279,374.933 259.612,372.599 258.5,370.5C 257.549,369.081 257.216,367.415 257.5,365.5C 256.276,358.493 254.943,351.493 253.5,344.5C 253.253,343.287 252.586,342.62 251.5,342.5C 250.539,340.735 250.205,338.735 250.5,336.5C 249.987,330.291 248.987,324.291 247.5,318.5C 246.916,311.492 246.249,304.492 245.5,297.5C 244.378,296.844 243.045,296.511 241.5,296.5C 231.972,297.063 222.638,298.063 213.5,299.5C 211.39,300.453 210.223,302.119 210,304.5C 207.411,319.263 203.411,333.596 198,347.5C 188.574,361.1 179.74,375.1 171.5,389.5C 161.494,383.925 153.994,386.258 149,396.5C 146.352,398.149 144.019,400.149 142,402.5C 137.423,398.629 132.257,395.962 126.5,394.5C 118.005,393.543 109.338,392.877 100.5,392.5C 92.0948,389.137 84.0948,384.804 76.5,379.5C 72.9247,372.274 68.5914,365.608 63.5,359.5C 62.5655,358.432 62.2322,357.099 62.5,355.5C 61.2053,346.829 61.2053,338.162 62.5,329.5C 62.5,329.167 62.5,328.833 62.5,328.5C 65.4214,323.572 68.7547,318.906 72.5,314.5C 72.6596,312.847 73.3263,311.514 74.5,310.5C 77.6606,308.08 79.3273,304.747 79.5,300.5C 80.6373,296.421 81.9706,292.421 83.5,288.5C 86.1128,285.355 87.7795,281.689 88.5,277.5C 89.6993,271.704 91.366,266.037 93.5,260.5C 94.7498,260.423 95.5831,259.756 96,258.5C 97.1434,255.223 97.9767,251.89 98.5,248.5C 98.5,248.167 98.5,247.833 98.5,247.5C 100.28,246.01 100.946,244.01 100.5,241.5C 101.433,237.035 102.766,232.701 104.5,228.5C 106.048,228.179 106.715,227.179 106.5,225.5C 106.5,225.167 106.5,224.833 106.5,224.5C 107.931,223.22 108.598,221.553 108.5,219.5C 109.265,212.589 110.598,205.922 112.5,199.5C 113.117,199.389 113.617,199.056 114,198.5C 114.315,195.628 114.815,192.795 115.5,190C 115.43,189.235 115.097,188.735 114.5,188.5C 116.655,172.063 119.321,155.73 122.5,139.5C 123.117,139.389 123.617,139.056 124,138.5C 124.548,134.83 125.048,131.163 125.5,127.5C 126.942,116.293 129.275,105.293 132.5,94.5C 133.5,94.5 134.5,94.5 135.5,94.5C 135.616,91.1401 135.949,87.8067 136.5,84.5C 137.924,82.4855 138.59,80.1522 138.5,77.5C 138.557,76.391 138.89,75.391 139.5,74.5C 141.956,72.1823 143.289,69.1823 143.5,65.5C 146.193,55.1041 151.193,46.1041 158.5,38.5C 160.587,37.4154 161.92,35.7488 162.5,33.5C 162.833,32.5 163.5,31.8333 164.5,31.5C 169.293,29.4494 173.293,26.4494 176.5,22.5C 178.153,22.3404 179.486,21.6737 180.5,20.5C 185.635,15.9326 191.635,12.9326 198.5,11.5C 200.927,11.477 203.26,10.977 205.5,10C 206.252,9.32924 206.586,8.4959 206.5,7.5C 208.435,6.85048 210.435,6.51715 212.5,6.5C 215.152,6.59047 217.485,5.92381 219.5,4.5C 231.454,3.37439 243.454,3.20773 255.5,4C 257.382,4.19808 259.048,4.69808 260.5,5.5 Z M 366.5,482.5 C 364.972,482.483 364.472,481.816 365,480.5C 365.717,481.044 366.217,481.711 366.5,482.5 Z"/></g>
<g><path style="opacity:0.114" fill="#8f7ebe" d="M 219.5,4.5 C 217.485,5.92381 215.152,6.59047 212.5,6.5C 214.438,4.83724 216.772,4.17057 219.5,4.5 Z"/></g>
<g><path style="opacity:0.012" fill="#d6cbe3" d="M 260.5,5.5 C 264.852,5.84574 268.519,7.51241 271.5,10.5C 267.22,9.75922 263.554,8.09255 260.5,5.5 Z"/></g>
<g><path style="opacity:0.247" fill="#967eba" d="M 206.5,7.5 C 206.586,8.4959 206.252,9.32924 205.5,10C 203.26,10.977 200.927,11.477 198.5,11.5C 201.101,10.1993 203.768,8.866 206.5,7.5 Z"/></g>
<g><path style="opacity:0.047" fill="#b4a8d5" d="M 180.5,20.5 C 179.486,21.6737 178.153,22.3404 176.5,22.5C 177.287,20.8958 178.62,20.2291 180.5,20.5 Z"/></g>
<g><path style="opacity:1" fill="#5d16e9" d="M 235.5,20.5 C 254.319,20.8257 270.153,27.8257 283,41.5C 299.122,62.008 310.455,85.008 317,110.5C 323.075,138.19 327.242,166.19 329.5,194.5C 344.415,190.527 353.582,195.86 357,210.5C 358.011,211.337 359.178,211.67 360.5,211.5C 359.602,214.466 358.269,217.3 356.5,220C 362.289,221.35 367.956,223.017 373.5,225C 374.576,226.726 374.743,228.559 374,230.5C 370.69,232.146 368.023,234.48 366,237.5C 366.405,241.121 366.405,244.787 366,248.5C 356.979,254.015 347.479,258.682 337.5,262.5C 336.104,263.852 335.437,265.519 335.5,267.5C 337.631,296.228 341.797,324.561 348,352.5C 352.807,371.756 359.307,390.422 367.5,408.5C 365.881,414.013 365.048,419.68 365,425.5C 362.809,427.706 361.309,430.372 360.5,433.5C 359.5,434 358.5,434.5 357.5,435C 359.037,436.11 359.703,437.61 359.5,439.5C 354.376,438.464 351.21,440.464 350,445.5C 342.321,442 334.487,441.666 326.5,444.5C 319.27,442.553 312.937,439.053 307.5,434C 297.518,423.012 290.018,410.512 285,396.5C 282.656,389.109 280.323,381.776 278,374.5C 274.156,353.276 269.823,332.276 265,311.5C 262.74,300.607 261.573,289.607 261.5,278.5C 240.81,279.251 220.143,280.418 199.5,282C 196.839,287.933 194.672,294.1 193,300.5C 190.852,317.766 185.852,334.099 178,349.5C 173.854,354.947 169.354,360.114 164.5,365C 155.982,368.261 147.982,372.594 140.5,378C 128.661,376.974 116.661,375.974 104.5,375C 91.8367,369.671 83.3367,360.504 79,347.5C 78.2093,343.074 78.5427,338.741 80,334.5C 86.4506,327.934 91.1173,320.268 94,311.5C 104.202,283.895 114.202,256.228 124,228.5C 130.279,203.163 134.946,177.496 138,151.5C 140.907,138.967 143.574,126.301 146,113.5C 150.474,94.4137 157.141,76.0804 166,58.5C 176.798,42.1803 191.631,31.3469 210.5,26C 217.167,25 223.833,24 230.5,23C 232.653,22.9005 234.319,22.0672 235.5,20.5 Z"/></g>
<g><path style="opacity:0.035" fill="#a88dc6" d="M 176.5,22.5 C 173.293,26.4494 169.293,29.4494 164.5,31.5C 167.929,27.7376 171.929,24.7376 176.5,22.5 Z"/></g>
<g><path style="opacity:0.043" fill="#bcb0cf" d="M 162.5,33.5 C 161.92,35.7488 160.587,37.4154 158.5,38.5C 159.08,36.2512 160.413,34.5846 162.5,33.5 Z"/></g>
<g><path style="opacity:0.066" fill="#ede9f3" d="M 271.5,10.5 C 276.025,11.4289 280.025,13.4289 283.5,16.5C 300.273,31.023 313.44,48.3563 323,68.5C 335.791,102.615 343.291,137.948 345.5,174.5C 350.597,174.543 355.264,176.043 359.5,179C 363.42,182.749 367.086,186.583 370.5,190.5C 365.707,186.879 361.04,183.046 356.5,179C 352.747,177.011 348.747,176.178 344.5,176.5C 341.16,152.454 337.326,128.454 333,104.5C 329.639,94.7503 326.473,84.917 323.5,75C 320.112,69.0568 317.112,62.8902 314.5,56.5C 310.499,51.1683 306.999,45.5016 304,39.5C 298.019,32.9039 291.852,26.4039 285.5,20C 280.929,16.5791 276.263,13.4124 271.5,10.5 Z"/></g>
<g><path style="opacity:0.968" fill="#330490" d="M 270.5,47.5 C 271.552,47.3505 272.552,47.5172 273.5,48C 276.631,52.1328 280.131,55.9662 284,59.5C 283.75,62.9427 282.416,63.276 280,60.5C 276.204,56.5506 273.037,52.2173 270.5,47.5 Z"/></g>
<g><path style="opacity:0.149" fill="#8563a7" d="M 143.5,65.5 C 143.289,69.1823 141.956,72.1823 139.5,74.5C 139.792,70.9336 141.126,67.9336 143.5,65.5 Z"/></g>
<g><path style="opacity:0.086" fill="#a891c4" d="M 138.5,77.5 C 138.59,80.1522 137.924,82.4855 136.5,84.5C 136.41,81.8478 137.076,79.5145 138.5,77.5 Z"/></g>
<g><path style="opacity:0.437" fill="#7b5aa5" d="M 136.5,84.5 C 135.949,87.8067 135.616,91.1401 135.5,94.5C 134.5,94.5 133.5,94.5 132.5,94.5C 133.838,91.1224 135.172,87.7891 136.5,84.5 Z"/></g>
<g><path style="opacity:0.998" fill="#290279" d="M 233.5,103.5 C 238.182,105.643 241.015,109.31 242,114.5C 245.799,139.29 249.799,163.957 254,188.5C 254.974,196.807 255.474,205.141 255.5,213.5C 239.696,214.874 224.029,216.541 208.5,218.5C 213.65,182.918 220.15,147.585 228,112.5C 228.837,108.843 230.67,105.843 233.5,103.5 Z"/></g>
<g><path style="opacity:0.055" fill="#b2a4ce" d="M 125.5,127.5 C 125.048,131.163 124.548,134.83 124,138.5C 123.617,139.056 123.117,139.389 122.5,139.5C 122.584,135.163 123.584,131.163 125.5,127.5 Z"/></g>
<g><path style="opacity:0.999" fill="#e4dfed" d="M 234.5,198.5 C 232.833,198.5 231.167,198.5 229.5,198.5C 230.162,194.534 230.495,190.534 230.5,186.5C 231.304,181.326 232.637,176.326 234.5,171.5C 236.105,180.428 237.105,189.428 237.5,198.5C 236.5,198.5 235.5,198.5 234.5,198.5 Z"/></g>
<g><path style="opacity:0.129" fill="#7c65ad" d="M 114.5,188.5 C 115.097,188.735 115.43,189.235 115.5,190C 114.815,192.795 114.315,195.628 114,198.5C 113.617,199.056 113.117,199.389 112.5,199.5C 112.251,195.542 112.918,191.876 114.5,188.5 Z"/></g>
<g><path style="opacity:0.929" fill="#9480bb" d="M 230.5,186.5 C 230.495,190.534 230.162,194.534 229.5,198.5C 231.167,198.5 232.833,198.5 234.5,198.5C 232.735,199.461 230.735,199.795 228.5,199.5C 228.438,194.924 229.105,190.591 230.5,186.5 Z"/></g>
<g><path style="opacity:0.173" fill="#c5b2d9" d="M 379.5,212.5 C 385.194,215.078 385.694,218.411 381,222.5C 380.39,219.173 379.89,215.839 379.5,212.5 Z"/></g>
<g><path style="opacity:0.012" fill="#eceaf8" d="M 108.5,219.5 C 108.598,221.553 107.931,223.22 106.5,224.5C 106.402,222.447 107.069,220.78 108.5,219.5 Z"/></g>
<g><path style="opacity:0.059" fill="#c7bfce" d="M 106.5,225.5 C 106.715,227.179 106.048,228.179 104.5,228.5C 104.427,226.973 105.094,225.973 106.5,225.5 Z"/></g>
<g><path style="opacity:0.231" fill="#9f87bf" d="M 100.5,241.5 C 100.946,244.01 100.28,246.01 98.5,247.5C 98.595,245.214 99.2616,243.214 100.5,241.5 Z"/></g>
<g><path style="opacity:0.095" fill="#ebe7f2" d="M 370.5,190.5 C 373.116,191.48 375.449,192.98 377.5,195C 381.821,195.499 386.154,195.666 390.5,195.5C 391.862,209.793 392.528,224.127 392.5,238.5C 390.738,238.643 389.071,238.309 387.5,237.5C 386.94,244.26 385.94,250.927 384.5,257.5C 375.718,264.399 366.385,270.565 356.5,276C 358.421,309.426 364.255,342.259 374,374.5C 376.283,380.008 378.95,385.342 382,390.5C 387.112,395.459 392.612,399.793 398.5,403.5C 393.952,401.893 389.619,399.726 385.5,397C 382.992,393.662 380.325,390.495 377.5,387.5C 370.184,371.908 365.184,355.575 362.5,338.5C 361.951,332.626 360.951,326.959 359.5,321.5C 356.687,306.393 354.854,291.06 354,275.5C 363.506,269.414 372.84,263.081 382,256.5C 383.099,249.247 383.932,241.914 384.5,234.5C 386.618,235.946 388.951,236.613 391.5,236.5C 391.272,223.136 390.605,209.803 389.5,196.5C 383.468,198.273 377.801,197.439 372.5,194C 371.177,193.184 370.511,192.017 370.5,190.5 Z"/></g>
<g><path style="opacity:0.071" fill="#967eb9" d="M 98.5,248.5 C 97.9767,251.89 97.1434,255.223 96,258.5C 95.5831,259.756 94.7498,260.423 93.5,260.5C 94.6546,256.203 96.3213,252.203 98.5,248.5 Z"/></g>
<g><path style="opacity:0.141" fill="#8e71b4" d="M 88.5,277.5 C 87.7795,281.689 86.1128,285.355 83.5,288.5C 84.3992,284.376 86.0659,280.709 88.5,277.5 Z"/></g>
<g><path style="opacity:0.875" fill="#400bab" d="M 265.5,279.5 C 266.665,283.109 267.832,286.776 269,290.5C 269.821,293.554 269.655,296.554 268.5,299.5C 267.914,299.291 267.414,298.957 267,298.5C 265.812,292.222 265.312,285.888 265.5,279.5 Z"/></g>
<g><path style="opacity:0.392" fill="#bcafd4" d="M 245.5,297.5 C 234.859,298.44 224.192,299.106 213.5,299.5C 222.638,298.063 231.972,297.063 241.5,296.5C 243.045,296.511 244.378,296.844 245.5,297.5 Z"/></g>
<g><path style="opacity:0.169" fill="#9481b5" d="M 79.5,300.5 C 79.3273,304.747 77.6606,308.08 74.5,310.5C 75.6589,306.849 77.3256,303.515 79.5,300.5 Z"/></g>
<g><path style="opacity:0.018" fill="#ede9f1" d="M 247.5,318.5 C 248.987,324.291 249.987,330.291 250.5,336.5C 248.439,330.804 247.439,324.804 247.5,318.5 Z"/></g>
<g><path style="opacity:0.196" fill="#9b84be" d="M 72.5,314.5 C 68.7547,318.906 65.4214,323.572 62.5,328.5C 63.86,322.466 67.1934,317.799 72.5,314.5 Z"/></g>
<g><path style="opacity:0.945" fill="#370698" d="M 268.5,303.5 C 269.931,303.881 270.764,304.881 271,306.5C 272.59,319.712 274.923,332.712 278,345.5C 278.667,348.5 278.667,351.5 278,354.5C 272.463,337.946 269.296,320.946 268.5,303.5 Z"/></g>
<g><path style="opacity:0.733" fill="#785ea9" d="M 359.5,321.5 C 360.951,326.959 361.951,332.626 362.5,338.5C 360.493,333.146 359.493,327.479 359.5,321.5 Z"/></g>
<g><path style="opacity:0.031" fill="#d5cfe4" d="M 62.5,329.5 C 61.2053,338.162 61.2053,346.829 62.5,355.5C 60.9745,351.272 60.3078,346.772 60.5,342C 60.6667,338.833 60.8333,335.667 61,332.5C 61.2321,331.263 61.7321,330.263 62.5,329.5 Z"/></g>
<g><path style="opacity:0.204" fill="#b8a4d3" d="M 251.5,342.5 C 252.586,342.62 253.253,343.287 253.5,344.5C 254.943,351.493 256.276,358.493 257.5,365.5C 254.735,358.11 252.735,350.443 251.5,342.5 Z"/></g>
<g><path style="opacity:0.98" fill="#350595" d="M 278.5,355.5 C 280.832,363.136 283.332,370.803 286,378.5C 287.057,381.549 287.224,384.549 286.5,387.5C 281.421,377.441 278.755,366.774 278.5,355.5 Z"/></g>
<g><path style="opacity:0.008" fill="#e4e1f0" d="M 258.5,370.5 C 259.612,372.599 260.279,374.933 260.5,377.5C 258.837,375.562 258.171,373.228 258.5,370.5 Z"/></g>
<g><path style="opacity:0.024" fill="#c9bfe0" d="M 260.5,378.5 C 261.497,378.47 262.164,378.97 262.5,380C 263.566,383.094 264.232,386.26 264.5,389.5C 261.81,386.453 260.476,382.787 260.5,378.5 Z"/></g>
<g><path style="opacity:0.014" fill="#e9e4f0" d="M 264.5,389.5 C 265.924,391.515 266.59,393.848 266.5,396.5C 265.076,394.485 264.41,392.152 264.5,389.5 Z"/></g>
<g><path style="opacity:0.154" fill="#f0edf5" d="M 245.5,297.5 C 246.249,304.492 246.916,311.492 247.5,318.5C 246.332,312.579 244.999,306.579 243.5,300.5C 242.5,300.167 241.5,299.833 240.5,299.5C 231.856,300.543 223.189,301.377 214.5,302C 209.879,318.201 205.045,334.367 200,350.5C 190.665,363.161 182.332,376.494 175,390.5C 171.858,392.948 168.692,392.781 165.5,390C 163.167,389.333 160.833,389.333 158.5,390C 153.799,394.366 149.466,399.033 145.5,404C 143.5,404.667 141.5,404.667 139.5,404C 135.564,400.912 131.23,398.578 126.5,397C 119.833,396.667 113.167,396.333 106.5,396C 101.273,395.409 96.2726,394.076 91.5,392C 85.9127,388.29 80.4127,384.457 75,380.5C 73.5068,375.681 70.8401,371.681 67,368.5C 65.2589,365.691 64.0922,362.691 63.5,359.5C 68.5914,365.608 72.9247,372.274 76.5,379.5C 84.0948,384.804 92.0948,389.137 100.5,392.5C 102.292,393.309 104.292,393.809 106.5,394C 113.158,394.5 119.825,394.666 126.5,394.5C 132.257,395.962 137.423,398.629 142,402.5C 144.019,400.149 146.352,398.149 149,396.5C 153.994,386.258 161.494,383.925 171.5,389.5C 179.74,375.1 188.574,361.1 198,347.5C 203.411,333.596 207.411,319.263 210,304.5C 210.223,302.119 211.39,300.453 213.5,299.5C 224.192,299.106 234.859,298.44 245.5,297.5 Z"/></g>
<g><path style="opacity:0.741" fill="#826aaf" d="M 100.5,392.5 C 109.338,392.877 118.005,393.543 126.5,394.5C 119.825,394.666 113.158,394.5 106.5,394C 104.292,393.809 102.292,393.309 100.5,392.5 Z"/></g>
<g><path style="opacity:0.97" fill="#340592" d="M 299.5,387.5 C 300.75,387.577 301.583,388.244 302,389.5C 305.853,398.721 309.52,408.054 313,417.5C 316.073,422.992 320.073,427.659 325,431.5C 325.756,433.809 325.256,435.809 323.5,437.5C 315.908,425.988 309.074,413.988 303,401.5C 301.516,396.899 300.35,392.232 299.5,387.5 Z"/></g>
<g><path style="opacity:0.012" fill="#e9e4f0" d="M 398.5,403.5 C 401.455,405.122 404.122,407.122 406.5,409.5C 402.954,408.615 400.288,406.615 398.5,403.5 Z"/></g>
<g><path style="opacity:0.231" fill="#ab98c7" d="M 266.5,396.5 C 267.629,397.47 268.629,398.636 269.5,400C 270.942,404.823 272.275,409.656 273.5,414.5C 269.662,409.204 267.329,403.204 266.5,396.5 Z"/></g>
<g><path style="opacity:0.18" fill="#bbadd5" d="M 406.5,409.5 C 412.604,412.205 417.937,415.872 422.5,420.5C 421.833,420.5 421.167,420.5 420.5,420.5C 416.91,417.361 412.91,414.694 408.5,412.5C 407.575,411.643 406.908,410.643 406.5,409.5 Z"/></g>
<g><path style="opacity:0.611" fill="#6d50a1" d="M 420.5,420.5 C 421.167,420.5 421.833,420.5 422.5,420.5C 422.5,421.167 422.5,421.833 422.5,422.5C 410.5,422.5 398.5,422.5 386.5,422.5C 386.5,425.5 386.5,428.5 386.5,431.5C 385.12,431.038 384.453,430.038 384.5,428.5C 385.223,426.218 385.557,423.884 385.5,421.5C 397.345,421.828 409.012,421.495 420.5,420.5 Z"/></g>
<g><path style="opacity:0.244" fill="#f7f4fa" d="M 422.5,422.5 C 411.012,423.495 399.345,423.828 387.5,423.5C 387.337,425.857 387.503,428.19 388,430.5C 389.634,432.062 391.134,433.729 392.5,435.5C 389.802,435.155 387.802,433.822 386.5,431.5C 386.5,428.5 386.5,425.5 386.5,422.5C 398.5,422.5 410.5,422.5 422.5,422.5 Z"/></g>
<g><path style="opacity:0.524" fill="#7557a7" d="M 282.5,432.5 C 283.586,432.62 284.253,433.287 284.5,434.5C 285.269,437.115 285.603,439.781 285.5,442.5C 283.723,439.495 282.723,436.162 282.5,432.5 Z"/></g>
<g><path style="opacity:0.078" fill="#d8cee8" d="M 392.5,435.5 C 394.38,435.229 395.713,435.896 396.5,437.5C 394.62,437.771 393.287,437.104 392.5,435.5 Z"/></g>
<g><path style="opacity:0.063" fill="#e5dfee" d="M 396.5,437.5 C 398.928,438.212 401.261,439.212 403.5,440.5C 404.614,441.723 404.781,443.056 404,444.5C 396.221,447.239 388.387,449.906 380.5,452.5C 381.374,454.747 381.708,457.08 381.5,459.5C 378.813,459.336 376.146,459.503 373.5,460C 378.346,470.212 382.179,480.712 385,491.5C 383.951,492.517 382.784,492.684 381.5,492C 376.782,488.312 371.782,485.145 366.5,482.5C 368.132,486.758 369.465,491.091 370.5,495.5C 364.717,495.776 360.05,493.609 356.5,489C 355.05,488.883 353.55,489.05 352,489.5C 350.624,489.316 349.791,488.649 349.5,487.5C 351.368,488.757 353.035,488.424 354.5,486.5C 359.3,489.224 363.967,491.891 368.5,494.5C 366.526,488.438 363.859,482.604 360.5,477C 361.167,476.333 361.833,476.333 362.5,477C 368.992,481.004 375.325,485.17 381.5,489.5C 381.833,489 382.167,488.5 382.5,488C 378.445,478.506 374.779,468.839 371.5,459C 374.482,458.502 377.482,458.335 380.5,458.5C 380.613,455.951 379.946,453.618 378.5,451.5C 378.833,451.167 379.167,450.833 379.5,450.5C 386.696,447.532 394.03,444.865 401.5,442.5C 399.145,441.478 397.478,439.812 396.5,437.5 Z M 366.5,482.5 C 366.217,481.711 365.717,481.044 365,480.5C 364.472,481.816 364.972,482.483 366.5,482.5 Z"/></g>
<g><path style="opacity:0.071" fill="#e5e0ef" d="M 312.5,458.5 C 309.854,457.513 307.188,456.513 304.5,455.5C 301.322,460.529 298.156,465.529 295,470.5C 292.412,468.604 291.245,465.937 291.5,462.5C 292.6,464.277 293.434,466.277 294,468.5C 297.447,463.264 300.613,457.93 303.5,452.5C 306.284,453.392 308.95,454.558 311.5,456C 312.252,456.671 312.586,457.504 312.5,458.5 Z"/></g>
<g><path style="opacity:0.106" fill="#ccc1dd" d="M 312.5,458.5 C 314.404,458.738 315.738,459.738 316.5,461.5C 314.596,461.262 313.262,460.262 312.5,458.5 Z"/></g>
<g><path style="opacity:0.024" fill="#d1c1db" d="M 316.5,461.5 C 318.5,461.5 319.5,462.5 319.5,464.5C 317.5,464.5 316.5,463.5 316.5,461.5 Z"/></g>
<g><path style="opacity:0.008" fill="#d6cfe8" d="M 321.5,466.5 C 322.906,466.973 323.573,467.973 323.5,469.5C 322.094,469.027 321.427,468.027 321.5,466.5 Z"/></g>
<g><path style="opacity:0.012" fill="#b0a3cf" d="M 324.5,470.5 C 328.752,472.468 331.085,475.801 331.5,480.5C 329.169,477.175 326.836,473.842 324.5,470.5 Z"/></g>
<g><path style="opacity:0.094" fill="#bbaed8" d="M 342.5,479.5 C 345.754,481.327 348.087,483.993 349.5,487.5C 346.427,485.431 344.094,482.764 342.5,479.5 Z"/></g>
<g><path style="opacity:0.129" fill="#ddd5e9" d="M 342.5,479.5 C 341.676,483.312 341.176,487.312 341,491.5C 340.586,491.957 340.086,492.291 339.5,492.5C 336.317,488.787 333.65,484.787 331.5,480.5C 334.854,482.863 337.52,485.863 339.5,489.5C 340.327,485.541 340.827,481.541 341,477.5C 341.717,478.044 342.217,478.711 342.5,479.5 Z"/></g>
</svg>
