<?xml version="1.0" encoding="UTF-8"?>
<!DOCTYPE svg PUBLIC "-//W3C//DTD SVG 1.1//EN" "http://www.w3.org/Graphics/SVG/1.1/DTD/svg11.dtd">
<svg xmlns="http://www.w3.org/2000/svg" version="1.1" width="500px" height="367px" style="shape-rendering:geometricPrecision; text-rendering:geometricPrecision; image-rendering:optimizeQuality; fill-rule:evenodd; clip-rule:evenodd" xmlns:xlink="http://www.w3.org/1999/xlink">
<g><path style="opacity:0.995" fill="#094cae" d="M 256.5,14.5 C 271.537,14.4182 286.537,15.0849 301.5,16.5C 307.611,18.3234 313.944,19.6568 320.5,20.5C 328.353,23.3398 336.353,26.0065 344.5,28.5C 347.088,30.5918 350.088,31.9251 353.5,32.5C 371.119,41.6015 386.952,53.2682 401,67.5C 401.635,69.6354 401.301,71.6354 400,73.5C 392.932,80.7361 385.766,87.7361 378.5,94.5C 352.118,67.8122 320.118,52.6455 282.5,49C 227.533,46.0677 184.7,67.2344 154,112.5C 131.808,153.658 128.474,196.325 144,240.5C 148.738,252.693 155.238,263.693 163.5,273.5C 164.08,275.749 165.413,277.415 167.5,278.5C 168.757,281.427 170.757,283.761 173.5,285.5C 175.833,287.167 177.833,289.167 179.5,291.5C 180.585,293.587 182.251,294.92 184.5,295.5C 185.167,295.5 185.5,295.833 185.5,296.5C 185.973,297.906 186.973,298.573 188.5,298.5C 189.167,298.5 189.5,298.833 189.5,299.5C 189.973,300.906 190.973,301.573 192.5,301.5C 193.71,301.932 194.71,302.599 195.5,303.5C 195.973,304.906 196.973,305.573 198.5,305.5C 199.492,305.328 200.158,305.662 200.5,306.5C 200.973,307.906 201.973,308.573 203.5,308.5C 211.507,312.051 219.507,315.384 227.5,318.5C 230.799,320.483 234.466,321.483 238.5,321.5C 247.166,324.22 256.166,325.553 265.5,325.5C 274.185,325.536 282.851,325.203 291.5,324.5C 295.764,324.656 299.764,323.989 303.5,322.5C 304.919,321.549 306.585,321.216 308.5,321.5C 313.165,320.943 317.498,319.61 321.5,317.5C 328.976,313.597 336.642,309.93 344.5,306.5C 346.027,306.573 347.027,305.906 347.5,304.5C 349.027,304.573 350.027,303.906 350.5,302.5C 350.842,301.662 351.508,301.328 352.5,301.5C 354.404,301.262 355.738,300.262 356.5,298.5C 358.027,298.573 359.027,297.906 359.5,296.5C 361.027,296.573 362.027,295.906 362.5,294.5C 364.749,293.92 366.415,292.587 367.5,290.5C 370.5,289.5 372.5,287.5 373.5,284.5C 374.167,283.167 375.167,282.167 376.5,281.5C 377.873,281.343 379.207,281.51 380.5,282C 381.705,283.376 383.038,284.542 384.5,285.5C 389.403,291.909 394.903,297.909 401,303.5C 401.667,304.5 401.667,305.5 401,306.5C 358.607,346.634 308.107,364.134 249.5,359C 227.268,356.361 206.268,349.861 186.5,339.5C 185.508,339.672 184.842,339.338 184.5,338.5C 183.341,336.75 181.674,335.75 179.5,335.5C 175.852,332.34 171.852,329.673 167.5,327.5C 167.027,326.094 166.027,325.427 164.5,325.5C 163.415,323.413 161.749,322.08 159.5,321.5C 158.089,319.086 156.089,317.419 153.5,316.5C 152.5,316.167 151.833,315.5 151.5,314.5C 151.167,313.5 150.5,312.833 149.5,312.5C 148.833,312.5 148.5,312.167 148.5,311.5C 147.167,309.5 145.5,307.833 143.5,306.5C 143.167,305.5 142.5,304.833 141.5,304.5C 140.167,303.833 139.167,302.833 138.5,301.5C 137.527,298.865 135.86,296.865 133.5,295.5C 133.262,293.596 132.262,292.262 130.5,291.5C 130.262,289.596 129.262,288.262 127.5,287.5C 127.573,285.973 126.906,284.973 125.5,284.5C 124.662,284.158 124.328,283.492 124.5,282.5C 124.573,280.973 123.906,279.973 122.5,279.5C 122.25,277.326 121.25,275.659 119.5,274.5C 117.341,268.849 114.674,263.516 111.5,258.5C 111.065,255.843 110.065,253.509 108.5,251.5C 108.598,249.447 107.931,247.78 106.5,246.5C 106.277,242.838 105.277,239.505 103.5,236.5C 103.101,232.884 102.101,229.55 100.5,226.5C 100.5,226.167 100.5,225.833 100.5,225.5C 100.247,221.96 99.5808,218.627 98.5,215.5C 97.5386,213.735 97.2053,211.735 97.5,209.5C 97.3039,193.816 97.6372,178.149 98.5,162.5C 98.4196,156.522 99.4196,150.855 101.5,145.5C 102.924,143.485 103.59,141.152 103.5,138.5C 103.5,138.167 103.5,137.833 103.5,137.5C 104.924,135.485 105.59,133.152 105.5,130.5C 105.557,129.391 105.89,128.391 106.5,127.5C 107.674,126.486 108.34,125.153 108.5,123.5C 109.044,119.534 110.377,115.867 112.5,112.5C 113.906,112.027 114.573,111.027 114.5,109.5C 114.5,109.167 114.5,108.833 114.5,108.5C 115.906,108.027 116.573,107.027 116.5,105.5C 117.326,102.515 118.659,99.8485 120.5,97.5C 121.906,97.0269 122.573,96.0269 122.5,94.5C 123.906,94.0269 124.573,93.0269 124.5,91.5C 126.262,90.7377 127.262,89.4044 127.5,87.5C 128.906,87.0269 129.573,86.0269 129.5,84.5C 131.587,83.4154 132.92,81.7488 133.5,79.5C 135.262,78.7377 136.262,77.4044 136.5,75.5C 136.833,74.5 137.5,73.8333 138.5,73.5C 139.5,73.1667 140.167,72.5 140.5,71.5C 143.5,69.1667 146.167,66.5 148.5,63.5C 149.833,62.8333 150.833,61.8333 151.5,60.5C 154.764,58.9059 157.431,56.5725 159.5,53.5C 161.749,52.9202 163.415,51.5869 164.5,49.5C 166.749,48.9202 168.415,47.5869 169.5,45.5C 171.027,45.573 172.027,44.9063 172.5,43.5C 174.027,43.573 175.027,42.9063 175.5,41.5C 175.842,40.6618 176.508,40.3284 177.5,40.5C 179.027,40.573 180.027,39.9063 180.5,38.5C 182.027,38.573 183.027,37.9063 183.5,36.5C 183.842,35.6618 184.508,35.3284 185.5,35.5C 187.027,35.573 188.027,34.9063 188.5,33.5C 189.209,32.596 190.209,32.2627 191.5,32.5C 193.027,32.573 194.027,31.9063 194.5,30.5C 196.553,30.5979 198.22,29.9313 199.5,28.5C 199.842,27.6618 200.508,27.3284 201.5,27.5C 203.553,27.5979 205.22,26.9313 206.5,25.5C 208.698,25.8799 210.365,25.2132 211.5,23.5C 212.209,22.596 213.209,22.2627 214.5,22.5C 217.495,22.7062 220.162,22.0395 222.5,20.5C 225.152,20.5905 227.485,19.9238 229.5,18.5C 238.189,15.9017 247.189,14.5684 256.5,14.5 Z"/></g>
<g><path style="opacity:0.021" fill="#dce6f4" d="M 256.5,14.5 C 265.657,13.3424 274.991,13.1757 284.5,14C 290.4,14.2103 296.066,15.0437 301.5,16.5C 286.537,15.0849 271.537,14.4182 256.5,14.5 Z"/></g>
<g><path style="opacity:0.055" fill="#cfdaf0" d="M 301.5,16.5 C 308.216,16.6691 314.55,18.0025 320.5,20.5C 313.944,19.6568 307.611,18.3234 301.5,16.5 Z"/></g>
<g><path style="opacity:0.365" fill="#93acdb" d="M 229.5,18.5 C 227.485,19.9238 225.152,20.5905 222.5,20.5C 224.438,18.8372 226.772,18.1706 229.5,18.5 Z"/></g>
<g><path style="opacity:0.333" fill="#91aad8" d="M 222.5,20.5 C 220.162,22.0395 217.495,22.7062 214.5,22.5C 216.905,21.2318 219.572,20.5651 222.5,20.5 Z"/></g>
<g><path style="opacity:0.037" fill="#dde6f4" d="M 320.5,20.5 C 327.731,21.4096 334.731,23.2429 341.5,26C 342.942,26.3768 343.942,27.2101 344.5,28.5C 336.353,26.0065 328.353,23.3398 320.5,20.5 Z"/></g>
<g><path style="opacity:0.424" fill="#98adda" d="M 211.5,23.5 C 210.365,25.2132 208.698,25.8799 206.5,25.5C 207.93,24.4625 209.597,23.7959 211.5,23.5 Z"/></g>
<g><path style="opacity:0.051" fill="#cedff1" d="M 206.5,25.5 C 205.22,26.9313 203.553,27.5979 201.5,27.5C 202.78,26.0687 204.447,25.4021 206.5,25.5 Z"/></g>
<g><path style="opacity:0.039" fill="#ced7f2" d="M 199.5,28.5 C 198.22,29.9313 196.553,30.5979 194.5,30.5C 195.78,29.0687 197.447,28.4021 199.5,28.5 Z"/></g>
<g><path style="opacity:0.065" fill="#e3eaf5" d="M 344.5,28.5 C 348.102,28.6924 351.102,30.0257 353.5,32.5C 350.088,31.9251 347.088,30.5918 344.5,28.5 Z"/></g>
<g><path style="opacity:0.224" fill="#b2c5e6" d="M 194.5,30.5 C 194.027,31.9063 193.027,32.573 191.5,32.5C 191.973,31.0937 192.973,30.427 194.5,30.5 Z"/></g>
<g><path style="opacity:0.161" fill="#c7d3ee" d="M 188.5,33.5 C 188.027,34.9063 187.027,35.573 185.5,35.5C 185.973,34.0937 186.973,33.427 188.5,33.5 Z"/></g>
<g><path style="opacity:0.271" fill="#9fb8de" d="M 183.5,36.5 C 183.027,37.9063 182.027,38.573 180.5,38.5C 180.973,37.0937 181.973,36.427 183.5,36.5 Z"/></g>
<g><path style="opacity:0.349" fill="#88a2d8" d="M 180.5,38.5 C 180.027,39.9063 179.027,40.573 177.5,40.5C 177.973,39.0937 178.973,38.427 180.5,38.5 Z"/></g>
<g><path style="opacity:0.235" fill="#9dbbe1" d="M 175.5,41.5 C 175.027,42.9063 174.027,43.573 172.5,43.5C 172.973,42.0937 173.973,41.427 175.5,41.5 Z"/></g>
<g><path style="opacity:0.188" fill="#b9cbe8" d="M 172.5,43.5 C 172.027,44.9063 171.027,45.573 169.5,45.5C 169.973,44.0937 170.973,43.427 172.5,43.5 Z"/></g>
<g><path style="opacity:0.42" fill="#8fa5d8" d="M 169.5,45.5 C 168.415,47.5869 166.749,48.9202 164.5,49.5C 165.585,47.4131 167.251,46.0798 169.5,45.5 Z"/></g>
<g><path style="opacity:0.155" fill="#ecf1f9" d="M 353.5,32.5 C 371.634,40.2849 387.634,51.2849 401.5,65.5C 403.044,69.486 402.544,73.1527 400,76.5C 393.372,83.2933 386.539,89.9599 379.5,96.5C 341.117,59.6441 295.451,45.1441 242.5,53C 173.74,72.1121 138.074,117.445 135.5,189C 136.589,220.101 145.923,248.268 163.5,273.5C 155.238,263.693 148.738,252.693 144,240.5C 128.474,196.325 131.808,153.658 154,112.5C 184.7,67.2344 227.533,46.0677 282.5,49C 320.118,52.6455 352.118,67.8122 378.5,94.5C 385.766,87.7361 392.932,80.7361 400,73.5C 401.301,71.6354 401.635,69.6354 401,67.5C 386.952,53.2682 371.119,41.6015 353.5,32.5 Z"/></g>
<g><path style="opacity:0.396" fill="#7c98d3" d="M 164.5,49.5 C 163.415,51.5869 161.749,52.9202 159.5,53.5C 160.585,51.4131 162.251,50.0798 164.5,49.5 Z"/></g>
<g><path style="opacity:0.333" fill="#7892cf" d="M 159.5,53.5 C 157.431,56.5725 154.764,58.9059 151.5,60.5C 153.569,57.4275 156.236,55.0941 159.5,53.5 Z"/></g>
<g><path style="opacity:0.141" fill="#a4bce0" d="M 151.5,60.5 C 150.833,61.8333 149.833,62.8333 148.5,63.5C 148.5,61.5 149.5,60.5 151.5,60.5 Z"/></g>
<g><path style="opacity:0.204" fill="#9fb7df" d="M 148.5,63.5 C 146.167,66.5 143.5,69.1667 140.5,71.5C 142.167,67.8333 144.833,65.1667 148.5,63.5 Z"/></g>
<g><path style="opacity:0.11" fill="#c2d6e8" d="M 140.5,71.5 C 140.167,72.5 139.5,73.1667 138.5,73.5C 138.5,72.1667 139.167,71.5 140.5,71.5 Z"/></g>
<g><path style="opacity:0.278" fill="#a7bce1" d="M 136.5,75.5 C 136.262,77.4044 135.262,78.7377 133.5,79.5C 133.738,77.5956 134.738,76.2623 136.5,75.5 Z"/></g>
<g><path style="opacity:0.106" fill="#a9bee1" d="M 133.5,79.5 C 132.92,81.7488 131.587,83.4154 129.5,84.5C 130.08,82.2512 131.413,80.5846 133.5,79.5 Z"/></g>
<g><path style="opacity:0.161" fill="#a5bae2" d="M 129.5,84.5 C 129.573,86.0269 128.906,87.0269 127.5,87.5C 127.427,85.9731 128.094,84.9731 129.5,84.5 Z"/></g>
<g><path style="opacity:0.2" fill="#9fb7df" d="M 127.5,87.5 C 127.262,89.4044 126.262,90.7377 124.5,91.5C 124.738,89.5956 125.738,88.2623 127.5,87.5 Z"/></g>
<g><path style="opacity:0.071" fill="#c8d5ee" d="M 124.5,91.5 C 124.573,93.0269 123.906,94.0269 122.5,94.5C 122.427,92.9731 123.094,91.9731 124.5,91.5 Z"/></g>
<g><path style="opacity:0.047" fill="#d1e1f5" d="M 122.5,94.5 C 122.573,96.0269 121.906,97.0269 120.5,97.5C 120.427,95.9731 121.094,94.9731 122.5,94.5 Z"/></g>
<g><path style="opacity:0.047" fill="#c1d0e9" d="M 116.5,105.5 C 116.573,107.027 115.906,108.027 114.5,108.5C 114.427,106.973 115.094,105.973 116.5,105.5 Z"/></g>
<g><path style="opacity:0.027" fill="#c7cff2" d="M 114.5,109.5 C 114.573,111.027 113.906,112.027 112.5,112.5C 112.427,110.973 113.094,109.973 114.5,109.5 Z"/></g>
<g><path style="opacity:0.165" fill="#adc4e1" d="M 108.5,123.5 C 108.34,125.153 107.674,126.486 106.5,127.5C 106.229,125.62 106.896,124.287 108.5,123.5 Z"/></g>
<g><path style="opacity:0.208" fill="#b6c8e7" d="M 105.5,130.5 C 105.59,133.152 104.924,135.485 103.5,137.5C 103.41,134.848 104.076,132.515 105.5,130.5 Z"/></g>
<g><path style="opacity:0.2" fill="#97afdc" d="M 103.5,138.5 C 103.59,141.152 102.924,143.485 101.5,145.5C 101.171,142.772 101.837,140.438 103.5,138.5 Z"/></g>
<g><path style="opacity:0.118" fill="#9fb6df" d="M 98.5,162.5 C 97.6372,178.149 97.3039,193.816 97.5,209.5C 96.3395,196.006 96.1728,182.34 97,168.5C 97.1909,166.292 97.6909,164.292 98.5,162.5 Z"/></g>
<g><path style="opacity:0.025" fill="#e0e9f6" d="M 98.5,215.5 C 99.5808,218.627 100.247,221.96 100.5,225.5C 98.8255,222.493 98.1588,219.16 98.5,215.5 Z"/></g>
<g><path style="opacity:0.024" fill="#dce6f3" d="M 100.5,226.5 C 102.101,229.55 103.101,232.884 103.5,236.5C 101.59,233.548 100.59,230.214 100.5,226.5 Z"/></g>
<g><path style="opacity:0.014" fill="#d0dbf0" d="M 103.5,236.5 C 105.277,239.505 106.277,242.838 106.5,246.5C 104.32,243.619 103.32,240.286 103.5,236.5 Z"/></g>
<g><path style="opacity:0.086" fill="#d7e2f1" d="M 106.5,246.5 C 107.931,247.78 108.598,249.447 108.5,251.5C 107.069,250.22 106.402,248.553 106.5,246.5 Z"/></g>
<g><path style="opacity:0.016" fill="#e6edf7" d="M 108.5,251.5 C 110.065,253.509 111.065,255.843 111.5,258.5C 109.552,256.68 108.552,254.346 108.5,251.5 Z"/></g>
<g><path style="opacity:0.086" fill="#d8e3f3" d="M 111.5,258.5 C 114.674,263.516 117.341,268.849 119.5,274.5C 115.793,269.753 113.126,264.419 111.5,258.5 Z"/></g>
<g><path style="opacity:0.071" fill="#d9e2f4" d="M 119.5,274.5 C 121.25,275.659 122.25,277.326 122.5,279.5C 120.75,278.341 119.75,276.674 119.5,274.5 Z"/></g>
<g><path style="opacity:0.125" fill="#e0e9f3" d="M 163.5,273.5 C 165.587,274.585 166.92,276.251 167.5,278.5C 165.413,277.415 164.08,275.749 163.5,273.5 Z"/></g>
<g><path style="opacity:0.024" fill="#dae5f4" d="M 122.5,279.5 C 123.906,279.973 124.573,280.973 124.5,282.5C 123.094,282.027 122.427,281.027 122.5,279.5 Z"/></g>
<g><path style="opacity:0.016" fill="#e8eef8" d="M 384.5,285.5 C 383.038,284.542 381.705,283.376 380.5,282C 379.207,281.51 377.873,281.343 376.5,281.5C 377.777,279.086 379.443,278.919 381.5,281C 383.141,282.129 384.141,283.629 384.5,285.5 Z"/></g>
<g><path style="opacity:0.216" fill="#d5e0f1" d="M 167.5,278.5 C 170.243,280.239 172.243,282.573 173.5,285.5C 170.757,283.761 168.757,281.427 167.5,278.5 Z"/></g>
<g><path style="opacity:0.008" fill="#eff2fa" d="M 125.5,284.5 C 126.906,284.973 127.573,285.973 127.5,287.5C 126.094,287.027 125.427,286.027 125.5,284.5 Z"/></g>
<g><path style="opacity:0.443" fill="#7992d0" d="M 373.5,284.5 C 372.5,287.5 370.5,289.5 367.5,290.5C 369.167,288.167 371.167,286.167 373.5,284.5 Z"/></g>
<g><path style="opacity:0.004" fill="#e8eff7" d="M 127.5,287.5 C 129.262,288.262 130.262,289.596 130.5,291.5C 128.738,290.738 127.738,289.404 127.5,287.5 Z"/></g>
<g><path style="opacity:0.008" fill="#cfdcef" d="M 179.5,291.5 C 181.749,292.08 183.415,293.413 184.5,295.5C 182.251,294.92 180.585,293.587 179.5,291.5 Z"/></g>
<g><path style="opacity:0.004" fill="#e4ebf6" d="M 130.5,291.5 C 132.262,292.262 133.262,293.596 133.5,295.5C 131.738,294.738 130.738,293.404 130.5,291.5 Z"/></g>
<g><path style="opacity:0.525" fill="#829ad3" d="M 367.5,290.5 C 366.415,292.587 364.749,293.92 362.5,294.5C 363.585,292.413 365.251,291.08 367.5,290.5 Z"/></g>
<g><path style="opacity:0.337" fill="#95addd" d="M 362.5,294.5 C 362.027,295.906 361.027,296.573 359.5,296.5C 359.973,295.094 360.973,294.427 362.5,294.5 Z"/></g>
<g><path style="opacity:0.004" fill="#e0e9f4" d="M 185.5,296.5 C 187.027,296.427 188.027,297.094 188.5,298.5C 186.973,298.573 185.973,297.906 185.5,296.5 Z"/></g>
<g><path style="opacity:0.004" fill="#cbd7ee" d="M 133.5,295.5 C 135.86,296.865 137.527,298.865 138.5,301.5C 136.11,300.109 134.443,298.109 133.5,295.5 Z"/></g>
<g><path style="opacity:0.224" fill="#b4c4e6" d="M 359.5,296.5 C 359.027,297.906 358.027,298.573 356.5,298.5C 356.973,297.094 357.973,296.427 359.5,296.5 Z"/></g>
<g><path style="opacity:0.004" fill="#e0e9f6" d="M 189.5,299.5 C 191.027,299.427 192.027,300.094 192.5,301.5C 190.973,301.573 189.973,300.906 189.5,299.5 Z"/></g>
<g><path style="opacity:0.18" fill="#b4c6e7" d="M 356.5,298.5 C 355.738,300.262 354.404,301.262 352.5,301.5C 353.262,299.738 354.596,298.738 356.5,298.5 Z"/></g>
<g><path style="opacity:0.004" fill="#e6ebf7" d="M 195.5,303.5 C 197.027,303.427 198.027,304.094 198.5,305.5C 196.973,305.573 195.973,304.906 195.5,303.5 Z"/></g>
<g><path style="opacity:0.204" fill="#b4c8e6" d="M 350.5,302.5 C 350.027,303.906 349.027,304.573 347.5,304.5C 347.973,303.094 348.973,302.427 350.5,302.5 Z"/></g>
<g><path style="opacity:0.004" fill="#e5edf7" d="M 141.5,304.5 C 142.5,304.833 143.167,305.5 143.5,306.5C 142.167,306.5 141.5,305.833 141.5,304.5 Z"/></g>
<g><path style="opacity:0.306" fill="#95b1de" d="M 347.5,304.5 C 347.027,305.906 346.027,306.573 344.5,306.5C 344.973,305.094 345.973,304.427 347.5,304.5 Z"/></g>
<g><path style="opacity:0.004" fill="#e4e9f7" d="M 200.5,306.5 C 202.027,306.427 203.027,307.094 203.5,308.5C 201.973,308.573 200.973,307.906 200.5,306.5 Z"/></g>
<g><path style="opacity:0.004" fill="#dee6f3" d="M 143.5,306.5 C 145.5,307.833 147.167,309.5 148.5,311.5C 145.833,310.833 144.167,309.167 143.5,306.5 Z"/></g>
<g><path style="opacity:0.169" fill="#e7edf7" d="M 384.5,285.5 C 391.63,291.289 397.63,297.955 402.5,305.5C 402.14,307.421 401.306,309.088 400,310.5C 347.542,357.404 287.042,371.904 218.5,354C 207.118,350.471 196.451,345.638 186.5,339.5C 206.268,349.861 227.268,356.361 249.5,359C 308.107,364.134 358.607,346.634 401,306.5C 401.667,305.5 401.667,304.5 401,303.5C 394.903,297.909 389.403,291.909 384.5,285.5 Z"/></g>
<g><path style="opacity:0.004" fill="#e7eef7" d="M 149.5,312.5 C 150.5,312.833 151.167,313.5 151.5,314.5C 150.167,314.5 149.5,313.833 149.5,312.5 Z"/></g>
<g><path style="opacity:0.012" fill="#d3ddf0" d="M 227.5,318.5 C 231.427,318.926 235.093,319.926 238.5,321.5C 234.466,321.483 230.799,320.483 227.5,318.5 Z"/></g>
<g><path style="opacity:0.333" fill="#849ed3" d="M 321.5,317.5 C 317.498,319.61 313.165,320.943 308.5,321.5C 312.491,319.394 316.824,318.061 321.5,317.5 Z"/></g>
<g><path style="opacity:0.082" fill="#cfdbef" d="M 153.5,316.5 C 156.089,317.419 158.089,319.086 159.5,321.5C 156.911,320.581 154.911,318.914 153.5,316.5 Z"/></g>
<g><path style="opacity:0.157" fill="#a5bde1" d="M 303.5,322.5 C 299.764,323.989 295.764,324.656 291.5,324.5C 295.267,323.205 299.267,322.539 303.5,322.5 Z"/></g>
<g><path style="opacity:0.015" fill="#ccd8ee" d="M 238.5,321.5 C 247.687,322.478 256.687,323.812 265.5,325.5C 256.166,325.553 247.166,324.22 238.5,321.5 Z"/></g>
<g><path style="opacity:0.086" fill="#d4e1f0" d="M 159.5,321.5 C 161.749,322.08 163.415,323.413 164.5,325.5C 162.251,324.92 160.585,323.587 159.5,321.5 Z"/></g>
<g><path style="opacity:0.208" fill="#d1ddf0" d="M 164.5,325.5 C 166.027,325.427 167.027,326.094 167.5,327.5C 165.973,327.573 164.973,326.906 164.5,325.5 Z"/></g>
<g><path style="opacity:0.133" fill="#dfe7f5" d="M 167.5,327.5 C 171.852,329.673 175.852,332.34 179.5,335.5C 174.803,333.822 170.803,331.156 167.5,327.5 Z"/></g>
<g><path style="opacity:0.067" fill="#e4ecf6" d="M 179.5,335.5 C 181.674,335.75 183.341,336.75 184.5,338.5C 182.326,338.25 180.659,337.25 179.5,335.5 Z"/></g>
</svg>
