<?xml version="1.0" encoding="UTF-8"?>
<!DOCTYPE svg PUBLIC "-//W3C//DTD SVG 1.1//EN" "http://www.w3.org/Graphics/SVG/1.1/DTD/svg11.dtd">
<svg xmlns="http://www.w3.org/2000/svg" version="1.1" width="500px" height="367px" style="shape-rendering:geometricPrecision; text-rendering:geometricPrecision; image-rendering:optimizeQuality; fill-rule:evenodd; clip-rule:evenodd" xmlns:xlink="http://www.w3.org/1999/xlink">
<g><path style="opacity:0.994" fill="#11c166" d="M 288.5,25.5 C 291.215,27.0719 294.215,28.0719 297.5,28.5C 298.492,28.3284 299.158,28.6618 299.5,29.5C 301.181,31.0075 303.181,32.0075 305.5,32.5C 307.153,32.6596 308.486,33.3263 309.5,34.5C 309.973,35.9063 310.973,36.573 312.5,36.5C 313.659,38.2503 315.326,39.2503 317.5,39.5C 318.167,39.5 318.5,39.8333 318.5,40.5C 318.973,41.9063 319.973,42.573 321.5,42.5C 322.262,44.2624 323.596,45.2624 325.5,45.5C 326.911,47.914 328.911,49.5806 331.5,50.5C 332.5,50.8333 333.167,51.5 333.5,52.5C 338.167,57.8333 343.167,62.8333 348.5,67.5C 349.031,69.5441 350.198,71.2107 352,72.5C 352.667,73.8333 352.667,75.1667 352,76.5C 349.656,78.1813 347.323,79.848 345,81.5C 341.945,80.3895 339.112,78.8895 336.5,77C 333.899,73.8883 330.899,71.3883 327.5,69.5C 327.189,68.5222 326.522,67.8555 325.5,67.5C 324.218,68.9584 324.218,70.2918 325.5,71.5C 325.738,73.4044 326.738,74.7377 328.5,75.5C 331.834,80.8346 334.667,86.5012 337,92.5C 337.965,96.7824 337.298,100.782 335,104.5C 334.044,105.894 332.711,106.561 331,106.5C 326.952,105.223 323.118,103.557 319.5,101.5C 308.919,93.1975 297.919,85.3641 286.5,78C 269.644,67.4346 253.311,68.1013 237.5,80C 224.054,91.4593 214.554,105.626 209,122.5C 196.69,152.952 193.69,184.285 200,216.5C 201.932,224.941 204.766,232.941 208.5,240.5C 209.127,244.42 210.793,247.753 213.5,250.5C 214.338,250.842 214.672,251.508 214.5,252.5C 214.427,254.027 215.094,255.027 216.5,255.5C 217.338,255.842 217.672,256.508 217.5,257.5C 217.427,259.027 218.094,260.027 219.5,260.5C 219.427,262.027 220.094,263.027 221.5,263.5C 221.738,265.404 222.738,266.738 224.5,267.5C 225.5,267.833 226.167,268.5 226.5,269.5C 227.08,271.749 228.413,273.415 230.5,274.5C 252.498,295.334 277.498,299.667 305.5,287.5C 307.681,287.284 309.347,288.117 310.5,290C 302.579,296.255 293.579,300.088 283.5,301.5C 279.512,301.84 275.512,302.174 271.5,302.5C 275.984,303.811 280.317,303.811 284.5,302.5C 293.097,302.191 300.764,299.525 307.5,294.5C 307.833,294.5 308.167,294.5 308.5,294.5C 311.188,294.166 313.521,294.832 315.5,296.5C 315.897,297.525 316.563,297.692 317.5,297C 319.041,295.629 320.375,294.129 321.5,292.5C 323.749,291.92 325.415,290.587 326.5,288.5C 330.321,284.818 334.654,283.818 339.5,285.5C 343.831,289.769 344.664,294.769 342,300.5C 334.505,312.353 324.005,320.52 310.5,325C 294.501,330.113 278.168,331.946 261.5,330.5C 228.768,322.962 203.268,304.962 185,276.5C 184.685,277.908 185.018,279.241 186,280.5C 203.232,307.887 227.732,324.887 259.5,331.5C 284.123,334.942 307.29,330.609 329,318.5C 329.667,319.5 329.667,320.5 329,321.5C 319.12,332.024 306.953,338.19 292.5,340C 276.994,342.313 261.661,341.48 246.5,337.5C 245.22,336.069 243.553,335.402 241.5,335.5C 240.209,335.737 239.209,335.404 238.5,334.5C 236.574,332.707 234.241,331.707 231.5,331.5C 230.341,329.75 228.674,328.75 226.5,328.5C 225.508,328.672 224.842,328.338 224.5,327.5C 224.027,326.094 223.027,325.427 221.5,325.5C 221.027,324.094 220.027,323.427 218.5,323.5C 217.738,321.738 216.404,320.738 214.5,320.5C 214.224,317.281 212.891,314.615 210.5,312.5C 210.027,311.094 209.027,310.427 207.5,310.5C 206.738,308.738 205.404,307.738 203.5,307.5C 202.415,305.413 200.749,304.08 198.5,303.5C 196.833,302.5 195.5,301.167 194.5,299.5C 193.833,298.167 192.833,297.167 191.5,296.5C 189.167,294.833 187.167,292.833 185.5,290.5C 185.573,288.973 184.906,287.973 183.5,287.5C 181.738,286.738 180.738,285.404 180.5,283.5C 180.446,281.368 179.446,280.035 177.5,279.5C 172.542,273.254 168.876,266.254 166.5,258.5C 165.89,257.609 165.557,256.609 165.5,255.5C 165.068,254.29 164.401,253.29 163.5,252.5C 161.485,246.411 159.485,240.411 157.5,234.5C 157.435,231.572 156.768,228.905 155.5,226.5C 155.737,225.209 155.404,224.209 154.5,223.5C 154.737,222.209 154.404,221.209 153.5,220.5C 153.5,219.167 153.5,217.833 153.5,216.5C 153.802,213.941 153.468,211.607 152.5,209.5C 149.448,185.366 150.448,161.366 155.5,137.5C 156.924,135.485 157.59,133.152 157.5,130.5C 158.343,125.462 159.343,120.462 160.5,115.5C 161.404,114.791 161.737,113.791 161.5,112.5C 162.338,112.158 162.672,111.492 162.5,110.5C 163.167,110.5 163.5,110.167 163.5,109.5C 163.5,108.833 163.5,108.167 163.5,107.5C 164.167,107.5 164.5,107.167 164.5,106.5C 164.5,106.167 164.5,105.833 164.5,105.5C 164.649,104.448 164.483,103.448 164,102.5C 160.67,109.661 157.836,116.994 155.5,124.5C 154.566,123.432 154.232,122.099 154.5,120.5C 158.105,105.638 164.105,91.9717 172.5,79.5C 173.906,79.0269 174.573,78.0269 174.5,76.5C 175.34,74.1475 176.674,72.1475 178.5,70.5C 179.906,70.0269 180.573,69.0269 180.5,67.5C 182.372,64.4181 184.705,61.7514 187.5,59.5C 188.906,59.0269 189.573,58.0269 189.5,56.5C 189.833,55.5 190.5,54.8333 191.5,54.5C 193.5,54.5 194.5,53.5 194.5,51.5C 197.089,50.5806 199.089,48.914 200.5,46.5C 203.089,45.5806 205.089,43.914 206.5,41.5C 207.29,40.5987 208.29,39.9321 209.5,39.5C 211.027,39.573 212.027,38.9063 212.5,37.5C 212.842,36.6618 213.508,36.3284 214.5,36.5C 216.027,36.573 217.027,35.9063 217.5,34.5C 219.181,32.9925 221.181,31.9925 223.5,31.5C 226.649,31.5848 229.316,30.5848 231.5,28.5C 232.78,27.0687 234.447,26.4021 236.5,26.5C 239.781,26.5797 242.781,25.913 245.5,24.5C 258.327,23.3398 271.327,23.1731 284.5,24C 286.058,24.21 287.391,24.71 288.5,25.5 Z"/></g>
<g><path style="opacity:0.302" fill="#aee9c9" d="M 245.5,24.5 C 242.781,25.913 239.781,26.5797 236.5,26.5C 239.219,25.087 242.219,24.4203 245.5,24.5 Z"/></g>
<g><path style="opacity:0.02" fill="#e7f9f0" d="M 288.5,25.5 C 291.916,25.5275 294.916,26.5275 297.5,28.5C 294.215,28.0719 291.215,27.0719 288.5,25.5 Z"/></g>
<g><path style="opacity:0.388" fill="#8fe0b0" d="M 231.5,28.5 C 229.316,30.5848 226.649,31.5848 223.5,31.5C 225.684,29.4152 228.351,28.4152 231.5,28.5 Z"/></g>
<g><path style="opacity:0.029" fill="#eaf9f1" d="M 299.5,29.5 C 302.089,29.461 304.089,30.461 305.5,32.5C 303.181,32.0075 301.181,31.0075 299.5,29.5 Z"/></g>
<g><path style="opacity:0.012" fill="#ebfaf1" d="M 309.5,34.5 C 311.027,34.427 312.027,35.0937 312.5,36.5C 310.973,36.573 309.973,35.9063 309.5,34.5 Z"/></g>
<g><path style="opacity:0.255" fill="#a8eac5" d="M 217.5,34.5 C 217.027,35.9063 216.027,36.573 214.5,36.5C 214.973,35.0937 215.973,34.427 217.5,34.5 Z"/></g>
<g><path style="opacity:0.041" fill="#edfaf3" d="M 312.5,36.5 C 314.674,36.7497 316.341,37.7497 317.5,39.5C 315.326,39.2503 313.659,38.2503 312.5,36.5 Z"/></g>
<g><path style="opacity:0.169" fill="#b4eacd" d="M 212.5,37.5 C 212.027,38.9063 211.027,39.573 209.5,39.5C 209.973,38.0937 210.973,37.427 212.5,37.5 Z"/></g>
<g><path style="opacity:0.016" fill="#e7f9f1" d="M 318.5,40.5 C 320.027,40.427 321.027,41.0937 321.5,42.5C 319.973,42.573 318.973,41.9063 318.5,40.5 Z"/></g>
<g><path style="opacity:0.008" fill="#ecfaf3" d="M 321.5,42.5 C 323.404,42.7376 324.738,43.7376 325.5,45.5C 323.596,45.2624 322.262,44.2624 321.5,42.5 Z"/></g>
<g><path style="opacity:0.275" fill="#9be4b9" d="M 206.5,41.5 C 205.089,43.914 203.089,45.5806 200.5,46.5C 201.911,44.086 203.911,42.4194 206.5,41.5 Z"/></g>
<g><path style="opacity:0.057" fill="#ebfaf2" d="M 325.5,45.5 C 328.089,46.4194 330.089,48.086 331.5,50.5C 328.911,49.5806 326.911,47.914 325.5,45.5 Z"/></g>
<g><path style="opacity:0.231" fill="#a1e6c0" d="M 200.5,46.5 C 199.089,48.914 197.089,50.5806 194.5,51.5C 195.911,49.086 197.911,47.4194 200.5,46.5 Z"/></g>
<g><path style="opacity:0.008" fill="#f1fbf6" d="M 333.5,52.5 C 339.5,56.5 344.5,61.5 348.5,67.5C 343.167,62.8333 338.167,57.8333 333.5,52.5 Z"/></g>
<g><path style="opacity:0.235" fill="#99e3b8" d="M 194.5,51.5 C 194.5,53.5 193.5,54.5 191.5,54.5C 192.167,53.1667 193.167,52.1667 194.5,51.5 Z"/></g>
<g><path style="opacity:0.161" fill="#b1ebcb" d="M 189.5,56.5 C 189.573,58.0269 188.906,59.0269 187.5,59.5C 187.427,57.9731 188.094,56.9731 189.5,56.5 Z"/></g>
<g><path style="opacity:0.177" fill="#f3fcf7" d="M 327.5,69.5 C 326.167,69.5 325.5,70.1667 325.5,71.5C 324.218,70.2918 324.218,68.9584 325.5,67.5C 326.522,67.8555 327.189,68.5222 327.5,69.5 Z"/></g>
<g><path style="opacity:0.067" fill="#b6e8ce" d="M 180.5,67.5 C 180.573,69.0269 179.906,70.0269 178.5,70.5C 178.427,68.9731 179.094,67.9731 180.5,67.5 Z"/></g>
<g><path style="opacity:0.153" fill="#f0fbf6" d="M 319.5,101.5 C 307.795,94.6409 296.462,87.1409 285.5,79C 271.167,70.3333 256.833,70.3333 242.5,79C 227.331,90.1618 216.831,104.662 211,122.5C 203.56,142.7 199.06,163.533 197.5,185C 198.429,204.084 202.096,222.584 208.5,240.5C 204.766,232.941 201.932,224.941 200,216.5C 193.69,184.285 196.69,152.952 209,122.5C 214.554,105.626 224.054,91.4593 237.5,80C 253.311,68.1013 269.644,67.4346 286.5,78C 297.919,85.3641 308.919,93.1975 319.5,101.5 Z"/></g>
<g><path style="opacity:0.427" fill="#d4f4e4" d="M 325.5,71.5 C 327.262,72.2623 328.262,73.5956 328.5,75.5C 326.738,74.7377 325.738,73.4044 325.5,71.5 Z"/></g>
<g><path style="opacity:0.086" fill="#9ae2ba" d="M 174.5,76.5 C 174.573,78.0269 173.906,79.0269 172.5,79.5C 172.427,77.9731 173.094,76.9731 174.5,76.5 Z"/></g>
<g><path style="opacity:0.158" fill="#ebfaf2" d="M 348.5,67.5 C 352.97,69.4768 354.47,72.8102 353,77.5C 350.781,80.3605 347.947,82.3605 344.5,83.5C 337.575,80.2303 331.908,75.5636 327.5,69.5C 330.899,71.3883 333.899,73.8883 336.5,77C 339.112,78.8895 341.945,80.3895 345,81.5C 347.323,79.848 349.656,78.1813 352,76.5C 352.667,75.1667 352.667,73.8333 352,72.5C 350.198,71.2107 349.031,69.5441 348.5,67.5 Z"/></g>
<g><path style="opacity:0.152" fill="#f2fcf7" d="M 328.5,75.5 C 336.141,83.2552 339.308,92.5885 338,103.5C 335.447,108.626 331.614,109.793 326.5,107C 323.734,105.629 321.401,103.796 319.5,101.5C 323.118,103.557 326.952,105.223 331,106.5C 332.711,106.561 334.044,105.894 335,104.5C 337.298,100.782 337.965,96.7824 337,92.5C 334.667,86.5012 331.834,80.8346 328.5,75.5 Z"/></g>
<g><path style="opacity:0.114" fill="#a7e8c6" d="M 157.5,130.5 C 157.59,133.152 156.924,135.485 155.5,137.5C 155.41,134.848 156.076,132.515 157.5,130.5 Z"/></g>
<g><path style="opacity:0.844" fill="#63d392" d="M 154.5,120.5 C 154.232,122.099 154.566,123.432 155.5,124.5C 149.452,146.414 146.785,168.748 147.5,191.5C 147.5,192.167 147.167,192.5 146.5,192.5C 144.326,167.893 146.993,143.893 154.5,120.5 Z"/></g>
<g><path style="opacity:0.718" fill="#84dfaf" d="M 147.5,191.5 C 148.833,196.833 148.833,202.167 147.5,207.5C 146.555,202.595 146.221,197.595 146.5,192.5C 147.167,192.5 147.5,192.167 147.5,191.5 Z"/></g>
<g><path style="opacity:0.087" fill="#e0f7eb" d="M 164.5,105.5 C 163.167,105.833 163.167,106.167 164.5,106.5C 164.5,107.167 164.167,107.5 163.5,107.5C 162.167,108.167 162.167,108.833 163.5,109.5C 163.5,110.167 163.167,110.5 162.5,110.5C 161.662,110.842 161.328,111.508 161.5,112.5C 160.596,113.209 160.263,114.209 160.5,115.5C 150.202,144.443 146.869,174.276 150.5,205C 150.441,206.436 150.108,207.769 149.5,209C 151.004,210.491 151.837,212.324 152,214.5C 152.494,212.866 152.66,211.199 152.5,209.5C 153.468,211.607 153.802,213.941 153.5,216.5C 152.167,217.833 152.167,219.167 153.5,220.5C 153.263,221.791 153.596,222.791 154.5,223.5C 155.404,224.209 155.737,225.209 155.5,226.5C 154.518,227.141 153.518,227.807 152.5,228.5C 150.75,225.435 149.75,222.102 149.5,218.5C 148.276,214.816 147.61,211.149 147.5,207.5C 148.833,202.167 148.833,196.833 147.5,191.5C 146.785,168.748 149.452,146.414 155.5,124.5C 157.836,116.994 160.67,109.661 164,102.5C 164.483,103.448 164.649,104.448 164.5,105.5 Z"/></g>
<g><path style="opacity:0.941" fill="#54d495" d="M 149.5,218.5 C 149.361,211.386 150.028,211.053 151.5,217.5C 151.561,219.721 150.895,220.054 149.5,218.5 Z"/></g>
<g><path style="opacity:0.008" fill="#d4f5e2" d="M 155.5,226.5 C 156.768,228.905 157.435,231.572 157.5,234.5C 155.96,232.162 155.294,229.495 155.5,226.5 Z"/></g>
<g><path style="opacity:0.039" fill="#e7f8f0" d="M 157.5,234.5 C 159.485,240.411 161.485,246.411 163.5,252.5C 162.671,253.332 161.838,252.999 161,251.5C 160.536,252.094 160.369,252.761 160.5,253.5C 159.326,252.486 158.66,251.153 158.5,249.5C 159.65,250.85 160.317,250.684 160.5,249C 159.393,245.846 158.393,242.68 157.5,239.5C 157.5,237.833 157.5,236.167 157.5,234.5 Z"/></g>
<g><path style="opacity:0.686" fill="#92e3b9" d="M 157.5,239.5 C 158.393,242.68 159.393,245.846 160.5,249C 160.317,250.684 159.65,250.85 158.5,249.5C 156.469,246.292 156.135,242.959 157.5,239.5 Z"/></g>
<g><path style="opacity:0.053" fill="#e8faf0" d="M 208.5,240.5 C 210.674,243.515 212.341,246.849 213.5,250.5C 210.793,247.753 209.127,244.42 208.5,240.5 Z"/></g>
<g><path style="opacity:0.78" fill="#81dead" d="M 163.5,252.5 C 164.401,253.29 165.068,254.29 165.5,255.5C 164.624,255.369 163.957,255.702 163.5,256.5C 164.705,257.995 164.705,259.328 163.5,260.5C 161.552,258.68 160.552,256.346 160.5,253.5C 160.369,252.761 160.536,252.094 161,251.5C 161.838,252.999 162.671,253.332 163.5,252.5 Z"/></g>
<g><path style="opacity:0.049" fill="#f3fbf7" d="M 214.5,252.5 C 215.906,252.973 216.573,253.973 216.5,255.5C 215.094,255.027 214.427,254.027 214.5,252.5 Z"/></g>
<g><path style="opacity:0.161" fill="#def7ea" d="M 217.5,257.5 C 218.906,257.973 219.573,258.973 219.5,260.5C 218.094,260.027 217.427,259.027 217.5,257.5 Z"/></g>
<g><path style="opacity:0.18" fill="#e7f9f0" d="M 165.5,255.5 C 165.557,256.609 165.89,257.609 166.5,258.5C 165.71,259.609 165.21,260.942 165,262.5C 164.283,261.956 163.783,261.289 163.5,260.5C 164.705,259.328 164.705,257.995 163.5,256.5C 163.957,255.702 164.624,255.369 165.5,255.5 Z"/></g>
<g><path style="opacity:0.2" fill="#d6f5e4" d="M 219.5,260.5 C 220.906,260.973 221.573,261.973 221.5,263.5C 220.094,263.027 219.427,262.027 219.5,260.5 Z"/></g>
<g><path style="opacity:0.298" fill="#bbefd1" d="M 221.5,263.5 C 223.262,264.262 224.262,265.596 224.5,267.5C 222.738,266.738 221.738,265.404 221.5,263.5 Z"/></g>
<g><path style="opacity:0.165" fill="#cef2e0" d="M 226.5,269.5 C 228.587,270.585 229.92,272.251 230.5,274.5C 228.413,273.415 227.08,271.749 226.5,269.5 Z"/></g>
<g><path style="opacity:0.627" fill="#a0e5bd" d="M 177.5,279.5 C 179.446,280.035 180.446,281.368 180.5,283.5C 179.026,282.564 178.026,281.23 177.5,279.5 Z"/></g>
<g><path style="opacity:0.004" fill="#dff8eb" d="M 183.5,287.5 C 184.906,287.973 185.573,288.973 185.5,290.5C 184.094,290.027 183.427,289.027 183.5,287.5 Z"/></g>
<g><path style="opacity:0.447" fill="#8ae0ab" d="M 326.5,288.5 C 325.415,290.587 323.749,291.92 321.5,292.5C 322.585,290.413 324.251,289.08 326.5,288.5 Z"/></g>
<g><path style="opacity:0.31" fill="#95e3b6" d="M 321.5,292.5 C 320.375,294.129 319.041,295.629 317.5,297C 316.563,297.692 315.897,297.525 315.5,296.5C 317.246,294.748 319.246,293.415 321.5,292.5 Z"/></g>
<g><path style="opacity:0.004" fill="#e0f7eb" d="M 191.5,296.5 C 192.833,297.167 193.833,298.167 194.5,299.5C 192.5,299.5 191.5,298.5 191.5,296.5 Z"/></g>
<g><path style="opacity:0.054" fill="#ddf6e8" d="M 305.5,287.5 C 308.332,285.889 310.332,286.722 311.5,290C 311.355,290.772 311.022,291.439 310.5,292C 313.115,292.612 314.781,294.112 315.5,296.5C 313.521,294.832 311.188,294.166 308.5,294.5C 308.167,293.167 307.833,293.167 307.5,294.5C 300.764,299.525 293.097,302.191 284.5,302.5C 283.833,302.5 283.5,302.167 283.5,301.5C 293.579,300.088 302.579,296.255 310.5,290C 309.347,288.117 307.681,287.284 305.5,287.5 Z"/></g>
<g><path style="opacity:0.224" fill="#79ddac" d="M 283.5,301.5 C 283.5,302.167 283.833,302.5 284.5,302.5C 280.317,303.811 275.984,303.811 271.5,302.5C 275.512,302.174 279.512,301.84 283.5,301.5 Z"/></g>
<g><path style="opacity:0.129" fill="#d3f3e4" d="M 198.5,303.5 C 200.749,304.08 202.415,305.413 203.5,307.5C 201.251,306.92 199.585,305.587 198.5,303.5 Z"/></g>
<g><path style="opacity:0.176" fill="#d0f3e2" d="M 203.5,307.5 C 205.404,307.738 206.738,308.738 207.5,310.5C 205.596,310.262 204.262,309.262 203.5,307.5 Z"/></g>
<g><path style="opacity:0.137" fill="#dbf6e8" d="M 207.5,310.5 C 209.027,310.427 210.027,311.094 210.5,312.5C 208.973,312.573 207.973,311.906 207.5,310.5 Z"/></g>
<g><path style="opacity:0.996" fill="#c6f1db" d="M 261.5,330.5 C 260.508,330.328 259.842,330.662 259.5,331.5C 227.732,324.887 203.232,307.887 186,280.5C 185.018,279.241 184.685,277.908 185,276.5C 203.268,304.962 228.768,322.962 261.5,330.5 Z"/></g>
<g><path style="opacity:0.235" fill="#d1f3e0" d="M 214.5,320.5 C 216.404,320.738 217.738,321.738 218.5,323.5C 216.596,323.262 215.262,322.262 214.5,320.5 Z"/></g>
<g><path style="opacity:0.078" fill="#e9fbef" d="M 218.5,323.5 C 220.027,323.427 221.027,324.094 221.5,325.5C 219.973,325.573 218.973,324.906 218.5,323.5 Z"/></g>
<g><path style="opacity:0.11" fill="#ebfbf0" d="M 221.5,325.5 C 223.027,325.427 224.027,326.094 224.5,327.5C 222.973,327.573 221.973,326.906 221.5,325.5 Z"/></g>
<g><path style="opacity:0.043" fill="#e7f9f0" d="M 226.5,328.5 C 228.674,328.75 230.341,329.75 231.5,331.5C 229.326,331.25 227.659,330.25 226.5,328.5 Z"/></g>
<g><path style="opacity:0.996" fill="#edfaf3" d="M 339.5,285.5 C 342.091,286.254 343.924,287.921 345,290.5C 345.558,296.27 344.224,301.603 341,306.5C 337.466,310.369 333.633,313.869 329.5,317C 330.428,317.388 331.095,318.055 331.5,319C 328.513,325.987 323.513,330.987 316.5,334C 300.398,342.047 283.398,344.714 265.5,342C 258.792,341.572 252.459,340.072 246.5,337.5C 261.661,341.48 276.994,342.313 292.5,340C 306.953,338.19 319.12,332.024 329,321.5C 329.667,320.5 329.667,319.5 329,318.5C 307.29,330.609 284.123,334.942 259.5,331.5C 259.842,330.662 260.508,330.328 261.5,330.5C 278.168,331.946 294.501,330.113 310.5,325C 324.005,320.52 334.505,312.353 342,300.5C 344.664,294.769 343.831,289.769 339.5,285.5 Z"/></g>
<g><path style="opacity:0.035" fill="#effbf5" d="M 231.5,331.5 C 234.241,331.707 236.574,332.707 238.5,334.5C 235.759,334.293 233.426,333.293 231.5,331.5 Z"/></g>
<g><path style="opacity:0.031" fill="#f4fdf9" d="M 241.5,335.5 C 243.553,335.402 245.22,336.069 246.5,337.5C 244.447,337.598 242.78,336.931 241.5,335.5 Z"/></g>
</svg>
