<?xml version="1.0" encoding="UTF-8"?>
<!DOCTYPE svg PUBLIC "-//W3C//DTD SVG 1.1//EN" "http://www.w3.org/Graphics/SVG/1.1/DTD/svg11.dtd">
<svg xmlns="http://www.w3.org/2000/svg" version="1.1" width="500px" height="366px" style="shape-rendering:geometricPrecision; text-rendering:geometricPrecision; image-rendering:optimizeQuality; fill-rule:evenodd; clip-rule:evenodd" xmlns:xlink="http://www.w3.org/1999/xlink">
<g><path style="opacity:0.993" fill="#157275" d="M 327.5,30.5 C 327.973,31.9063 328.973,32.573 330.5,32.5C 334.884,34.6102 337.884,37.9435 339.5,42.5C 350.448,70.8193 342.115,91.3193 314.5,104C 295.633,109.8 276.633,115.133 257.5,120C 254.949,121.516 255.282,122.349 258.5,122.5C 265.565,123.114 272.565,124.114 279.5,125.5C 283.236,126.989 287.236,127.656 291.5,127.5C 301.395,128.073 310.728,130.407 319.5,134.5C 320.514,135.674 321.847,136.34 323.5,136.5C 324.262,138.262 325.596,139.262 327.5,139.5C 328.08,141.749 329.413,143.415 331.5,144.5C 333.193,148.769 334.193,153.269 334.5,158C 333.941,166.617 330.774,174.117 325,180.5C 317.478,189.361 308.312,195.861 297.5,200C 282.074,204.357 266.741,209.023 251.5,214C 248.183,215.48 246.183,217.98 245.5,221.5C 244.733,222.172 244.066,223.005 243.5,224C 246.696,224.805 249.696,224.638 252.5,223.5C 268.808,222.393 285.142,222.227 301.5,223C 314.707,223.881 327.041,227.381 338.5,233.5C 338.973,234.906 339.973,235.573 341.5,235.5C 344.118,238.785 347.118,241.785 350.5,244.5C 351.597,247.686 352.93,250.686 354.5,253.5C 354.5,260.833 354.5,268.167 354.5,275.5C 347.004,299.833 331.337,316.666 307.5,326C 281.7,335.793 255.033,341.293 227.5,342.5C 214.075,342.971 200.741,342.138 187.5,340C 181.511,338.448 175.844,336.115 170.5,333C 165.953,329.279 161.62,325.446 157.5,321.5C 154.251,317.341 151.751,312.674 150,307.5C 147.101,297.34 145.101,287.007 144,276.5C 143.367,250.494 143.533,224.494 144.5,198.5C 145.198,195.103 145.865,191.603 146.5,188C 145.663,186.989 145.33,185.822 145.5,184.5C 146.029,144.13 147.529,103.796 150,63.5C 153.193,42.6425 165.026,29.8091 185.5,25C 199.423,22.8953 213.423,21.5619 227.5,21C 250.167,20.3333 272.833,20.3333 295.5,21C 307.028,21.7097 317.695,24.8764 327.5,30.5 Z"/></g>
<g><path style="opacity:0.004" fill="#ecf3f3" d="M 327.5,30.5 C 329.027,30.427 330.027,31.0937 330.5,32.5C 328.973,32.573 327.973,31.9063 327.5,30.5 Z"/></g>
<g><path style="opacity:1" fill="#fd904d" d="M 165.5,121.5 C 166.506,103.004 167.172,84.3374 167.5,65.5C 170.165,50.6791 179.165,42.5124 194.5,41C 222.104,38.169 249.771,36.8357 277.5,37C 287.531,38.1163 297.531,39.4496 307.5,41C 325.706,47.1911 330.873,59.0245 323,76.5C 318.963,81.1018 314.129,84.6018 308.5,87C 290.495,93.4185 272.161,98.7518 253.5,103C 247.086,105.62 241.253,109.12 236,113.5C 229.867,123.4 232.034,130.9 242.5,136C 263.039,140.645 283.705,144.645 304.5,148C 317.516,150.875 320.016,157.709 312,168.5C 306.633,175.524 299.8,180.691 291.5,184C 275.29,188.385 259.29,193.385 243.5,199C 228.03,207.772 221.53,220.939 224,238.5C 225.319,240.487 227.152,241.654 229.5,242C 246.488,241.706 263.488,241.206 280.5,240.5C 294.365,240.294 308.032,241.794 321.5,245C 335.178,249.523 340.011,258.689 336,272.5C 330.812,289.688 319.979,301.855 303.5,309C 268.105,323.344 231.438,328.344 193.5,324C 181.604,321.312 173.104,314.479 168,303.5C 165.035,294.044 163.035,284.377 162,274.5C 161.333,256.833 161.333,239.167 162,221.5C 164.402,188.211 165.568,154.878 165.5,121.5 Z"/></g>
<g><path style="opacity:0.135" fill="#f1f7f7" d="M 339.5,42.5 C 342.564,45.8237 344.397,49.8237 345,54.5C 347.537,82.3058 335.37,100.139 308.5,108C 293.248,112.313 277.915,116.313 262.5,120C 260.68,120.2 259.347,121.034 258.5,122.5C 255.282,122.349 254.949,121.516 257.5,120C 276.633,115.133 295.633,109.8 314.5,104C 342.115,91.3193 350.448,70.8193 339.5,42.5 Z"/></g>
<g><path style="opacity:0.95" fill="#7d8061" d="M 167.5,65.5 C 167.172,84.3374 166.506,103.004 165.5,121.5C 165.153,102.639 165.819,83.9724 167.5,65.5 Z"/></g>
<g><path style="opacity:0.022" fill="#e9f4f5" d="M 279.5,125.5 C 283.733,125.539 287.733,126.205 291.5,127.5C 287.236,127.656 283.236,126.989 279.5,125.5 Z"/></g>
<g><path style="opacity:0.018" fill="#e3eeef" d="M 319.5,134.5 C 321.38,134.229 322.713,134.896 323.5,136.5C 321.847,136.34 320.514,135.674 319.5,134.5 Z"/></g>
<g><path style="opacity:0.004" fill="#e3efef" d="M 323.5,136.5 C 325.404,136.738 326.738,137.738 327.5,139.5C 325.596,139.262 324.262,138.262 323.5,136.5 Z"/></g>
<g><path style="opacity:0.049" fill="#e6f0f0" d="M 327.5,139.5 C 329.587,140.585 330.92,142.251 331.5,144.5C 329.413,143.415 328.08,141.749 327.5,139.5 Z"/></g>
<g><path style="opacity:0.016" fill="#8ebbbb" d="M 145.5,184.5 C 145.33,185.822 145.663,186.989 146.5,188C 145.865,191.603 145.198,195.103 144.5,198.5C 144.181,193.637 144.514,188.97 145.5,184.5 Z"/></g>
<g><path style="opacity:0.153" fill="#eff6f6" d="M 331.5,144.5 C 333.163,146.493 334.33,148.826 335,151.5C 336.958,161.95 334.625,171.284 328,179.5C 320.1,190.037 309.933,197.537 297.5,202C 282.747,206.022 268.081,210.355 253.5,215C 250.669,217.001 248.003,219.167 245.5,221.5C 246.183,217.98 248.183,215.48 251.5,214C 266.741,209.023 282.074,204.357 297.5,200C 308.312,195.861 317.478,189.361 325,180.5C 330.774,174.117 333.941,166.617 334.5,158C 334.193,153.269 333.193,148.769 331.5,144.5 Z"/></g>
<g><path style="opacity:0.054" fill="#f5f8f8" d="M 245.5,221.5 C 247.279,223.344 249.612,224.01 252.5,223.5C 249.696,224.638 246.696,224.805 243.5,224C 244.066,223.005 244.733,222.172 245.5,221.5 Z"/></g>
<g><path style="opacity:0.004" fill="#edf7f7" d="M 338.5,233.5 C 340.027,233.427 341.027,234.094 341.5,235.5C 339.973,235.573 338.973,234.906 338.5,233.5 Z"/></g>
<g><path style="opacity:0.008" fill="#d9e9ea" d="M 341.5,235.5 C 345.522,237.522 348.522,240.522 350.5,244.5C 347.118,241.785 344.118,238.785 341.5,235.5 Z"/></g>
<g><path style="opacity:0.071" fill="#f6fafa" d="M 350.5,244.5 C 353.165,246.835 354.498,249.835 354.5,253.5C 352.93,250.686 351.597,247.686 350.5,244.5 Z"/></g>
<g><path style="opacity:0.224" fill="#f3f8f8" d="M 354.5,275.5 C 348.806,299.045 334.806,315.878 312.5,326C 279.332,339.806 244.999,345.639 209.5,343.5C 215.69,343.823 221.69,343.49 227.5,342.5C 255.033,341.293 281.7,335.793 307.5,326C 331.337,316.666 347.004,299.833 354.5,275.5 Z"/></g>
<g><path style="opacity:0.169" fill="#e1eeee" d="M 157.5,321.5 C 161.62,325.446 165.953,329.279 170.5,333C 175.844,336.115 181.511,338.448 187.5,340C 200.741,342.138 214.075,342.971 227.5,342.5C 221.69,343.49 215.69,343.823 209.5,343.5C 194.402,344.155 180.402,340.655 167.5,333C 163.584,329.59 160.251,325.757 157.5,321.5 Z"/></g>
</svg>
