<?xml version="1.0" encoding="UTF-8"?>
<!DOCTYPE svg PUBLIC "-//W3C//DTD SVG 1.1//EN" "http://www.w3.org/Graphics/SVG/1.1/DTD/svg11.dtd">
<svg xmlns="http://www.w3.org/2000/svg" version="1.1" width="500px" height="364px" style="shape-rendering:geometricPrecision; text-rendering:geometricPrecision; image-rendering:optimizeQuality; fill-rule:evenodd; clip-rule:evenodd" xmlns:xlink="http://www.w3.org/1999/xlink">
<g><path style="opacity:0.996" fill="#0c7375" d="M 278.5,21.5 C 285.316,22.8558 292.316,23.8558 299.5,24.5C 302.727,24.6761 305.727,25.3428 308.5,26.5C 310.515,27.9238 312.848,28.5905 315.5,28.5C 316.791,28.2627 317.791,28.596 318.5,29.5C 320.792,31.2671 323.458,32.2671 326.5,32.5C 328.819,32.9925 330.819,33.9925 332.5,35.5C 332.973,36.9063 333.973,37.573 335.5,37.5C 336.492,37.3284 337.158,37.6618 337.5,38.5C 338.262,40.2624 339.596,41.2624 341.5,41.5C 343.833,44.5 346.5,47.1667 349.5,49.5C 350.08,51.7488 351.413,53.4154 353.5,54.5C 353.75,56.674 354.75,58.3406 356.5,59.5C 357.167,61.5 357.833,63.5 358.5,65.5C 359.256,69.767 360.589,73.767 362.5,77.5C 362.5,83.8333 362.5,90.1667 362.5,96.5C 358.069,111.264 348.736,121.597 334.5,127.5C 312.741,134.4 290.407,137.066 267.5,135.5C 266.5,135.5 265.5,135.5 264.5,135.5C 258.347,134.347 252.014,134.18 245.5,135C 250.198,135.351 254.864,135.851 259.5,136.5C 265.54,137.285 271.54,138.285 277.5,139.5C 278.609,139.557 279.609,139.89 280.5,140.5C 281.167,141.167 281.833,141.833 282.5,142.5C 285.114,143.831 287.781,145.164 290.5,146.5C 292.167,147.167 293.833,147.833 295.5,148.5C 297.785,151.452 300.452,154.118 303.5,156.5C 303.5,157.167 303.5,157.833 303.5,158.5C 304.11,160.434 305.11,162.101 306.5,163.5C 306.5,163.833 306.5,164.167 306.5,164.5C 308.865,175.349 309.865,186.349 309.5,197.5C 308.853,207.088 306.186,216.088 301.5,224.5C 297.403,230.766 292.737,236.6 287.5,242C 283.266,245.082 278.933,247.916 274.5,250.5C 271.458,250.733 268.792,251.733 266.5,253.5C 266.167,253.5 265.833,253.5 265.5,253.5C 259,253.936 252.666,254.602 246.5,255.5C 246.5,256.167 246.167,256.5 245.5,256.5C 244.778,256.918 244.278,257.584 244,258.5C 242.804,272.008 240.638,285.341 237.5,298.5C 235.405,309.022 230.905,318.356 224,326.5C 217.916,333.616 210.416,338.283 201.5,340.5C 196.489,340.666 191.489,340.499 186.5,340C 183.647,338.57 180.647,337.737 177.5,337.5C 173.016,335.757 168.683,333.757 164.5,331.5C 161.129,328.129 157.463,325.129 153.5,322.5C 152.243,319.573 150.243,317.239 147.5,315.5C 147.104,312.279 145.771,309.612 143.5,307.5C 140.247,299.488 138.08,291.155 137,282.5C 136.617,281.944 136.117,281.611 135.5,281.5C 135.5,275.5 135.5,269.5 135.5,263.5C 138.91,220.398 140.243,177.065 139.5,133.5C 139.173,114.112 140.007,94.7791 142,75.5C 143.523,66.0866 146.689,57.4199 151.5,49.5C 154.622,47.8743 156.288,45.2076 156.5,41.5C 160.217,35.4497 165.217,30.7831 171.5,27.5C 173.027,27.573 174.027,26.9063 174.5,25.5C 180.084,22.4353 186.084,20.6019 192.5,20C 216.167,19.3333 239.833,19.3333 263.5,20C 268.582,20.2186 273.582,20.7186 278.5,21.5 Z"/></g>
<g><path style="opacity:0.011" fill="#d7e6e6" d="M 278.5,21.5 C 285.797,21.3302 292.797,22.3302 299.5,24.5C 292.316,23.8558 285.316,22.8558 278.5,21.5 Z"/></g>
<g><path style="opacity:0.086" fill="#a7cdcc" d="M 174.5,25.5 C 174.027,26.9063 173.027,27.573 171.5,27.5C 171.973,26.0937 172.973,25.427 174.5,25.5 Z"/></g>
<g><path style="opacity:0.01" fill="#e1efee" d="M 308.5,26.5 C 311.152,26.4095 313.485,27.0762 315.5,28.5C 312.848,28.5905 310.515,27.9238 308.5,26.5 Z"/></g>
<g><path style="opacity:0.027" fill="#d8e5e5" d="M 318.5,29.5 C 321.542,29.7329 324.208,30.7329 326.5,32.5C 323.458,32.2671 320.792,31.2671 318.5,29.5 Z"/></g>
<g><path style="opacity:1" fill="#54b362" d="M 196.5,36.5 C 204.993,35.8336 213.66,35.5002 222.5,35.5C 236.695,35.3711 250.695,36.0377 264.5,37.5C 241.83,37.3666 219.163,37.0332 196.5,36.5 Z"/></g>
<g><path style="opacity:0.027" fill="#d3f0f0" d="M 332.5,35.5 C 334.027,35.427 335.027,36.0937 335.5,37.5C 333.973,37.573 332.973,36.9063 332.5,35.5 Z"/></g>
<g><path style="opacity:1" fill="#48a964" d="M 195.5,36.5 C 191.767,38.411 187.767,39.7444 183.5,40.5C 187.085,38.1939 191.085,36.8606 195.5,36.5 Z"/></g>
<g><path style="opacity:1" fill="#7dd857" d="M 195.5,36.5 C 195.833,36.5 196.167,36.5 196.5,36.5C 219.163,37.0332 241.83,37.3666 264.5,37.5C 266.5,37.5 268.5,37.5 270.5,37.5C 274.919,38.9715 279.586,39.6382 284.5,39.5C 285.833,39.5 287.167,39.5 288.5,39.5C 293.963,41.1956 299.629,42.5289 305.5,43.5C 305.833,43.5 306.167,43.5 306.5,43.5C 308.509,45.0652 310.843,46.0652 313.5,46.5C 324.756,50.2504 333.922,56.9171 341,66.5C 342.122,68.4068 342.955,70.4068 343.5,72.5C 345.132,79.0442 345.799,85.7109 345.5,92.5C 343.466,102.205 337.799,108.872 328.5,112.5C 325.843,112.935 323.509,113.935 321.5,115.5C 319.565,116.15 317.565,116.483 315.5,116.5C 310.55,116.77 305.883,117.77 301.5,119.5C 286.819,119.637 272.152,119.303 257.5,118.5C 251.347,117.347 245.014,117.18 238.5,118C 236.685,118.757 235.019,119.59 233.5,120.5C 230.573,121.757 228.239,123.757 226.5,126.5C 225.094,126.973 224.427,127.973 224.5,129.5C 222.983,131.462 222.316,133.795 222.5,136.5C 222.667,138.167 222.833,139.833 223,141.5C 223.383,142.056 223.883,142.389 224.5,142.5C 225.76,144.367 227.427,145.7 229.5,146.5C 230.262,148.262 231.596,149.262 233.5,149.5C 235.515,150.924 237.848,151.59 240.5,151.5C 255.666,151.246 269.999,154.413 283.5,161C 286.447,163.436 288.78,166.269 290.5,169.5C 292.304,178.357 292.971,187.357 292.5,196.5C 292.007,198.806 291.674,201.139 291.5,203.5C 290.699,205.042 290.366,206.708 290.5,208.5C 289.094,208.973 288.427,209.973 288.5,211.5C 283.271,227.07 272.604,236.07 256.5,238.5C 249.485,238.422 242.485,238.089 235.5,237.5C 233.716,236.28 232.05,236.28 230.5,237.5C 228.905,248.995 227.571,260.662 226.5,272.5C 226.5,273.833 226.5,275.167 226.5,276.5C 224.926,278.102 224.259,280.102 224.5,282.5C 224.13,286.233 223.463,289.899 222.5,293.5C 220.416,296.053 219.083,299.053 218.5,302.5C 215.405,312.725 209.072,320.059 199.5,324.5C 194.047,324.635 188.714,323.968 183.5,322.5C 183.027,321.094 182.027,320.427 180.5,320.5C 169.522,315.522 161.522,307.522 156.5,296.5C 156.573,294.973 155.906,293.973 154.5,293.5C 154.483,291.435 154.15,289.435 153.5,287.5C 152.62,276.527 152.287,265.527 152.5,254.5C 153.387,245.199 153.721,235.866 153.5,226.5C 155.084,212.698 155.75,198.698 155.5,184.5C 156.453,159.188 156.786,133.855 156.5,108.5C 156.174,98.3192 156.84,88.3192 158.5,78.5C 159.924,76.4855 160.59,74.1522 160.5,71.5C 162.472,68.9164 163.472,65.9164 163.5,62.5C 163.66,60.847 164.326,59.5137 165.5,58.5C 166.906,58.0269 167.573,57.0269 167.5,55.5C 171.098,48.692 176.432,43.692 183.5,40.5C 187.767,39.7444 191.767,38.411 195.5,36.5 Z"/></g>
<g><path style="opacity:1" fill="#42a465" d="M 270.5,37.5 C 275.434,37.2291 280.1,37.8958 284.5,39.5C 279.586,39.6382 274.919,38.9715 270.5,37.5 Z"/></g>
<g><path style="opacity:0.004" fill="#e8f0f0" d="M 337.5,38.5 C 339.404,38.7376 340.738,39.7376 341.5,41.5C 339.596,41.2624 338.262,40.2624 337.5,38.5 Z"/></g>
<g><path style="opacity:1" fill="#3b9d67" d="M 288.5,39.5 C 294.545,39.7341 300.212,41.0675 305.5,43.5C 299.629,42.5289 293.963,41.1956 288.5,39.5 Z"/></g>
<g><path style="opacity:0.008" fill="#eff6f7" d="M 341.5,41.5 C 345.167,43.1667 347.833,45.8333 349.5,49.5C 346.5,47.1667 343.833,44.5 341.5,41.5 Z"/></g>
<g><path style="opacity:1" fill="#32946a" d="M 306.5,43.5 C 309.491,43.1663 311.824,44.1663 313.5,46.5C 310.843,46.0652 308.509,45.0652 306.5,43.5 Z"/></g>
<g><path style="opacity:0.384" fill="#4f9899" d="M 156.5,41.5 C 156.288,45.2076 154.622,47.8743 151.5,49.5C 152.169,46.1511 153.836,43.4844 156.5,41.5 Z"/></g>
<g><path style="opacity:0.031" fill="#eaf4f4" d="M 349.5,49.5 C 351.587,50.5846 352.92,52.2512 353.5,54.5C 351.413,53.4154 350.08,51.7488 349.5,49.5 Z"/></g>
<g><path style="opacity:0.035" fill="#f0f6f6" d="M 353.5,54.5 C 355.25,55.6594 356.25,57.326 356.5,59.5C 354.75,58.3406 353.75,56.674 353.5,54.5 Z"/></g>
<g><path style="opacity:1" fill="#48aa64" d="M 167.5,55.5 C 167.573,57.0269 166.906,58.0269 165.5,58.5C 165.427,56.9731 166.094,55.9731 167.5,55.5 Z"/></g>
<g><path style="opacity:0.037" fill="#f9fbfb" d="M 356.5,59.5 C 360.11,63.3964 362.11,68.0631 362.5,73.5C 361.359,70.7458 360.025,68.0791 358.5,65.5C 357.833,63.5 357.167,61.5 356.5,59.5 Z"/></g>
<g><path style="opacity:0.996" fill="#4dad63" d="M 163.5,62.5 C 163.472,65.9164 162.472,68.9164 160.5,71.5C 160.69,68.145 161.69,65.145 163.5,62.5 Z"/></g>
<g><path style="opacity:0.878" fill="#65a6a8" d="M 358.5,65.5 C 360.025,68.0791 361.359,70.7458 362.5,73.5C 362.5,74.8333 362.5,76.1667 362.5,77.5C 360.589,73.767 359.256,69.767 358.5,65.5 Z"/></g>
<g><path style="opacity:1" fill="#369a68" d="M 160.5,71.5 C 160.59,74.1522 159.924,76.4855 158.5,78.5C 158.41,75.8478 159.076,73.5145 160.5,71.5 Z"/></g>
<g><path style="opacity:1" fill="#4bad63" d="M 343.5,72.5 C 344.6,74.2774 345.434,76.2774 346,78.5C 346.815,83.3522 346.648,88.0189 345.5,92.5C 345.799,85.7109 345.132,79.0442 343.5,72.5 Z"/></g>
<g><path style="opacity:1" fill="#2e906b" d="M 328.5,112.5 C 326.824,114.834 324.491,115.834 321.5,115.5C 323.509,113.935 325.843,112.935 328.5,112.5 Z"/></g>
<g><path style="opacity:1" fill="#349869" d="M 257.5,118.5 C 249.381,118.114 241.381,118.781 233.5,120.5C 235.019,119.59 236.685,118.757 238.5,118C 245.014,117.18 251.347,117.347 257.5,118.5 Z"/></g>
<g><path style="opacity:1" fill="#3a9d68" d="M 315.5,116.5 C 311.117,118.23 306.45,119.23 301.5,119.5C 305.883,117.77 310.55,116.77 315.5,116.5 Z"/></g>
<g><path style="opacity:0.091" fill="#f0f6f6" d="M 362.5,96.5 C 361.282,109.565 354.949,119.399 343.5,126C 325.874,134.693 307.207,138.859 287.5,138.5C 283.191,137.535 278.857,137.369 274.5,138C 275.737,138.232 276.737,138.732 277.5,139.5C 271.54,138.285 265.54,137.285 259.5,136.5C 260.919,135.549 262.585,135.216 264.5,135.5C 265.5,135.5 266.5,135.5 267.5,135.5C 285.144,137.292 302.81,136.459 320.5,133C 325.521,131.76 330.188,129.926 334.5,127.5C 348.736,121.597 358.069,111.264 362.5,96.5 Z"/></g>
<g><path style="opacity:0.996" fill="#349869" d="M 226.5,126.5 C 226.573,128.027 225.906,129.027 224.5,129.5C 224.427,127.973 225.094,126.973 226.5,126.5 Z"/></g>
<g><path style="opacity:0.996" fill="#3b9e67" d="M 224.5,129.5 C 223.35,133.859 223.35,138.192 224.5,142.5C 223.883,142.389 223.383,142.056 223,141.5C 222.833,139.833 222.667,138.167 222.5,136.5C 222.316,133.795 222.983,131.462 224.5,129.5 Z"/></g>
<g><path style="opacity:0.733" fill="#62a5a7" d="M 334.5,127.5 C 330.188,129.926 325.521,131.76 320.5,133C 302.81,136.459 285.144,137.292 267.5,135.5C 290.407,137.066 312.741,134.4 334.5,127.5 Z"/></g>
<g><path style="opacity:0.075" fill="#a7cfd0" d="M 264.5,135.5 C 262.585,135.216 260.919,135.549 259.5,136.5C 254.864,135.851 250.198,135.351 245.5,135C 252.014,134.18 258.347,134.347 264.5,135.5 Z"/></g>
<g><path style="opacity:0.051" fill="#d2eaea" d="M 280.5,140.5 C 282.553,140.402 284.22,141.069 285.5,142.5C 284.5,142.5 283.5,142.5 282.5,142.5C 281.833,141.833 281.167,141.167 280.5,140.5 Z"/></g>
<g><path style="opacity:0.612" fill="#80b4b5" d="M 282.5,142.5 C 283.5,142.5 284.5,142.5 285.5,142.5C 287.153,142.66 288.486,143.326 289.5,144.5C 289.833,145.167 290.167,145.833 290.5,146.5C 287.781,145.164 285.114,143.831 282.5,142.5 Z"/></g>
<g><path style="opacity:0.078" fill="#e2f2f1" d="M 289.5,144.5 C 292.198,144.845 294.198,146.178 295.5,148.5C 293.833,147.833 292.167,147.167 290.5,146.5C 290.167,145.833 289.833,145.167 289.5,144.5 Z"/></g>
<g><path style="opacity:1" fill="#298c6c" d="M 229.5,146.5 C 231.544,147.508 233.544,148.508 235.5,149.5C 234.833,149.5 234.167,149.5 233.5,149.5C 231.596,149.262 230.262,148.262 229.5,146.5 Z"/></g>
<g><path style="opacity:0.008" fill="#e3efef" d="M 295.5,148.5 C 299.188,150.188 301.855,152.855 303.5,156.5C 300.452,154.118 297.785,151.452 295.5,148.5 Z"/></g>
<g><path style="opacity:1" fill="#4bac63" d="M 233.5,149.5 C 234.167,149.5 234.833,149.5 235.5,149.5C 237.403,149.796 239.07,150.463 240.5,151.5C 237.848,151.59 235.515,150.924 233.5,149.5 Z"/></g>
<g><path style="opacity:0.071" fill="#edf8f8" d="M 303.5,156.5 C 304.906,156.973 305.573,157.973 305.5,159.5C 304.833,159.167 304.167,158.833 303.5,158.5C 303.5,157.833 303.5,157.167 303.5,156.5 Z"/></g>
<g><path style="opacity:0.482" fill="#94c2c3" d="M 303.5,158.5 C 304.167,158.833 304.833,159.167 305.5,159.5C 306.338,159.842 306.672,160.508 306.5,161.5C 306.5,162.167 306.5,162.833 306.5,163.5C 305.11,162.101 304.11,160.434 303.5,158.5 Z"/></g>
<g><path style="opacity:0.035" fill="#f8fbfb" d="M 306.5,161.5 C 308.585,163.684 309.585,166.351 309.5,169.5C 308.687,167.739 307.687,166.072 306.5,164.5C 306.5,164.167 306.5,163.833 306.5,163.5C 306.5,162.833 306.5,162.167 306.5,161.5 Z"/></g>
<g><path style="opacity:1" fill="#399b68" d="M 156.5,108.5 C 156.786,133.855 156.453,159.188 155.5,184.5C 155.167,184.5 154.833,184.5 154.5,184.5C 154.879,158.998 155.546,133.665 156.5,108.5 Z"/></g>
<g><path style="opacity:1" fill="#58b761" d="M 290.5,169.5 C 292.446,171.734 293.613,174.401 294,177.5C 294.653,183.862 294.487,190.195 293.5,196.5C 293.167,196.5 292.833,196.5 292.5,196.5C 292.971,187.357 292.304,178.357 290.5,169.5 Z"/></g>
<g><path style="opacity:0.648" fill="#66a7a9" d="M 306.5,164.5 C 307.687,166.072 308.687,167.739 309.5,169.5C 310.666,178.989 310.666,188.322 309.5,197.5C 309.865,186.349 308.865,175.349 306.5,164.5 Z"/></g>
<g><path style="opacity:0.72" fill="#67a5a7" d="M 139.5,133.5 C 140.243,177.065 138.91,220.398 135.5,263.5C 135.184,249.088 135.518,234.755 136.5,220.5C 138.144,202.36 138.811,184.027 138.5,165.5C 138.172,154.654 138.506,143.987 139.5,133.5 Z"/></g>
<g><path style="opacity:0.32" fill="#bfdada" d="M 138.5,165.5 C 138.811,184.027 138.144,202.36 136.5,220.5C 136.355,201.98 137.022,183.646 138.5,165.5 Z"/></g>
<g><path style="opacity:1" fill="#389b68" d="M 292.5,196.5 C 292.833,196.5 293.167,196.5 293.5,196.5C 293.59,199.152 292.924,201.485 291.5,203.5C 291.674,201.139 292.007,198.806 292.5,196.5 Z"/></g>
<g><path style="opacity:1" fill="#44a665" d="M 290.5,208.5 C 290.573,210.027 289.906,211.027 288.5,211.5C 288.427,209.973 289.094,208.973 290.5,208.5 Z"/></g>
<g><path style="opacity:1" fill="#379b68" d="M 154.5,184.5 C 154.833,184.5 155.167,184.5 155.5,184.5C 155.75,198.698 155.084,212.698 153.5,226.5C 153.833,212.5 154.167,198.5 154.5,184.5 Z"/></g>
<g><path style="opacity:1" fill="#4bac63" d="M 235.5,237.5 C 242.485,238.089 249.485,238.422 256.5,238.5C 253.854,239.164 251.021,239.498 248,239.5C 243.558,239.674 239.391,239.007 235.5,237.5 Z"/></g>
<g><path style="opacity:0.773" fill="#67a8aa" d="M 274.5,250.5 C 272.208,252.267 269.542,253.267 266.5,253.5C 268.792,251.733 271.458,250.733 274.5,250.5 Z"/></g>
<g><path style="opacity:0.776" fill="#519c9d" d="M 265.5,253.5 C 264.391,254.29 263.058,254.79 261.5,255C 256.511,255.499 251.511,255.666 246.5,255.5C 252.666,254.602 259,253.936 265.5,253.5 Z"/></g>
<g><path style="opacity:0.688" fill="#559d9f" d="M 245.5,256.5 C 244.753,270.998 242.087,284.998 237.5,298.5C 240.638,285.341 242.804,272.008 244,258.5C 244.278,257.584 244.778,256.918 245.5,256.5 Z"/></g>
<g><path style="opacity:1" fill="#379a68" d="M 230.5,237.5 C 230.067,245.5 229.567,253.5 229,261.5C 228.892,265.465 228.059,269.132 226.5,272.5C 227.571,260.662 228.905,248.995 230.5,237.5 Z"/></g>
<g><path style="opacity:1" fill="#379c68" d="M 152.5,254.5 C 152.287,265.527 152.62,276.527 153.5,287.5C 152.71,286.391 152.21,285.058 152,283.5C 151.175,273.658 151.342,263.991 152.5,254.5 Z"/></g>
<g><path style="opacity:1" fill="#44a565" d="M 226.5,276.5 C 226.741,278.898 226.074,280.898 224.5,282.5C 224.259,280.102 224.926,278.102 226.5,276.5 Z"/></g>
<g><path style="opacity:0.422" fill="#559b9c" d="M 135.5,281.5 C 136.117,281.611 136.617,281.944 137,282.5C 138.08,291.155 140.247,299.488 143.5,307.5C 142.833,306.833 142.167,306.167 141.5,305.5C 139.707,303.574 138.707,301.241 138.5,298.5C 138.102,294.239 137.102,290.239 135.5,286.5C 135.5,284.833 135.5,283.167 135.5,281.5 Z"/></g>
<g><path style="opacity:0.009" fill="#e4f0f0" d="M 135.5,286.5 C 137.102,290.239 138.102,294.239 138.5,298.5C 136.584,294.837 135.584,290.837 135.5,286.5 Z"/></g>
<g><path style="opacity:0.074" fill="#eaf3f3" d="M 309.5,169.5 C 316.858,201.571 307.858,228.071 282.5,249C 271.451,255.2 259.618,258.367 247,258.5C 245.762,276.356 242.096,293.69 236,310.5C 223.415,341.043 201.915,349.876 171.5,337C 168.734,335.629 166.401,333.796 164.5,331.5C 168.683,333.757 173.016,335.757 177.5,337.5C 179.858,339.129 182.524,340.295 185.5,341C 191.016,341.817 196.35,341.651 201.5,340.5C 210.416,338.283 217.916,333.616 224,326.5C 230.905,318.356 235.405,309.022 237.5,298.5C 242.087,284.998 244.753,270.998 245.5,256.5C 246.167,256.5 246.5,256.167 246.5,255.5C 251.511,255.666 256.511,255.499 261.5,255C 263.058,254.79 264.391,254.29 265.5,253.5C 265.833,253.5 266.167,253.5 266.5,253.5C 269.542,253.267 272.208,252.267 274.5,250.5C 278.933,247.916 283.266,245.082 287.5,242C 292.737,236.6 297.403,230.766 301.5,224.5C 306.186,216.088 308.853,207.088 309.5,197.5C 310.666,188.322 310.666,178.989 309.5,169.5 Z"/></g>
<g><path style="opacity:1" fill="#42a466" d="M 154.5,293.5 C 155.906,293.973 156.573,294.973 156.5,296.5C 155.094,296.027 154.427,295.027 154.5,293.5 Z"/></g>
<g><path style="opacity:1" fill="#46a765" d="M 222.5,293.5 C 221.917,296.947 220.584,299.947 218.5,302.5C 219.083,299.053 220.416,296.053 222.5,293.5 Z"/></g>
<g><path style="opacity:0.671" fill="#afd0d1" d="M 141.5,305.5 C 142.167,306.167 142.833,306.833 143.5,307.5C 145.771,309.612 147.104,312.279 147.5,315.5C 144.479,312.794 142.479,309.461 141.5,305.5 Z"/></g>
<g><path style="opacity:0.004" fill="#e2eeee" d="M 147.5,315.5 C 150.243,317.239 152.243,319.573 153.5,322.5C 150.757,320.761 148.757,318.427 147.5,315.5 Z"/></g>
<g><path style="opacity:1" fill="#40a266" d="M 180.5,320.5 C 182.027,320.427 183.027,321.094 183.5,322.5C 181.973,322.573 180.973,321.906 180.5,320.5 Z"/></g>
<g><path style="opacity:1" fill="#3c9f67" d="M 183.5,322.5 C 188.714,323.968 194.047,324.635 199.5,324.5C 193.896,326.172 188.563,325.505 183.5,322.5 Z"/></g>
<g><path style="opacity:0.035" fill="#ebf3f3" d="M 153.5,322.5 C 157.463,325.129 161.129,328.129 164.5,331.5C 159.957,329.628 156.29,326.628 153.5,322.5 Z"/></g>
<g><path style="opacity:0.798" fill="#64a7a9" d="M 177.5,337.5 C 180.647,337.737 183.647,338.57 186.5,340C 191.489,340.499 196.489,340.666 201.5,340.5C 196.35,341.651 191.016,341.817 185.5,341C 182.524,340.295 179.858,339.129 177.5,337.5 Z"/></g>
</svg>
