<?xml version="1.0" standalone="no"?>
<!DOCTYPE svg PUBLIC "-//W3C//DTD SVG 20010904//EN"
 "http://www.w3.org/TR/2001/REC-SVG-20010904/DTD/svg10.dtd">
<svg version="1.0" xmlns="http://www.w3.org/2000/svg"
 width="308.000000pt" height="211.000000pt" viewBox="0 0 308.000000 211.000000"
 preserveAspectRatio="xMidYMid meet">

<g transform="translate(0.000000,211.000000) scale(0.100000,-0.100000)"
fill="#000000" stroke="none">
<path d="M761 1922 c-13 -25 -551 -1272 -551 -1277 0 -3 87 -5 193 -5 l192 1
200 469 c110 259 202 470 206 470 3 0 163 -327 353 -727 191 -401 351 -731
355 -735 7 -8 171 348 171 372 0 8 -155 337 -344 730 l-343 715 -211 3 c-197
2 -212 1 -221 -16z"/>
<path d="M1777 1659 l-129 -281 20 -46 c61 -141 166 -342 172 -330 4 7 65 140
135 296 70 155 130 282 134 282 3 0 101 -212 216 -470 l210 -470 188 0 c176 0
188 1 183 18 -3 10 -134 301 -290 647 l-285 630 -213 3 -213 2 -128 -281z"/>
</g>
</svg>
