<?xml version="1.0" encoding="UTF-8"?>
<!DOCTYPE svg PUBLIC "-//W3C//DTD SVG 1.1//EN" "http://www.w3.org/Graphics/SVG/1.1/DTD/svg11.dtd">
<svg xmlns="http://www.w3.org/2000/svg" version="1.1" width="500px" height="367px" style="shape-rendering:geometricPrecision; text-rendering:geometricPrecision; image-rendering:optimizeQuality; fill-rule:evenodd; clip-rule:evenodd" xmlns:xlink="http://www.w3.org/1999/xlink">
<g><path style="opacity:0.971" fill="#fefefd" d="M 348.5,22.5 C 350.167,22.5 351.833,22.5 353.5,22.5C 353.667,118.501 353.5,214.501 353,310.5C 349.154,327.679 338.654,338.179 321.5,342C 281.677,343.685 242.01,343.851 202.5,342.5C 232.835,342.667 263.168,342.5 293.5,342C 305.737,341.828 317.737,340.162 329.5,337C 342.858,329.467 350.025,317.967 351,302.5C 351.667,255.167 351.667,207.833 351,160.5C 320.574,159.504 290.074,159.171 259.5,159.5C 261.624,166.663 263.458,173.997 265,181.5C 265.5,211.832 265.667,242.165 265.5,272.5C 257.493,272.666 249.493,272.5 241.5,272C 237.501,271.332 234.668,269.165 233,265.5C 231.844,261.582 231.344,257.582 231.5,253.5C 231.185,202.477 231.518,151.477 232.5,100.5C 233.736,96.7789 236.403,94.6122 240.5,94C 277.853,90.4619 314.853,92.6286 351.5,100.5C 351.5,74.8333 351.5,49.1667 351.5,23.5C 350.209,23.7373 349.209,23.404 348.5,22.5 Z"/></g>
<g><path style="opacity:0.998" fill="#efdf0e" d="M 348.5,22.5 C 349.209,23.404 350.209,23.7373 351.5,23.5C 351.5,49.1667 351.5,74.8333 351.5,100.5C 314.853,92.6286 277.853,90.4619 240.5,94C 236.403,94.6122 233.736,96.7789 232.5,100.5C 231.732,101.263 231.232,102.263 231,103.5C 230.168,153.668 230.335,203.668 231.5,253.5C 231.344,257.582 231.844,261.582 233,265.5C 234.668,269.165 237.501,271.332 241.5,272C 249.493,272.5 257.493,272.666 265.5,272.5C 265.667,242.165 265.5,211.832 265,181.5C 263.458,173.997 261.624,166.663 259.5,159.5C 290.074,159.171 320.574,159.504 351,160.5C 351.667,207.833 351.667,255.167 351,302.5C 350.025,317.967 342.858,329.467 329.5,337C 317.737,340.162 305.737,341.828 293.5,342C 263.168,342.5 232.835,342.667 202.5,342.5C 202.167,342.5 201.833,342.5 201.5,342.5C 186.804,342.623 172.804,339.29 159.5,332.5C 157.833,330.167 155.833,328.167 153.5,326.5C 150.919,323.68 149.086,320.346 148,316.5C 146.636,309.224 145.636,301.891 145,294.5C 144.333,225.833 144.333,157.167 145,88.5C 145.727,71.922 149.727,56.2553 157,41.5C 164.736,31.7122 174.902,26.2122 187.5,25C 200.152,24.0562 212.818,23.3895 225.5,23C 266.499,22.5 307.499,22.3333 348.5,22.5 Z"/></g>
<g><path style="opacity:0.92" fill="#fdfad9" d="M 232.5,100.5 C 231.518,151.477 231.185,202.477 231.5,253.5C 230.335,203.668 230.168,153.668 231,103.5C 231.232,102.263 231.732,101.263 232.5,100.5 Z"/></g>
<g><path style="opacity:0.004" fill="#fefbe2" d="M 153.5,326.5 C 155.833,328.167 157.833,330.167 159.5,332.5C 156.5,331.5 154.5,329.5 153.5,326.5 Z"/></g>
<g><path style="opacity:0.256" fill="#fefef8" d="M 159.5,332.5 C 172.804,339.29 186.804,342.623 201.5,342.5C 189.34,343.678 177.673,341.845 166.5,337C 163.761,335.974 161.428,334.474 159.5,332.5 Z"/></g>
</svg>
