<?xml version="1.0" standalone="no"?>
<!DOCTYPE svg PUBLIC "-//W3C//DTD SVG 20010904//EN"
 "http://www.w3.org/TR/2001/REC-SVG-20010904/DTD/svg10.dtd">
<svg version="1.0" xmlns="http://www.w3.org/2000/svg"
 width="520.000000pt" height="370.000000pt" viewBox="0 0 520.000000 370.000000"
 preserveAspectRatio="xMidYMid meet">

<g transform="translate(0.000000,370.000000) scale(0.100000,-0.100000)"
fill="#000000" stroke="none">
<path d="M190 1645 l0 -935 285 0 285 0 0 935 0 935 -285 0 -285 0 0 -935z"/>
<path d="M1120 1645 l0 -935 478 0 c364 0 500 4 572 14 314 48 492 199 537
455 13 70 13 99 4 154 -27 165 -150 297 -330 356 -35 12 -75 21 -88 21 -42 0
-24 15 48 37 210 68 334 233 315 421 -20 191 -140 313 -368 371 -133 34 -253
41 -718 41 l-450 0 0 -935z m845 525 c71 -35 98 -79 93 -151 -5 -71 -35 -114
-102 -145 -44 -21 -66 -24 -163 -24 l-113 0 0 176 0 176 118 -4 c100 -3 126
-8 167 -28z m18 -711 c47 -13 106 -63 123 -106 30 -71 4 -170 -56 -213 -53
-38 -114 -50 -247 -50 l-123 0 0 190 0 190 133 0 c72 0 149 -5 170 -11z"/>
<path d="M3440 2576 c0 -4 -623 -1815 -636 -1851 -5 -13 28 -15 298 -15 l305
0 44 170 43 170 281 0 280 0 40 -167 40 -168 306 -3 306 -2 -303 932 -302 933
-351 3 c-193 1 -351 0 -351 -2z m354 -486 c6 -43 125 -532 152 -622 5 -17 -8
-18 -174 -18 l-180 0 84 333 c46 182 86 345 89 362 9 40 20 18 29 -55z"/>
</g>
</svg>
