<?xml version="1.0" encoding="UTF-8"?>
<!DOCTYPE svg PUBLIC "-//W3C//DTD SVG 1.1//EN" "http://www.w3.org/Graphics/SVG/1.1/DTD/svg11.dtd">
<svg xmlns="http://www.w3.org/2000/svg" version="1.1" width="500px" height="365px" style="shape-rendering:geometricPrecision; text-rendering:geometricPrecision; image-rendering:optimizeQuality; fill-rule:evenodd; clip-rule:evenodd" xmlns:xlink="http://www.w3.org/1999/xlink">
<g><path style="opacity:0.99" fill="#ffde5d" d="M 255.5,148.5 C 256.78,149.931 258.447,150.598 260.5,150.5C 262.819,150.992 264.819,151.992 266.5,153.5C 268.833,156.5 271.5,159.167 274.5,161.5C 285.209,177.9 285.042,194.234 274,210.5C 269.266,216.736 263.766,222.069 257.5,226.5C 253.188,228.321 248.855,230.154 244.5,232C 243.203,234.545 243.369,237.045 245,239.5C 250.031,246.022 255.197,252.356 260.5,258.5C 260.738,260.404 261.738,261.738 263.5,262.5C 265.817,266.146 268.484,269.48 271.5,272.5C 272.08,274.749 273.413,276.415 275.5,277.5C 277.123,278.491 278.123,277.824 278.5,275.5C 280.04,273.162 280.706,270.495 280.5,267.5C 280.323,263.766 280.656,260.099 281.5,256.5C 282.488,251.36 282.821,246.026 282.5,240.5C 292.167,240.5 301.833,240.5 311.5,240.5C 312.161,242.134 312.494,243.967 312.5,246C 311.628,266.08 306.628,285.08 297.5,303C 298.072,305.074 299.405,306.24 301.5,306.5C 306.845,306.687 312.178,307.02 317.5,307.5C 319.647,316.061 320.814,324.728 321,333.5C 317.382,334.769 313.882,336.102 310.5,337.5C 304.4,337.623 298.4,336.957 292.5,335.5C 289.759,335.293 287.426,334.293 285.5,332.5C 284.738,330.738 283.404,329.738 281.5,329.5C 281.027,328.094 280.027,327.427 278.5,327.5C 277.508,327.672 276.842,327.338 276.5,326.5C 275.054,325.387 273.387,325.22 271.5,326C 256.235,334.4 239.901,338.233 222.5,337.5C 218.833,337.5 215.167,337.5 211.5,337.5C 209.708,337.634 208.042,337.301 206.5,336.5C 203.548,334.59 200.214,333.59 196.5,333.5C 195.209,333.737 194.209,333.404 193.5,332.5C 191.819,330.992 189.819,329.992 187.5,329.5C 187.027,328.094 186.027,327.427 184.5,327.5C 184.027,326.094 183.027,325.427 181.5,325.5C 180.415,323.413 178.749,322.08 176.5,321.5C 174.167,319.833 172.167,317.833 170.5,315.5C 170.573,313.973 169.906,312.973 168.5,312.5C 167.599,311.71 166.932,310.71 166.5,309.5C 166.715,307.821 166.048,306.821 164.5,306.5C 161.948,301.842 160.615,296.842 160.5,291.5C 160.5,284.833 160.5,278.167 160.5,271.5C 160.5,270.833 160.5,270.167 160.5,269.5C 161.924,267.485 162.59,265.152 162.5,262.5C 164.833,254.494 169.166,247.827 175.5,242.5C 177.027,242.573 178.027,241.906 178.5,240.5C 183.681,235.738 189.681,232.238 196.5,230C 195.418,228.67 194.751,227.17 194.5,225.5C 194.715,223.821 194.048,222.821 192.5,222.5C 190.322,220.142 188.655,217.475 187.5,214.5C 187.598,212.447 186.931,210.78 185.5,209.5C 179.182,195.715 179.182,182.049 185.5,168.5C 186.906,168.027 187.573,167.027 187.5,165.5C 188.124,163.246 189.457,161.579 191.5,160.5C 193.749,159.92 195.415,158.587 196.5,156.5C 202.389,151.72 209.055,148.22 216.5,146C 227.167,145.333 237.833,145.333 248.5,146C 251.104,146.39 253.438,147.224 255.5,148.5 Z M 241.5,173.5 C 241.973,174.906 242.973,175.573 244.5,175.5C 247.985,180.574 249.318,186.24 248.5,192.5C 247.542,194.302 246.875,196.302 246.5,198.5C 245.752,200.332 244.752,201.999 243.5,203.5C 241.5,204.833 239.833,206.5 238.5,208.5C 234.811,210.097 231.311,212.097 228,214.5C 227.617,213.944 227.117,213.611 226.5,213.5C 226.262,211.596 225.262,210.262 223.5,209.5C 223.573,207.973 222.906,206.973 221.5,206.5C 221.672,205.508 221.338,204.842 220.5,204.5C 218.431,199.039 217.098,193.372 216.5,187.5C 219.516,173.817 227.849,169.151 241.5,173.5 Z M 210.5,251.5 C 217.844,260.207 225.177,268.873 232.5,277.5C 232.427,279.027 233.094,280.027 234.5,280.5C 234.833,281.5 235.5,282.167 236.5,282.5C 236.427,284.027 237.094,285.027 238.5,285.5C 239.701,287.909 241.367,289.909 243.5,291.5C 243.427,293.027 244.094,294.027 245.5,294.5C 245.5,295.167 245.833,295.5 246.5,295.5C 246.427,297.027 247.094,298.027 248.5,298.5C 249.942,299.82 250.608,301.486 250.5,303.5C 236.073,308.184 222.073,307.184 208.5,300.5C 206.833,298.167 204.833,296.167 202.5,294.5C 199.902,288.107 198.235,281.44 197.5,274.5C 198.467,264.895 202.801,257.228 210.5,251.5 Z"/></g>
<g><path style="opacity:0.131" fill="#fffefe" d="M 386.5,148.5 C 386.5,148.167 386.5,147.833 386.5,147.5C 388.491,172.478 389.157,197.811 388.5,223.5C 387.833,198.5 387.167,173.5 386.5,148.5 Z"/></g>
<g><path style="opacity:0.514" fill="#ffeba3" d="M 452.5,148.5 C 465.656,147.504 478.99,147.171 492.5,147.5C 492.737,148.791 492.404,149.791 491.5,150.5C 478.876,148.519 465.876,147.852 452.5,148.5 Z"/></g>
<g><path style="opacity:0.995" fill="#ffde5b" d="M 126.5,230.5 C 126.667,250.503 126.5,270.503 126,290.5C 123.156,314.009 110.323,328.842 87.5,335C 74.347,338.578 61.0137,339.412 47.5,337.5C 45.901,337.768 44.5676,337.434 43.5,336.5C 41.8984,334.926 39.8984,334.259 37.5,334.5C 37.1667,334.5 36.8333,334.5 36.5,334.5C 35.2196,333.069 33.5529,332.402 31.5,332.5C 30.5084,332.672 29.8417,332.338 29.5,331.5C 28.4863,330.326 27.153,329.66 25.5,329.5C 24.5084,329.672 23.8417,329.338 23.5,328.5C 23.0269,327.094 22.0269,326.427 20.5,326.5C 19.7377,324.738 18.4044,323.738 16.5,323.5C 13.5,321.167 10.8333,318.5 8.5,315.5C 8.57298,313.973 7.90632,312.973 6.5,312.5C 5.83333,312.5 5.5,312.167 5.5,311.5C 5.57298,309.973 4.90632,308.973 3.5,308.5C 3.16667,307.833 2.83333,307.167 2.5,306.5C 3.16667,304.833 3.83333,303.167 4.5,301.5C 5.7915,298.599 7.7915,296.266 10.5,294.5C 11.9063,294.027 12.573,293.027 12.5,291.5C 12.8333,290.5 13.5,289.833 14.5,289.5C 15.8333,288.833 16.8333,287.833 17.5,286.5C 18.4194,283.911 20.086,281.911 22.5,280.5C 23.1499,280.196 23.8165,279.863 24.5,279.5C 27.5095,283.836 30.8428,287.836 34.5,291.5C 35.8333,294.833 38.1667,297.167 41.5,298.5C 42.2998,300.741 43.9664,301.741 46.5,301.5C 59.041,306.273 71.041,305.273 82.5,298.5C 83.9063,298.027 84.573,297.027 84.5,295.5C 86.6346,291.429 87.9679,287.095 88.5,282.5C 90.259,263.698 90.9257,244.698 90.5,225.5C 90.5,199.833 90.5,174.167 90.5,148.5C 102.5,148.5 114.5,148.5 126.5,148.5C 126.5,175.833 126.5,203.167 126.5,230.5 Z"/></g>
<g><path style="opacity:0.992" fill="#ffde5b" d="M 386.5,148.5 C 387.167,173.5 387.833,198.5 388.5,223.5C 390.514,223.608 392.18,222.942 393.5,221.5C 394.906,221.027 395.573,220.027 395.5,218.5C 398.821,213.848 402.487,209.515 406.5,205.5C 407.906,205.027 408.573,204.027 408.5,202.5C 408.833,201.5 409.5,200.833 410.5,200.5C 411.906,200.027 412.573,199.027 412.5,197.5C 412.833,196.5 413.5,195.833 414.5,195.5C 415.906,195.027 416.573,194.027 416.5,192.5C 418.372,189.418 420.705,186.751 423.5,184.5C 424.906,184.027 425.573,183.027 425.5,181.5C 427.273,178.94 429.273,176.607 431.5,174.5C 432.906,174.027 433.573,173.027 433.5,171.5C 433.833,170.5 434.5,169.833 435.5,169.5C 437.587,168.415 438.92,166.749 439.5,164.5C 441.587,163.415 442.92,161.749 443.5,159.5C 445.262,158.738 446.262,157.404 446.5,155.5C 447.167,154.167 448.167,153.167 449.5,152.5C 451.262,151.738 452.262,150.404 452.5,148.5C 465.876,147.852 478.876,148.519 491.5,150.5C 490.928,152.255 490.094,153.922 489,155.5C 466.774,182.054 444.941,208.888 423.5,236C 434.672,251.855 446.672,267.022 459.5,281.5C 460.08,283.749 461.413,285.415 463.5,286.5C 464.08,288.749 465.413,290.415 467.5,291.5C 468.08,293.749 469.413,295.415 471.5,296.5C 475.418,302.754 480.085,308.421 485.5,313.5C 489.083,319.419 493.416,324.752 498.5,329.5C 498.5,331.833 498.5,334.167 498.5,336.5C 484.065,336.768 469.732,336.102 455.5,334.5C 455.573,332.973 454.906,331.973 453.5,331.5C 452.5,331.167 451.833,330.5 451.5,329.5C 451.573,327.973 450.906,326.973 449.5,326.5C 445.487,322.485 441.821,318.152 438.5,313.5C 438.573,311.973 437.906,310.973 436.5,310.5C 435.5,310.167 434.833,309.5 434.5,308.5C 434.573,306.973 433.906,305.973 432.5,305.5C 418.272,288.724 404.272,271.724 390.5,254.5C 389.5,253.167 388.5,253.167 387.5,254.5C 386.502,280.995 386.169,307.661 386.5,334.5C 374.5,334.5 362.5,334.5 350.5,334.5C 350.5,272.5 350.5,210.5 350.5,148.5C 362.5,148.5 374.5,148.5 386.5,148.5 Z"/></g>
<g><path style="opacity:0.141" fill="#fffbe9" d="M 255.5,148.5 C 257.553,148.402 259.22,149.069 260.5,150.5C 258.447,150.598 256.78,149.931 255.5,148.5 Z"/></g>
<g><path style="opacity:0.38" fill="#fff0b4" d="M 452.5,148.5 C 452.262,150.404 451.262,151.738 449.5,152.5C 449.738,150.596 450.738,149.262 452.5,148.5 Z"/></g>
<g><path style="opacity:0.004" fill="#fffcf4" d="M 266.5,153.5 C 270.167,155.167 272.833,157.833 274.5,161.5C 271.5,159.167 268.833,156.5 266.5,153.5 Z"/></g>
<g><path style="opacity:0.098" fill="#fff6db" d="M 446.5,155.5 C 446.262,157.404 445.262,158.738 443.5,159.5C 443.738,157.596 444.738,156.262 446.5,155.5 Z"/></g>
<g><path style="opacity:0.224" fill="#ffeca6" d="M 196.5,156.5 C 195.415,158.587 193.749,159.92 191.5,160.5C 192.585,158.413 194.251,157.08 196.5,156.5 Z"/></g>
<g><path style="opacity:0.09" fill="#fff4d1" d="M 443.5,159.5 C 442.92,161.749 441.587,163.415 439.5,164.5C 440.08,162.251 441.413,160.585 443.5,159.5 Z"/></g>
<g><path style="opacity:0.071" fill="#fff2bf" d="M 187.5,165.5 C 187.573,167.027 186.906,168.027 185.5,168.5C 185.427,166.973 186.094,165.973 187.5,165.5 Z"/></g>
<g><path style="opacity:0.067" fill="#fff0ce" d="M 439.5,164.5 C 438.92,166.749 437.587,168.415 435.5,169.5C 436.08,167.251 437.413,165.585 439.5,164.5 Z"/></g>
<g><path style="opacity:0.59" fill="#ffefb4" d="M 127.5,147.5 C 127.831,175.338 127.498,203.005 126.5,230.5C 126.5,203.167 126.5,175.833 126.5,148.5C 114.5,148.5 102.5,148.5 90.5,148.5C 90.5,174.167 90.5,199.833 90.5,225.5C 90.1667,225.5 89.8333,225.5 89.5,225.5C 89.3611,199.652 89.1945,173.986 89,148.5C 101.754,147.511 114.587,147.178 127.5,147.5 Z"/></g>
<g><path style="opacity:0.059" fill="#fff3d6" d="M 433.5,171.5 C 433.573,173.027 432.906,174.027 431.5,174.5C 431.427,172.973 432.094,171.973 433.5,171.5 Z"/></g>
<g><path style="opacity:0.118" fill="#fff8df" d="M 241.5,173.5 C 243.027,173.427 244.027,174.094 244.5,175.5C 242.973,175.573 241.973,174.906 241.5,173.5 Z"/></g>
<g><path style="opacity:0.14" fill="#fffcf5" d="M 492.5,147.5 C 493.764,149.772 493.598,152.105 492,154.5C 469.441,181.388 447.275,208.554 425.5,236C 436.968,251.119 448.301,266.286 459.5,281.5C 446.672,267.022 434.672,251.855 423.5,236C 444.941,208.888 466.774,182.054 489,155.5C 490.094,153.922 490.928,152.255 491.5,150.5C 492.404,149.791 492.737,148.791 492.5,147.5 Z"/></g>
<g><path style="opacity:0.067" fill="#fff3cb" d="M 425.5,181.5 C 425.573,183.027 424.906,184.027 423.5,184.5C 423.427,182.973 424.094,181.973 425.5,181.5 Z"/></g>
<g><path style="opacity:0.099" fill="#fffcf3" d="M 241.5,173.5 C 227.849,169.151 219.516,173.817 216.5,187.5C 217.098,193.372 218.431,199.039 220.5,204.5C 214.176,194.941 214.009,185.274 220,175.5C 221.833,174.333 223.667,173.167 225.5,172C 230.167,171.333 234.833,171.333 239.5,172C 240.416,172.278 241.082,172.778 241.5,173.5 Z"/></g>
<g><path style="opacity:0.086" fill="#fff4ce" d="M 416.5,192.5 C 416.573,194.027 415.906,195.027 414.5,195.5C 414.427,193.973 415.094,192.973 416.5,192.5 Z"/></g>
<g><path style="opacity:0.2" fill="#fff4c9" d="M 248.5,192.5 C 248.946,195.01 248.28,197.01 246.5,198.5C 246.875,196.302 247.542,194.302 248.5,192.5 Z"/></g>
<g><path style="opacity:0.071" fill="#fff3c7" d="M 412.5,197.5 C 412.573,199.027 411.906,200.027 410.5,200.5C 410.427,198.973 411.094,197.973 412.5,197.5 Z"/></g>
<g><path style="opacity:0.137" fill="#ffefbc" d="M 408.5,202.5 C 408.573,204.027 407.906,205.027 406.5,205.5C 406.427,203.973 407.094,202.973 408.5,202.5 Z"/></g>
<g><path style="opacity:0.365" fill="#ffed9d" d="M 243.5,203.5 C 242.833,206.167 241.167,207.833 238.5,208.5C 239.833,206.5 241.5,204.833 243.5,203.5 Z"/></g>
<g><path style="opacity:0.133" fill="#fffdf3" d="M 221.5,206.5 C 222.906,206.973 223.573,207.973 223.5,209.5C 222.094,209.027 221.427,208.027 221.5,206.5 Z"/></g>
<g><path style="opacity:0.153" fill="#fffaee" d="M 223.5,209.5 C 225.262,210.262 226.262,211.596 226.5,213.5C 224.738,212.738 223.738,211.404 223.5,209.5 Z"/></g>
<g><path style="opacity:0.051" fill="#fffadb" d="M 185.5,209.5 C 186.931,210.78 187.598,212.447 187.5,214.5C 186.069,213.22 185.402,211.553 185.5,209.5 Z"/></g>
<g><path style="opacity:0.095" fill="#fffcf5" d="M 274.5,161.5 C 279.421,166.008 282.254,171.675 283,178.5C 285.345,196.307 279.512,210.807 265.5,222C 263.183,224.157 260.516,225.657 257.5,226.5C 263.766,222.069 269.266,216.736 274,210.5C 285.042,194.234 285.209,177.9 274.5,161.5 Z"/></g>
<g><path style="opacity:0.09" fill="#fff3c0" d="M 395.5,218.5 C 395.573,220.027 394.906,221.027 393.5,221.5C 393.427,219.973 394.094,218.973 395.5,218.5 Z"/></g>
<g><path style="opacity:0.357" fill="#ffeeb2" d="M 192.5,222.5 C 194.048,222.821 194.715,223.821 194.5,225.5C 193.599,224.71 192.932,223.71 192.5,222.5 Z"/></g>
<g><path style="opacity:0.388" fill="#fff0b7" d="M 311.5,239.5 C 311.5,239.833 311.5,240.167 311.5,240.5C 301.833,240.5 292.167,240.5 282.5,240.5C 282.821,246.026 282.488,251.36 281.5,256.5C 281.192,250.575 281.525,244.741 282.5,239C 292.13,239.359 301.797,239.525 311.5,239.5 Z"/></g>
<g><path style="opacity:0.141" fill="#ffedae" d="M 178.5,240.5 C 178.027,241.906 177.027,242.573 175.5,242.5C 175.973,241.094 176.973,240.427 178.5,240.5 Z"/></g>
<g><path style="opacity:0.058" fill="#fffcf6" d="M 257.5,226.5 C 254.345,229.248 250.678,231.248 246.5,232.5C 245.359,234.421 245.192,236.421 246,238.5C 251.464,244.784 256.297,251.45 260.5,258.5C 255.197,252.356 250.031,246.022 245,239.5C 243.369,237.045 243.203,234.545 244.5,232C 248.855,230.154 253.188,228.321 257.5,226.5 Z"/></g>
<g><path style="opacity:0.353" fill="#fff8de" d="M 260.5,258.5 C 262.262,259.262 263.262,260.596 263.5,262.5C 261.738,261.738 260.738,260.404 260.5,258.5 Z"/></g>
<g><path style="opacity:0.365" fill="#ffeead" d="M 89.5,225.5 C 89.8333,225.5 90.1667,225.5 90.5,225.5C 90.9257,244.698 90.259,263.698 88.5,282.5C 88.1697,263.326 88.503,244.326 89.5,225.5 Z"/></g>
<g><path style="opacity:0.055" fill="#fffbee" d="M 263.5,262.5 C 267.245,264.918 269.912,268.251 271.5,272.5C 268.484,269.48 265.817,266.146 263.5,262.5 Z"/></g>
<g><path style="opacity:0.204" fill="#fff0aa" d="M 162.5,262.5 C 162.59,265.152 161.924,267.485 160.5,269.5C 160.41,266.848 161.076,264.515 162.5,262.5 Z"/></g>
<g><path style="opacity:0.088" fill="#fffbee" d="M 311.5,240.5 C 311.5,240.167 311.5,239.833 311.5,239.5C 314.609,260.806 310.776,281.14 300,300.5C 299.252,302.84 299.752,304.84 301.5,306.5C 299.405,306.24 298.072,305.074 297.5,303C 306.628,285.08 311.628,266.08 312.5,246C 312.494,243.967 312.161,242.134 311.5,240.5 Z"/></g>
<g><path style="opacity:0.157" fill="#fff4c8" d="M 280.5,267.5 C 280.706,270.495 280.04,273.162 278.5,275.5C 278.565,272.572 279.232,269.905 280.5,267.5 Z"/></g>
<g><path style="opacity:0.107" fill="#fffcf4" d="M 210.5,251.5 C 202.801,257.228 198.467,264.895 197.5,274.5C 198.235,281.44 199.902,288.107 202.5,294.5C 200.163,292.035 198.663,289.035 198,285.5C 194.054,271.674 197.554,260.174 208.5,251C 209.437,250.308 210.103,250.475 210.5,251.5 Z"/></g>
<g><path style="opacity:0.149" fill="#fff7da" d="M 271.5,272.5 C 273.587,273.585 274.92,275.251 275.5,277.5C 273.413,276.415 272.08,274.749 271.5,272.5 Z"/></g>
<g><path style="opacity:0.11" fill="#fffcf2" d="M 34.5,291.5 C 30.8428,287.836 27.5095,283.836 24.5,279.5C 23.8165,279.863 23.1499,280.196 22.5,280.5C 23.2039,278.656 24.5372,278.156 26.5,279C 29.4167,283.068 32.0833,287.234 34.5,291.5 Z"/></g>
<g><path style="opacity:0.004" fill="#fff8e6" d="M 232.5,277.5 C 233.906,277.973 234.573,278.973 234.5,280.5C 233.094,280.027 232.427,279.027 232.5,277.5 Z"/></g>
<g><path style="opacity:0.235" fill="#ffeeaa" d="M 160.5,271.5 C 160.5,278.167 160.5,284.833 160.5,291.5C 157.906,284.841 157.906,278.174 160.5,271.5 Z"/></g>
<g><path style="opacity:0.161" fill="#ffea9f" d="M 386.5,147.5 C 386.5,147.833 386.5,148.167 386.5,148.5C 374.5,148.5 362.5,148.5 350.5,148.5C 350.5,210.5 350.5,272.5 350.5,334.5C 362.5,334.5 374.5,334.5 386.5,334.5C 386.169,307.661 386.502,280.995 387.5,254.5C 387.5,281.5 387.5,308.5 387.5,335.5C 374.833,335.5 362.167,335.5 349.5,335.5C 349.638,272.205 349.305,210.205 348.5,149.5C 348.709,148.914 349.043,148.414 349.5,148C 361.829,147.5 374.162,147.333 386.5,147.5 Z"/></g>
<g><path style="opacity:0.004" fill="#fff9e5" d="M 236.5,282.5 C 237.906,282.973 238.573,283.973 238.5,285.5C 237.094,285.027 236.427,284.027 236.5,282.5 Z"/></g>
<g><path style="opacity:0.124" fill="#fffdf7" d="M 459.5,281.5 C 461.587,282.585 462.92,284.251 463.5,286.5C 461.413,285.415 460.08,283.749 459.5,281.5 Z"/></g>
<g><path style="opacity:0.098" fill="#fff6d5" d="M 17.5,286.5 C 16.8333,287.833 15.8333,288.833 14.5,289.5C 14.5,287.5 15.5,286.5 17.5,286.5 Z"/></g>
<g><path style="opacity:0.1" fill="#fffcf5" d="M 463.5,286.5 C 465.587,287.585 466.92,289.251 467.5,291.5C 465.413,290.415 464.08,288.749 463.5,286.5 Z"/></g>
<g><path style="opacity:0.271" fill="#fff0b9" d="M 12.5,291.5 C 12.573,293.027 11.9063,294.027 10.5,294.5C 10.427,292.973 11.0937,291.973 12.5,291.5 Z"/></g>
<g><path style="opacity:0.004" fill="#fff9e8" d="M 243.5,291.5 C 244.906,291.973 245.573,292.973 245.5,294.5C 244.094,294.027 243.427,293.027 243.5,291.5 Z"/></g>
<g><path style="opacity:0.282" fill="#fffae6" d="M 34.5,291.5 C 37.1667,293.5 39.5,295.833 41.5,298.5C 38.1667,297.167 35.8333,294.833 34.5,291.5 Z"/></g>
<g><path style="opacity:0.459" fill="#fff7db" d="M 202.5,294.5 C 204.833,296.167 206.833,298.167 208.5,300.5C 205.5,299.5 203.5,297.5 202.5,294.5 Z"/></g>
<g><path style="opacity:0.165" fill="#fffaf1" d="M 467.5,291.5 C 469.587,292.585 470.92,294.251 471.5,296.5C 469.413,295.415 468.08,293.749 467.5,291.5 Z"/></g>
<g><path style="opacity:0.004" fill="#fffdef" d="M 246.5,295.5 C 247.906,295.973 248.573,296.973 248.5,298.5C 247.094,298.027 246.427,297.027 246.5,295.5 Z"/></g>
<g><path style="opacity:0.075" fill="#fff4c6" d="M 84.5,295.5 C 84.573,297.027 83.9063,298.027 82.5,298.5C 82.427,296.973 83.0937,295.973 84.5,295.5 Z"/></g>
<g><path style="opacity:0.765" fill="#fff1be" d="M 41.5,298.5 C 43.3684,299.263 45.0351,300.263 46.5,301.5C 43.9664,301.741 42.2998,300.741 41.5,298.5 Z"/></g>
<g><path style="opacity:0.079" fill="#fffcf4" d="M 471.5,296.5 C 476.915,301.579 481.582,307.246 485.5,313.5C 480.085,308.421 475.418,302.754 471.5,296.5 Z"/></g>
<g><path style="opacity:0.357" fill="#fff1b9" d="M 4.5,301.5 C 3.83333,303.167 3.16667,304.833 2.5,306.5C 1.14161,304.257 1.80828,302.591 4.5,301.5 Z"/></g>
<g><path style="opacity:0.286" fill="#fff0b5" d="M 164.5,306.5 C 166.048,306.821 166.715,307.821 166.5,309.5C 165.599,308.71 164.932,307.71 164.5,306.5 Z"/></g>
<g><path style="opacity:0.004" fill="#fff9e6" d="M 432.5,305.5 C 433.906,305.973 434.573,306.973 434.5,308.5C 433.094,308.027 432.427,307.027 432.5,305.5 Z"/></g>
<g><path style="opacity:0.004" fill="#fffcf0" d="M 3.5,308.5 C 4.90632,308.973 5.57298,309.973 5.5,311.5C 4.09368,311.027 3.42702,310.027 3.5,308.5 Z"/></g>
<g><path style="opacity:0.004" fill="#fff9e9" d="M 436.5,310.5 C 437.906,310.973 438.573,311.973 438.5,313.5C 437.094,313.027 436.427,312.027 436.5,310.5 Z"/></g>
<g><path style="opacity:0.004" fill="#fff9ea" d="M 6.5,312.5 C 7.90632,312.973 8.57298,313.973 8.5,315.5C 7.09368,315.027 6.42702,314.027 6.5,312.5 Z"/></g>
<g><path style="opacity:0.004" fill="#fffbe8" d="M 168.5,312.5 C 169.906,312.973 170.573,313.973 170.5,315.5C 169.094,315.027 168.427,314.027 168.5,312.5 Z"/></g>
<g><path style="opacity:0.111" fill="#fffdfa" d="M 390.5,254.5 C 388.509,281.48 387.842,308.813 388.5,336.5C 375.323,336.829 362.323,336.495 349.5,335.5C 362.167,335.5 374.833,335.5 387.5,335.5C 387.5,308.5 387.5,281.5 387.5,254.5C 388.5,253.167 389.5,253.167 390.5,254.5 Z"/></g>
<g><path style="opacity:0.092" fill="#fffcf4" d="M 127.5,147.5 C 128.778,196.34 128.611,245.34 127,294.5C 120.584,322.239 103.084,337.073 74.5,339C 67.5,339.667 60.5,339.667 53.5,339C 51.2922,338.809 49.2922,338.309 47.5,337.5C 61.0137,339.412 74.347,338.578 87.5,335C 110.323,328.842 123.156,314.009 126,290.5C 126.5,270.503 126.667,250.503 126.5,230.5C 127.498,203.005 127.831,175.338 127.5,147.5 Z"/></g>
<g><path style="opacity:0.115" fill="#fffcf3" d="M 485.5,313.5 C 490.789,318.091 495.123,323.424 498.5,329.5C 493.416,324.752 489.083,319.419 485.5,313.5 Z"/></g>
<g><path style="opacity:0.102" fill="#fffbf1" d="M 317.5,307.5 C 318.79,308.058 319.623,309.058 320,310.5C 320.78,317.401 321.947,324.234 323.5,331C 323.167,332.167 322.833,333.333 322.5,334.5C 318.736,336.441 314.736,337.441 310.5,337.5C 313.882,336.102 317.382,334.769 321,333.5C 320.814,324.728 319.647,316.061 317.5,307.5 Z"/></g>
<g><path style="opacity:0.267" fill="#fff6d5" d="M 16.5,323.5 C 18.4044,323.738 19.7377,324.738 20.5,326.5C 18.5956,326.262 17.2623,325.262 16.5,323.5 Z"/></g>
<g><path style="opacity:0.11" fill="#fff5d1" d="M 176.5,321.5 C 178.749,322.08 180.415,323.413 181.5,325.5C 179.251,324.92 177.585,323.587 176.5,321.5 Z"/></g>
<g><path style="opacity:0.188" fill="#fff5d2" d="M 181.5,325.5 C 183.027,325.427 184.027,326.094 184.5,327.5C 182.973,327.573 181.973,326.906 181.5,325.5 Z"/></g>
<g><path style="opacity:0.22" fill="#fff6d4" d="M 20.5,326.5 C 22.0269,326.427 23.0269,327.094 23.5,328.5C 21.9731,328.573 20.9731,327.906 20.5,326.5 Z"/></g>
<g><path style="opacity:0.008" fill="#fff9e6" d="M 449.5,326.5 C 450.906,326.973 451.573,327.973 451.5,329.5C 450.094,329.027 449.427,328.027 449.5,326.5 Z"/></g>
<g><path style="opacity:0.18" fill="#fff8d6" d="M 184.5,327.5 C 186.027,327.427 187.027,328.094 187.5,329.5C 185.973,329.573 184.973,328.906 184.5,327.5 Z"/></g>
<g><path style="opacity:0.231" fill="#fff4cb" d="M 278.5,327.5 C 280.027,327.427 281.027,328.094 281.5,329.5C 279.973,329.573 278.973,328.906 278.5,327.5 Z"/></g>
<g><path style="opacity:0.025" fill="#fff9e4" d="M 25.5,329.5 C 27.153,329.66 28.4863,330.326 29.5,331.5C 27.6203,331.771 26.287,331.104 25.5,329.5 Z"/></g>
<g><path style="opacity:0.041" fill="#fff9e6" d="M 187.5,329.5 C 189.819,329.992 191.819,330.992 193.5,332.5C 190.911,332.539 188.911,331.539 187.5,329.5 Z"/></g>
<g><path style="opacity:0.314" fill="#fff2ca" d="M 281.5,329.5 C 283.404,329.738 284.738,330.738 285.5,332.5C 283.596,332.262 282.262,331.262 281.5,329.5 Z"/></g>
<g><path style="opacity:0.012" fill="#fffbeb" d="M 453.5,331.5 C 454.906,331.973 455.573,332.973 455.5,334.5C 454.094,334.027 453.427,333.027 453.5,331.5 Z"/></g>
<g><path style="opacity:0.018" fill="#fffcf4" d="M 31.5,332.5 C 33.5529,332.402 35.2196,333.069 36.5,334.5C 34.4471,334.598 32.7804,333.931 31.5,332.5 Z"/></g>
<g><path style="opacity:0.529" fill="#fff6d5" d="M 196.5,333.5 C 200.214,333.59 203.548,334.59 206.5,336.5C 202.838,336.277 199.505,335.277 196.5,333.5 Z"/></g>
<g><path style="opacity:0.041" fill="#fff9e2" d="M 37.5,334.5 C 39.8984,334.259 41.8984,334.926 43.5,336.5C 41.1016,336.741 39.1016,336.074 37.5,334.5 Z"/></g>
<g><path style="opacity:0.123" fill="#fffae7" d="M 276.5,326.5 C 268.244,329.618 259.91,332.785 251.5,336C 245.951,337.677 240.285,338.51 234.5,338.5C 230.298,338.817 226.298,338.483 222.5,337.5C 239.901,338.233 256.235,334.4 271.5,326C 273.387,325.22 275.054,325.387 276.5,326.5 Z"/></g>
<g><path style="opacity:0.026" fill="#fffbf1" d="M 292.5,335.5 C 298.4,336.957 304.4,337.623 310.5,337.5C 304.293,339.056 298.293,338.39 292.5,335.5 Z"/></g>
<g><path style="opacity:0.02" fill="#fffdf6" d="M 211.5,337.5 C 215.167,337.5 218.833,337.5 222.5,337.5C 226.298,338.483 230.298,338.817 234.5,338.5C 226.783,339.808 219.116,339.475 211.5,337.5 Z"/></g>
</svg>
