<?xml version="1.0" encoding="UTF-8"?>
<!DOCTYPE svg PUBLIC "-//W3C//DTD SVG 1.1//EN" "http://www.w3.org/Graphics/SVG/1.1/DTD/svg11.dtd">
<svg xmlns="http://www.w3.org/2000/svg" version="1.1" width="500px" height="369px" style="shape-rendering:geometricPrecision; text-rendering:geometricPrecision; image-rendering:optimizeQuality; fill-rule:evenodd; clip-rule:evenodd" xmlns:xlink="http://www.w3.org/1999/xlink">
<g><path style="opacity:0.998" fill="#ff3534" d="M 198.5,2.5 C 205.164,9.45874 209.164,17.7921 210.5,27.5C 211.72,34.443 212.887,41.443 214,48.5C 215.825,73.1308 216.825,97.7975 217,122.5C 217.333,122.833 217.667,123.167 218,123.5C 221.759,119.911 225.259,116.245 228.5,112.5C 228.5,111.833 228.833,111.5 229.5,111.5C 236.167,105.5 242.5,99.1667 248.5,92.5C 249.5,92.1667 250.167,91.5 250.5,90.5C 255.44,87.2297 259.773,83.2297 263.5,78.5C 267.1,76.5698 270.1,73.9031 272.5,70.5C 274.749,69.9202 276.415,68.5869 277.5,66.5C 279.167,65.5 280.5,64.1667 281.5,62.5C 284.089,61.5806 286.089,59.914 287.5,57.5C 290.427,56.2427 292.761,54.2427 294.5,51.5C 297.089,50.5806 299.089,48.914 300.5,46.5C 303.089,45.5806 305.089,43.914 306.5,41.5C 308.027,41.573 309.027,40.9063 309.5,39.5C 310.5,39.1667 311.167,38.5 311.5,37.5C 313.749,36.9202 315.415,35.5869 316.5,33.5C 318.404,33.2624 319.738,32.2624 320.5,30.5C 323.427,29.2427 325.761,27.2427 327.5,24.5C 328.5,24.1667 329.167,23.5 329.5,22.5C 329.833,21.5 330.5,20.8333 331.5,20.5C 334.573,18.4309 336.906,15.7642 338.5,12.5C 339.833,11.8333 340.833,10.8333 341.5,9.5C 342.552,9.35055 343.552,9.51722 344.5,10C 349.833,15.3333 355.167,20.6667 360.5,26C 362.535,26.5986 364.201,26.0986 365.5,24.5C 372.545,22.1454 378.712,23.4787 384,28.5C 385.036,30.8701 385.536,33.3701 385.5,36C 385.154,40.5592 384.488,45.0592 383.5,49.5C 379.6,57.5897 374.267,64.7564 367.5,71C 336.5,97.3333 305.5,123.667 274.5,150C 281.234,152.41 287.901,154.91 294.5,157.5C 295.167,157.5 295.833,157.5 296.5,157.5C 330.976,175.478 356.476,202.145 373,237.5C 379.785,251.402 386.285,265.402 392.5,279.5C 394.208,284.835 395.542,290.335 396.5,296C 396.345,299.292 395.678,302.459 394.5,305.5C 393.662,305.842 393.328,306.508 393.5,307.5C 391.727,309.433 389.561,310.766 387,311.5C 387.453,319.653 385.786,327.32 382,334.5C 379.592,337.62 376.426,338.953 372.5,338.5C 367.275,338.703 362.608,337.203 358.5,334C 353.644,328.146 348.477,322.646 343,317.5C 333.846,300.709 325.846,283.376 319,265.5C 313.32,252.873 305.82,241.706 296.5,232C 290.833,228.333 285.167,224.667 279.5,221C 274.846,219.393 270.18,217.893 265.5,216.5C 254.346,212.147 242.68,210.481 230.5,211.5C 228.735,210.539 226.735,210.205 224.5,210.5C 223.167,210.5 221.833,210.5 220.5,210.5C 217.059,210.301 213.726,210.801 210.5,212C 209.299,212.903 208.465,214.069 208,215.5C 206.662,230.206 204.995,244.873 203,259.5C 202.667,273.5 202.333,287.5 202,301.5C 202.369,312.455 197.202,318.289 186.5,319C 182.868,325.469 177.868,330.303 171.5,333.5C 166.156,333.184 160.822,332.684 155.5,332C 150.906,324.925 146.573,317.758 142.5,310.5C 142.59,307.848 141.924,305.515 140.5,303.5C 140.878,293.835 141.211,284.169 141.5,274.5C 141.467,270.131 141.8,265.798 142.5,261.5C 143.884,256.056 144.55,250.389 144.5,244.5C 145.5,244.167 146.167,243.5 146.5,242.5C 149.045,239.893 148.879,237.226 146,234.5C 145.501,230.848 145.335,227.182 145.5,223.5C 145.283,218.77 145.617,214.103 146.5,209.5C 147.747,203.37 148.414,197.037 148.5,190.5C 149.281,159.506 149.614,128.506 149.5,97.5C 146.504,77.0854 146.837,56.7521 150.5,36.5C 150.53,28.4545 150.363,20.4545 150,12.5C 157.492,10.0944 164.992,10.0944 172.5,12.5C 174.692,12.2427 176.359,11.2427 177.5,9.5C 178.906,9.02694 179.573,8.02694 179.5,6.5C 180.833,5.83333 181.833,4.83333 182.5,3.5C 182.918,2.77842 183.584,2.27842 184.5,2C 189.352,1.18492 194.019,1.35159 198.5,2.5 Z M 336.5,59.5 C 334.251,60.0798 332.585,61.4131 331.5,63.5C 329.596,63.7376 328.262,64.7376 327.5,66.5C 324.573,67.7573 322.239,69.7573 320.5,72.5C 317.911,73.4194 315.911,75.086 314.5,77.5C 312.251,78.0798 310.585,79.4131 309.5,81.5C 306.236,83.0941 303.569,85.4275 301.5,88.5C 298.911,89.4194 296.911,91.086 295.5,93.5C 290.895,96.4357 286.895,100.102 283.5,104.5C 279.183,107.152 275.516,110.485 272.5,114.5C 269.167,115.833 266.833,118.167 265.5,121.5C 264.167,121.5 263.5,122.167 263.5,123.5C 254.922,130.574 246.755,138.24 239,146.5C 238.536,147.094 238.369,147.761 238.5,148.5C 235.687,152.098 232.853,155.765 230,159.5C 229.056,158.737 228.556,157.737 228.5,156.5C 229.333,153.183 229.499,149.85 229,146.5C 236.017,139.317 242.85,131.984 249.5,124.5C 252.237,115.762 257.57,109.096 265.5,104.5C 268.433,98.0473 272.767,92.5473 278.5,88C 294.494,74.3484 310.827,61.015 327.5,48C 332.203,49.3049 336.536,51.6382 340.5,55C 338.959,56.3712 337.625,57.8712 336.5,59.5 Z"/></g>
<g><path style="opacity:0.169" fill="#fff5f5" d="M 182.5,3.5 C 181.833,4.83333 180.833,5.83333 179.5,6.5C 179.5,4.5 180.5,3.5 182.5,3.5 Z"/></g>
<g><path style="opacity:0.275" fill="#ffe7e7" d="M 179.5,6.5 C 179.573,8.02694 178.906,9.02694 177.5,9.5C 177.427,7.97306 178.094,6.97306 179.5,6.5 Z"/></g>
<g><path style="opacity:0.07" fill="#fff6f5" d="M 177.5,9.5 C 176.359,11.2427 174.692,12.2427 172.5,12.5C 164.992,10.0944 157.492,10.0944 150,12.5C 150.363,20.4545 150.53,28.4545 150.5,36.5C 150.167,36.5 149.833,36.5 149.5,36.5C 149.212,27.9066 149.212,19.4066 149.5,11C 158.851,9.56134 168.184,9.06134 177.5,9.5 Z"/></g>
<g><path style="opacity:0.098" fill="#ffebeb" d="M 341.5,9.5 C 340.833,10.8333 339.833,11.8333 338.5,12.5C 338.5,10.5 339.5,9.5 341.5,9.5 Z"/></g>
<g><path style="opacity:0.141" fill="#ffdcdb" d="M 338.5,12.5 C 336.906,15.7642 334.573,18.4309 331.5,20.5C 333.094,17.2358 335.427,14.5691 338.5,12.5 Z"/></g>
<g><path style="opacity:0.999" fill="#fff2f2" d="M 196.5,36.5 C 196.666,40.5138 196.499,44.5138 196,48.5C 194.333,49.8333 192.667,49.8333 191,48.5C 190.333,45.1667 189.667,41.8333 189,38.5C 188.184,37.1772 187.017,36.5106 185.5,36.5C 185.211,29.5367 187.044,23.2034 191,17.5C 194.142,23.4294 195.975,29.7628 196.5,36.5 Z"/></g>
<g><path style="opacity:0.117" fill="#ffeeee" d="M 365.5,24.5 C 364.201,26.0986 362.535,26.5986 360.5,26C 355.167,20.6667 349.833,15.3333 344.5,10C 343.552,9.51722 342.552,9.35055 341.5,9.5C 342.389,7.14137 343.722,6.9747 345.5,9C 351,14.5 356.5,20 362,25.5C 363.011,24.6634 364.178,24.33 365.5,24.5 Z"/></g>
<g><path style="opacity:0.098" fill="#ffeeee" d="M 329.5,22.5 C 329.167,23.5 328.5,24.1667 327.5,24.5C 327.5,23.1667 328.167,22.5 329.5,22.5 Z"/></g>
<g><path style="opacity:0.999" fill="#ff9898" d="M 210.5,27.5 C 214.043,27.872 216.21,29.872 217,33.5C 221.301,46.8257 223.968,60.4924 225,74.5C 225.455,86.845 226.122,99.1783 227,111.5C 227.383,112.056 227.883,112.389 228.5,112.5C 225.259,116.245 221.759,119.911 218,123.5C 217.667,123.167 217.333,122.833 217,122.5C 216.825,97.7975 215.825,73.1308 214,48.5C 212.887,41.443 211.72,34.443 210.5,27.5 Z"/></g>
<g><path style="opacity:0.189" fill="#ffe6e5" d="M 387.5,48.5 C 386.462,50.5195 385.128,50.8528 383.5,49.5C 384.488,45.0592 385.154,40.5592 385.5,36C 385.536,33.3701 385.036,30.8701 384,28.5C 378.712,23.4787 372.545,22.1454 365.5,24.5C 373.264,20.8314 380.097,22.1647 386,28.5C 388.105,34.9015 387.938,41.2349 385.5,47.5C 385.957,48.2975 386.624,48.6309 387.5,48.5 Z"/></g>
<g><path style="opacity:0.315" fill="#fff8f8" d="M 198.5,2.5 C 202.046,3.87164 204.88,6.20498 207,9.5C 211.988,20.4935 216.988,31.4935 222,42.5C 227.152,65.0279 229.652,87.6946 229.5,110.5C 229.5,110.833 229.5,111.167 229.5,111.5C 228.833,111.5 228.5,111.833 228.5,112.5C 227.883,112.389 227.383,112.056 227,111.5C 226.122,99.1783 225.455,86.845 225,74.5C 223.968,60.4924 221.301,46.8257 217,33.5C 216.21,29.872 214.043,27.872 210.5,27.5C 209.164,17.7921 205.164,9.45874 198.5,2.5 Z"/></g>
<g><path style="opacity:0.38" fill="#ffc3c1" d="M 327.5,24.5 C 325.761,27.2427 323.427,29.2427 320.5,30.5C 322.239,27.7573 324.573,25.7573 327.5,24.5 Z"/></g>
<g><path style="opacity:0.18" fill="#ffd5d4" d="M 320.5,30.5 C 319.738,32.2624 318.404,33.2624 316.5,33.5C 317.262,31.7376 318.596,30.7376 320.5,30.5 Z"/></g>
<g><path style="opacity:0.122" fill="#ffd9d8" d="M 316.5,33.5 C 315.415,35.5869 313.749,36.9202 311.5,37.5C 312.585,35.4131 314.251,34.0798 316.5,33.5 Z"/></g>
<g><path style="opacity:1" fill="#ff9898" d="M 185.5,36.5 C 187.017,36.5106 188.184,37.1772 189,38.5C 189.667,41.8333 190.333,45.1667 191,48.5C 192.667,49.8333 194.333,49.8333 196,48.5C 196.499,44.5138 196.666,40.5138 196.5,36.5C 200.343,62.492 202.009,88.8254 201.5,115.5C 202.409,141.076 200.409,166.409 195.5,191.5C 192.453,190.855 190.287,191.855 189,194.5C 185.514,210.682 183.514,227.015 183,243.5C 184.699,244.406 186.533,244.739 188.5,244.5C 188.407,257.545 187.573,270.545 186,283.5C 184.75,284.573 183.416,284.573 182,283.5C 180.739,283.759 179.739,284.426 179,285.5C 178.667,290.833 178.333,296.167 178,301.5C 175.667,302.833 173.333,304.167 171,305.5C 170.608,309.528 170.108,313.528 169.5,317.5C 167.901,317.768 166.568,317.434 165.5,316.5C 167.147,301.009 168.48,285.342 169.5,269.5C 171.144,269.714 172.644,269.38 174,268.5C 174.72,238.758 176.72,209.091 180,179.5C 180.667,169.5 180.667,159.5 180,149.5C 179,148.167 178,148.167 177,149.5C 176.627,167.178 175.96,184.845 175,202.5C 174.329,201.748 173.496,201.414 172.5,201.5C 172.108,198.052 172.775,194.886 174.5,192C 173.566,186.215 173.232,180.382 173.5,174.5C 174.832,164.355 175.499,153.855 175.5,143C 175.333,132.5 175.167,122 175,111.5C 171.397,93.0734 171.73,74.74 176,56.5C 176.74,50.7821 176.573,45.1154 175.5,39.5C 178.187,39.6641 180.854,39.4974 183.5,39C 184.066,38.0053 184.733,37.172 185.5,36.5 Z"/></g>
<g><path style="opacity:0.086" fill="#ffe8e8" d="M 311.5,37.5 C 311.167,38.5 310.5,39.1667 309.5,39.5C 309.5,38.1667 310.167,37.5 311.5,37.5 Z"/></g>
<g><path style="opacity:1" fill="#fff4f4" d="M 175.5,39.5 C 176.573,45.1154 176.74,50.7821 176,56.5C 171.73,74.74 171.397,93.0734 175,111.5C 175.167,122 175.333,132.5 175.5,143C 175.499,153.855 174.832,164.355 173.5,174.5C 172.167,174.5 170.833,174.5 169.5,174.5C 169.667,157.83 169.5,141.163 169,124.5C 168.311,123.643 167.478,122.977 166.5,122.5C 164.836,103.525 163.503,84.5248 162.5,65.5C 162.615,57.4265 163.448,49.4265 165,41.5C 165.5,41 166,40.5 166.5,40C 169.482,39.502 172.482,39.3354 175.5,39.5 Z"/></g>
<g><path style="opacity:0.38" fill="#ffb5b2" d="M 309.5,39.5 C 309.027,40.9063 308.027,41.573 306.5,41.5C 306.973,40.0937 307.973,39.427 309.5,39.5 Z"/></g>
<g><path style="opacity:0.997" fill="#ff9797" d="M 364.5,300.5 C 360.811,290.821 356.477,282.154 351.5,274.5C 345.913,260.662 338.746,247.662 330,235.5C 329.261,234.426 328.261,233.759 327,233.5C 325.535,234.33 324.035,234.496 322.5,234C 314.063,224.229 304.397,215.896 293.5,209C 292.729,206.56 292.562,204.06 293,201.5C 276.288,191.115 258.121,185.615 238.5,185C 237.107,186.171 236.273,187.671 236,189.5C 235.275,190.059 234.442,190.392 233.5,190.5C 229.196,189.79 224.863,189.29 220.5,189C 217.169,184.345 215.002,179.178 214,173.5C 212.559,172.13 210.892,171.13 209,170.5C 208.219,169.271 207.719,167.938 207.5,166.5C 212.525,158.478 218.859,151.811 226.5,146.5C 227.166,151.47 227.833,156.47 228.5,161.5C 227.04,164.029 226.54,166.696 227,169.5C 235.402,160.354 243.569,151.021 251.5,141.5C 250.998,140.479 250.332,140.312 249.5,141C 245.447,143.93 241.947,147.43 239,151.5C 238.517,150.552 238.351,149.552 238.5,148.5C 247.167,140.5 255.5,132.167 263.5,123.5C 263.5,122.167 264.167,121.5 265.5,121.5C 268.167,119.5 270.5,117.167 272.5,114.5C 276.791,111.877 280.457,108.544 283.5,104.5C 288.105,101.564 292.105,97.8976 295.5,93.5C 298.089,92.5806 300.089,90.914 301.5,88.5C 304.764,86.9059 307.431,84.5725 309.5,81.5C 311.749,80.9202 313.415,79.5869 314.5,77.5C 315.911,75.086 317.911,73.4194 320.5,72.5C 323.427,71.2427 325.761,69.2427 327.5,66.5C 328.262,64.7376 329.596,63.7376 331.5,63.5C 333.749,62.9202 335.415,61.5869 336.5,59.5C 339.621,58.7124 341.288,56.7124 341.5,53.5C 342.79,55.14 344.457,55.64 346.5,55C 353.211,48.4627 360.878,43.2961 369.5,39.5C 370.583,40.365 370.749,41.365 370,42.5C 364.673,51.8361 357.839,60.0027 349.5,67C 312.912,96.9169 276.912,127.584 241.5,159C 249.171,160.777 256.837,162.444 264.5,164C 265.172,166.992 265.172,169.825 264.5,172.5C 310.026,187.191 341.526,216.858 359,261.5C 363.137,272.744 366.97,284.078 370.5,295.5C 370.338,299.326 368.338,300.993 364.5,300.5 Z"/></g>
<g><path style="opacity:0.435" fill="#ffbdba" d="M 306.5,41.5 C 305.089,43.914 303.089,45.5806 300.5,46.5C 301.911,44.086 303.911,42.4194 306.5,41.5 Z"/></g>
<g><path style="opacity:0.304" fill="#fff9f9" d="M 387.5,48.5 C 392.902,46.1798 396.902,47.6798 399.5,53C 399.018,61.116 396.185,68.2826 391,74.5C 384.5,81 378,87.5 371.5,94C 346.284,115.061 321.284,136.227 296.5,157.5C 295.833,157.5 295.167,157.5 294.5,157.5C 295.882,154.606 297.882,152.106 300.5,150C 323.5,131 346.5,112 369.5,93C 378.448,85.0582 386.281,76.2249 393,66.5C 394.556,62.442 395.723,58.2753 396.5,54C 395.463,49.1517 392.463,47.3184 387.5,48.5 Z"/></g>
<g><path style="opacity:0.4" fill="#ffb6b2" d="M 300.5,46.5 C 299.089,48.914 297.089,50.5806 294.5,51.5C 295.911,49.086 297.911,47.4194 300.5,46.5 Z"/></g>
<g><path style="opacity:0.999" fill="#ff9797" d="M 387.5,48.5 C 392.463,47.3184 395.463,49.1517 396.5,54C 395.723,58.2753 394.556,62.442 393,66.5C 386.281,76.2249 378.448,85.0582 369.5,93C 346.5,112 323.5,131 300.5,150C 297.882,152.106 295.882,154.606 294.5,157.5C 287.901,154.91 281.234,152.41 274.5,150C 305.5,123.667 336.5,97.3333 367.5,71C 374.267,64.7564 379.6,57.5897 383.5,49.5C 385.128,50.8528 386.462,50.5195 387.5,48.5 Z"/></g>
<g><path style="opacity:0.329" fill="#ffb1ad" d="M 294.5,51.5 C 292.761,54.2427 290.427,56.2427 287.5,57.5C 289.239,54.7573 291.573,52.7573 294.5,51.5 Z"/></g>
<g><path style="opacity:0.369" fill="#ffaba7" d="M 287.5,57.5 C 286.089,59.914 284.089,61.5806 281.5,62.5C 282.911,60.086 284.911,58.4194 287.5,57.5 Z"/></g>
<g><path style="opacity:0.125" fill="#ffe8e8" d="M 336.5,59.5 C 335.415,61.5869 333.749,62.9202 331.5,63.5C 332.585,61.4131 334.251,60.0798 336.5,59.5 Z"/></g>
<g><path style="opacity:0.255" fill="#ffdada" d="M 149.5,36.5 C 149.833,36.5 150.167,36.5 150.5,36.5C 146.837,56.7521 146.504,77.0854 149.5,97.5C 149.167,97.5 148.833,97.5 148.5,97.5C 145.52,77.102 145.853,56.7687 149.5,36.5 Z"/></g>
<g><path style="opacity:0.247" fill="#ffcac9" d="M 281.5,62.5 C 280.5,64.1667 279.167,65.5 277.5,66.5C 277.167,66.5 276.833,66.5 276.5,66.5C 277.585,64.4131 279.251,63.0798 281.5,62.5 Z"/></g>
<g><path style="opacity:0.573" fill="#ff8c84" d="M 276.5,66.5 C 276.833,66.5 277.167,66.5 277.5,66.5C 276.415,68.5869 274.749,69.9202 272.5,70.5C 273.5,68.8333 274.833,67.5 276.5,66.5 Z"/></g>
<g><path style="opacity:0.231" fill="#ffdedd" d="M 327.5,66.5 C 325.761,69.2427 323.427,71.2427 320.5,72.5C 322.239,69.7573 324.573,67.7573 327.5,66.5 Z"/></g>
<g><path style="opacity:0.369" fill="#ffaba6" d="M 272.5,70.5 C 270.1,73.9031 267.1,76.5698 263.5,78.5C 265.9,75.0969 268.9,72.4302 272.5,70.5 Z"/></g>
<g><path style="opacity:0.478" fill="#fff3f3" d="M 341.5,53.5 C 341.288,56.7124 339.621,58.7124 336.5,59.5C 337.625,57.8712 338.959,56.3712 340.5,55C 336.536,51.6382 332.203,49.3049 327.5,48C 310.827,61.015 294.494,74.3484 278.5,88C 272.767,92.5473 268.433,98.0473 265.5,104.5C 257.57,109.096 252.237,115.762 249.5,124.5C 242.85,131.984 236.017,139.317 229,146.5C 229.499,149.85 229.333,153.183 228.5,156.5C 228.556,157.737 229.056,158.737 230,159.5C 232.853,155.765 235.687,152.098 238.5,148.5C 238.351,149.552 238.517,150.552 239,151.5C 241.947,147.43 245.447,143.93 249.5,141C 250.332,140.312 250.998,140.479 251.5,141.5C 243.569,151.021 235.402,160.354 227,169.5C 226.54,166.696 227.04,164.029 228.5,161.5C 227.833,156.47 227.166,151.47 226.5,146.5C 226.491,144.692 226.991,143.025 228,141.5C 234,134.833 240,128.167 246,121.5C 246.195,119.793 246.195,118.126 246,116.5C 271.09,91.2379 297.59,67.7379 325.5,46C 327.167,45.3333 328.833,45.3333 330.5,46C 333.849,49.0045 337.516,51.5045 341.5,53.5 Z"/></g>
<g><path style="opacity:0.2" fill="#ffe1e0" d="M 314.5,77.5 C 313.415,79.5869 311.749,80.9202 309.5,81.5C 310.585,79.4131 312.251,78.0798 314.5,77.5 Z"/></g>
<g><path style="opacity:0.11" fill="#ffe5e5" d="M 309.5,81.5 C 307.431,84.5725 304.764,86.9059 301.5,88.5C 303.569,85.4275 306.236,83.0941 309.5,81.5 Z"/></g>
<g><path style="opacity:0.388" fill="#ffa8a2" d="M 263.5,78.5 C 259.773,83.2297 255.44,87.2297 250.5,90.5C 254.227,85.7703 258.56,81.7703 263.5,78.5 Z"/></g>
<g><path style="opacity:0.098" fill="#ffdede" d="M 250.5,90.5 C 250.167,91.5 249.5,92.1667 248.5,92.5C 248.5,91.1667 249.167,90.5 250.5,90.5 Z"/></g>
<g><path style="opacity:0.247" fill="#ffe4e4" d="M 301.5,88.5 C 300.089,90.914 298.089,92.5806 295.5,93.5C 296.911,91.086 298.911,89.4194 301.5,88.5 Z"/></g>
<g><path style="opacity:0.007" fill="#fefffe" d="M 279.5,96.5 C 281.359,96.4609 282.692,97.2942 283.5,99C 281.741,99.7975 280.074,99.6309 278.5,98.5C 278.863,97.8165 279.196,97.1499 279.5,96.5 Z"/></g>
<g><path style="opacity:0.034" fill="#fffafa" d="M 148.5,97.5 C 148.833,97.5 149.167,97.5 149.5,97.5C 149.614,128.506 149.281,159.506 148.5,190.5C 148.167,190.5 147.833,190.5 147.5,190.5C 148.255,159.506 148.588,128.506 148.5,97.5 Z"/></g>
<g><path style="opacity:0.353" fill="#ffdbda" d="M 295.5,93.5 C 292.105,97.8976 288.105,101.564 283.5,104.5C 286.895,100.102 290.895,96.4357 295.5,93.5 Z"/></g>
<g><path style="opacity:0.424" fill="#ffb7b4" d="M 248.5,92.5 C 242.5,99.1667 236.167,105.5 229.5,111.5C 229.5,111.167 229.5,110.833 229.5,110.5C 235.223,103.775 241.556,97.7751 248.5,92.5 Z"/></g>
<g><path style="opacity:0.286" fill="#ffe8e8" d="M 283.5,104.5 C 280.457,108.544 276.791,111.877 272.5,114.5C 275.516,110.485 279.183,107.152 283.5,104.5 Z"/></g>
<g><path style="opacity:0.129" fill="#fff8f8" d="M 272.5,114.5 C 270.5,117.167 268.167,119.5 265.5,121.5C 266.833,118.167 269.167,115.833 272.5,114.5 Z"/></g>
<g><path style="opacity:0.104" fill="#fff8f8" d="M 263.5,123.5 C 255.5,132.167 247.167,140.5 238.5,148.5C 238.369,147.761 238.536,147.094 239,146.5C 246.755,138.24 254.922,130.574 263.5,123.5 Z"/></g>
<g><path style="opacity:0.569" fill="#ffb1ae" d="M 147.5,190.5 C 147.833,190.5 148.167,190.5 148.5,190.5C 148.414,197.037 147.747,203.37 146.5,209.5C 146.347,203.131 146.68,196.797 147.5,190.5 Z"/></g>
<g><path style="opacity:1" fill="#ffb9b9" d="M 183.5,196.5 C 184.381,206.057 183.881,215.724 182,225.5C 181.78,215.804 182.28,206.137 183.5,196.5 Z"/></g>
<g><path style="opacity:0.999" fill="#ffeeed" d="M 165.5,316.5 C 163.103,311.484 162.103,306.151 162.5,300.5C 163.394,290.174 163.56,279.841 163,269.5C 161.333,271.167 159.667,272.833 158,274.5C 157.449,269.455 157.782,264.455 159,259.5C 160.699,258.594 162.533,258.261 164.5,258.5C 163.6,246.844 163.434,235.178 164,223.5C 166,222.833 168,222.167 170,221.5C 171.236,214.88 172.069,208.213 172.5,201.5C 173.496,201.414 174.329,201.748 175,202.5C 175.96,184.845 176.627,167.178 177,149.5C 178,148.167 179,148.167 180,149.5C 180.667,159.5 180.667,169.5 180,179.5C 176.72,209.091 174.72,238.758 174,268.5C 172.644,269.38 171.144,269.714 169.5,269.5C 168.48,285.342 167.147,301.009 165.5,316.5 Z"/></g>
<g><path style="opacity:0.999" fill="#ff9999" d="M 220.5,210.5 C 215.404,248.653 212.237,286.986 211,325.5C 209.994,328.89 207.994,329.89 205,328.5C 204.667,324.833 204.333,321.167 204,317.5C 203.754,320.89 203.254,324.223 202.5,327.5C 200.314,328.221 198.147,328.887 196,329.5C 195.678,339.834 190.511,344.334 180.5,343C 177.533,340.9 175.7,338.066 175,334.5C 173.989,333.663 172.822,333.33 171.5,333.5C 177.868,330.303 182.868,325.469 186.5,319C 197.202,318.289 202.369,312.455 202,301.5C 202.333,287.5 202.667,273.5 203,259.5C 204.995,244.873 206.662,230.206 208,215.5C 208.465,214.069 209.299,212.903 210.5,212C 213.726,210.801 217.059,210.301 220.5,210.5 Z"/></g>
<g><path style="opacity:0.279" fill="#fff4f4" d="M 296.5,157.5 C 314.953,165.434 331.12,176.767 345,191.5C 350.717,198.216 356.05,205.216 361,212.5C 370.602,229.371 379.935,246.371 389,263.5C 395.39,277.336 401.39,291.336 407,305.5C 407.667,310.833 407.667,316.167 407,321.5C 404.056,323.771 400.722,325.105 397,325.5C 397.574,329.762 398.074,334.095 398.5,338.5C 399.571,349.608 394.904,353.442 384.5,350C 380.252,347.757 376.586,344.757 373.5,341C 368.648,340.287 363.981,338.954 359.5,337C 352.987,330.787 346.82,324.287 341,317.5C 330.895,297.617 321.562,277.284 313,256.5C 308.087,248.48 302.587,240.98 296.5,234C 287.666,228.371 277.999,225.038 267.5,224C 255.508,222.389 243.508,222.055 231.5,223C 228.066,221.321 226.233,218.488 226,214.5C 224.921,212.606 223.587,212.273 222,213.5C 220.551,233.559 218.551,253.559 216,273.5C 215.222,291.53 214.222,309.53 213,327.5C 211.865,329.803 210.032,331.136 207.5,331.5C 204.217,330.673 200.884,330.34 197.5,330.5C 198.029,341.805 192.695,346.638 181.5,345C 177.278,342.607 174.278,339.107 172.5,334.5C 171.393,335.022 170.226,335.355 169,335.5C 164.072,335.026 159.239,334.193 154.5,333C 149.055,326.277 145.055,318.777 142.5,310.5C 146.573,317.758 150.906,324.925 155.5,332C 160.822,332.684 166.156,333.184 171.5,333.5C 172.822,333.33 173.989,333.663 175,334.5C 175.7,338.066 177.533,340.9 180.5,343C 190.511,344.334 195.678,339.834 196,329.5C 198.147,328.887 200.314,328.221 202.5,327.5C 203.254,324.223 203.754,320.89 204,317.5C 204.333,321.167 204.667,324.833 205,328.5C 207.994,329.89 209.994,328.89 211,325.5C 212.237,286.986 215.404,248.653 220.5,210.5C 221.833,210.5 223.167,210.5 224.5,210.5C 225.172,211.267 226.005,211.934 227,212.5C 227.396,215.696 228.562,218.53 230.5,221C 241.5,221.667 252.5,221.667 263.5,221C 252.913,219.434 242.246,218.434 231.5,218C 229.582,215.891 229.249,213.725 230.5,211.5C 230.414,212.496 230.748,213.329 231.5,214C 242.797,215.383 254.13,216.217 265.5,216.5C 270.18,217.893 274.846,219.393 279.5,221C 285.167,224.667 290.833,228.333 296.5,232C 305.82,241.706 313.32,252.873 319,265.5C 325.846,283.376 333.846,300.709 343,317.5C 348.477,322.646 353.644,328.146 358.5,334C 362.608,337.203 367.275,338.703 372.5,338.5C 376.059,342.536 380.393,345.702 385.5,348C 393.189,349.317 396.856,345.984 396.5,338C 396.206,333.656 395.206,329.489 393.5,325.5C 394.362,323.233 396.029,322.233 398.5,322.5C 397.686,317.208 396.02,312.208 393.5,307.5C 393.328,306.508 393.662,305.842 394.5,305.5C 397.493,310.288 399.826,315.455 401.5,321C 402.635,321.749 403.635,321.583 404.5,320.5C 405.677,318.137 406.343,315.637 406.5,313C 403.466,301.042 398.799,289.875 392.5,279.5C 386.285,265.402 379.785,251.402 373,237.5C 356.476,202.145 330.976,175.478 296.5,157.5 Z"/></g>
<g><path style="opacity:0.991" fill="#ffb3b3" d="M 224.5,210.5 C 226.735,210.205 228.735,210.539 230.5,211.5C 229.249,213.725 229.582,215.891 231.5,218C 242.246,218.434 252.913,219.434 263.5,221C 252.5,221.667 241.5,221.667 230.5,221C 228.562,218.53 227.396,215.696 227,212.5C 226.005,211.934 225.172,211.267 224.5,210.5 Z"/></g>
<g><path style="opacity:0.996" fill="#ff9998" d="M 230.5,211.5 C 242.68,210.481 254.346,212.147 265.5,216.5C 254.13,216.217 242.797,215.383 231.5,214C 230.748,213.329 230.414,212.496 230.5,211.5 Z"/></g>
<g><path style="opacity:1" fill="#ffc7c7" d="M 173.5,205.5 C 174.662,214.025 174.495,222.692 173,231.5C 172.738,222.832 172.904,214.166 173.5,205.5 Z"/></g>
<g><path style="opacity:0.057" fill="#fff4f4" d="M 145.5,223.5 C 145.335,227.182 145.501,230.848 146,234.5C 148.879,237.226 149.045,239.893 146.5,242.5C 147.863,239.855 147.363,237.522 145,235.5C 144.188,231.311 144.355,227.311 145.5,223.5 Z"/></g>
<g><path style="opacity:0.133" fill="#ffebeb" d="M 146.5,242.5 C 146.167,243.5 145.5,244.167 144.5,244.5C 144.5,243.167 145.167,242.5 146.5,242.5 Z"/></g>
<g><path style="opacity:0.329" fill="#ffd7d6" d="M 144.5,244.5 C 144.55,250.389 143.884,256.056 142.5,261.5C 142.216,255.583 142.883,249.916 144.5,244.5 Z"/></g>
<g><path style="opacity:0.872" fill="#ffdbdb" d="M 364.5,300.5 C 366.109,304.054 367.442,307.721 368.5,311.5C 368.41,314.152 369.076,316.485 370.5,318.5C 370.762,319.978 370.429,321.311 369.5,322.5C 366.867,321.699 365.033,320.033 364,317.5C 360.777,302.878 356.61,288.545 351.5,274.5C 356.477,282.154 360.811,290.821 364.5,300.5 Z"/></g>
<g><path style="opacity:0.996" fill="#ff9b9b" d="M 392.5,279.5 C 398.799,289.875 403.466,301.042 406.5,313C 406.343,315.637 405.677,318.137 404.5,320.5C 403.635,321.583 402.635,321.749 401.5,321C 399.826,315.455 397.493,310.288 394.5,305.5C 395.678,302.459 396.345,299.292 396.5,296C 395.542,290.335 394.208,284.835 392.5,279.5 Z"/></g>
<g><path style="opacity:0.071" fill="#ffe9e9" d="M 141.5,274.5 C 141.211,284.169 140.878,293.835 140.5,303.5C 139.457,293.808 139.79,284.142 141.5,274.5 Z"/></g>
<g><path style="opacity:0.046" fill="#ffe7e6" d="M 140.5,303.5 C 141.924,305.515 142.59,307.848 142.5,310.5C 140.837,308.562 140.171,306.228 140.5,303.5 Z"/></g>
<g><path style="opacity:0.998" fill="#ff9a9a" d="M 393.5,307.5 C 396.02,312.208 397.686,317.208 398.5,322.5C 396.029,322.233 394.362,323.233 393.5,325.5C 395.206,329.489 396.206,333.656 396.5,338C 396.856,345.984 393.189,349.317 385.5,348C 380.393,345.702 376.059,342.536 372.5,338.5C 376.426,338.953 379.592,337.62 382,334.5C 385.786,327.32 387.453,319.653 387,311.5C 389.561,310.766 391.727,309.433 393.5,307.5 Z"/></g>
<g><path style="opacity:0.996" fill="#ff9393" d="M 368.5,311.5 C 370.163,313.438 370.829,315.772 370.5,318.5C 369.076,316.485 368.41,314.152 368.5,311.5 Z"/></g>
</svg>
