<?xml version="1.0" encoding="UTF-8"?>
<!DOCTYPE svg PUBLIC "-//W3C//DTD SVG 1.1//EN" "http://www.w3.org/Graphics/SVG/1.1/DTD/svg11.dtd">
<svg xmlns="http://www.w3.org/2000/svg" version="1.1" width="500px" height="368px" style="shape-rendering:geometricPrecision; text-rendering:geometricPrecision; image-rendering:optimizeQuality; fill-rule:evenodd; clip-rule:evenodd" xmlns:xlink="http://www.w3.org/1999/xlink">
<g><path style="opacity:0.149" fill="#cce3e3" d="M 279.5,13.5 C 272.833,13.5 266.167,13.5 259.5,13.5C 266.141,11.1542 272.808,11.1542 279.5,13.5 Z"/></g>
<g><path style="opacity:0.988" fill="#147276" d="M 463.5,13.5 C 467.341,15.0026 471.341,16.3359 475.5,17.5C 490.92,27.6891 497.087,42.0225 494,60.5C 483.073,104.312 455.073,128.312 410,132.5C 407.833,137.5 405.667,142.5 403.5,147.5C 410.658,148.118 417.658,149.452 424.5,151.5C 441.844,161.858 447.01,176.524 440,195.5C 436.489,200.096 432.156,203.763 427,206.5C 423.303,217.531 415.803,224.364 404.5,227C 394.861,229.128 385.194,231.128 375.5,233C 372.966,233.516 370.8,234.683 369,236.5C 359.342,258.141 351.675,280.475 346,303.5C 337.171,325.286 320.838,336.62 297,337.5C 282.439,336.801 270.273,331.134 260.5,320.5C 259.66,318.147 258.326,316.147 256.5,314.5C 256.539,313.244 256.039,312.244 255,311.5C 234.973,330.773 211.806,335.606 185.5,326C 180.108,323.437 175.441,319.937 171.5,315.5C 170.68,313.188 169.847,310.854 169,308.5C 168.5,298.839 168.334,289.172 168.5,279.5C 168.264,276.391 168.597,273.391 169.5,270.5C 170.776,269.614 170.776,268.614 169.5,267.5C 154.335,271.816 139.002,272.649 123.5,270C 117.279,285.276 110.112,300.109 102,314.5C 89.1885,327.558 73.5219,334.225 55,334.5C 39.2503,333.867 25.7503,328.2 14.5,317.5C 12.8292,313.851 11.4959,310.184 10.5,306.5C 10.5,301.833 10.5,297.167 10.5,292.5C 11.7947,288.733 12.4613,284.733 12.5,280.5C 13.1485,272.256 14.8152,264.256 17.5,256.5C 19.2841,251.702 20.6175,246.702 21.5,241.5C 23.3185,238.156 24.3185,234.489 24.5,230.5C 26.1231,226.022 27.4565,221.355 28.5,216.5C 28.5,216.167 28.5,215.833 28.5,215.5C 30.0743,212.093 31.0743,208.427 31.5,204.5C 33.4397,200.085 34.7731,195.418 35.5,190.5C 37.0743,187.093 38.0743,183.427 38.5,179.5C 40.2791,175.405 41.6124,171.072 42.5,166.5C 42.5,166.167 42.5,165.833 42.5,165.5C 44.6576,161.493 45.9909,157.16 46.5,152.5C 48.6048,149.592 49.6048,146.258 49.5,142.5C 51.2035,138.383 52.5368,134.049 53.5,129.5C 56.2044,123.058 58.5377,116.391 60.5,109.5C 62.2927,107.574 63.2927,105.241 63.5,102.5C 67.6745,95.4843 71.3412,88.151 74.5,80.5C 76.588,78.6644 77.9213,76.3311 78.5,73.5C 80.0002,69.827 82.0002,66.4937 84.5,63.5C 86.3264,61.8525 87.6597,59.8525 88.5,57.5C 90.3264,55.8525 91.6597,53.8525 92.5,51.5C 97.1667,46.5 101.833,41.5 106.5,36.5C 109.988,32.5832 114.321,29.9166 119.5,28.5C 122.443,28.0198 125.11,27.0198 127.5,25.5C 129.515,24.0762 131.848,23.4095 134.5,23.5C 139.847,23.4321 145.18,23.0988 150.5,22.5C 157.212,23.2428 163.879,24.2428 170.5,25.5C 175.397,27.6197 180.064,30.2864 184.5,33.5C 190.994,45.7841 192.161,58.4507 188,71.5C 189.332,69.34 190.832,67.34 192.5,65.5C 193.906,65.0269 194.573,64.0269 194.5,62.5C 195.701,60.0905 197.367,58.0905 199.5,56.5C 201.587,55.4154 202.92,53.7488 203.5,51.5C 205.759,48.0622 208.259,44.7289 211,41.5C 213.766,38.2232 216.933,35.5566 220.5,33.5C 222.749,32.9202 224.415,31.5869 225.5,29.5C 228.117,28.2141 230.45,26.5475 232.5,24.5C 233.659,22.7497 235.326,21.7497 237.5,21.5C 239.819,21.0075 241.819,20.0075 243.5,18.5C 244.209,17.596 245.209,17.2627 246.5,17.5C 249.397,16.871 252.064,15.871 254.5,14.5C 255.919,13.5489 257.585,13.2155 259.5,13.5C 266.167,13.5 272.833,13.5 279.5,13.5C 291.448,15.5606 300.948,21.5606 308,31.5C 309.197,34.0891 310.197,36.7558 311,39.5C 311.667,46.1667 311.667,52.8333 311,59.5C 306.891,84.1501 303.224,108.817 300,133.5C 301.622,130.678 302.789,127.678 303.5,124.5C 303.5,123.833 303.5,123.167 303.5,122.5C 304.434,121.432 304.768,120.099 304.5,118.5C 305.13,114.952 306.13,111.619 307.5,108.5C 309.072,105.785 310.072,102.785 310.5,99.5C 310.5,99.1667 310.5,98.8333 310.5,98.5C 312.658,94.4931 313.991,90.1598 314.5,85.5C 315.924,83.4855 316.59,81.1522 316.5,78.5C 316.557,77.391 316.89,76.391 317.5,75.5C 319.072,72.7846 320.072,69.7846 320.5,66.5C 320.263,65.209 320.596,64.209 321.5,63.5C 323.008,61.8185 324.008,59.8185 324.5,57.5C 324.328,56.5084 324.662,55.8417 325.5,55.5C 328.323,52.5249 330.656,49.1916 332.5,45.5C 341.45,35.0065 352.783,28.0065 366.5,24.5C 369.428,24.4349 372.095,23.7682 374.5,22.5C 381.111,22.4527 387.444,21.4527 393.5,19.5C 402.183,19.3322 410.849,18.8322 419.5,18C 420.416,17.7216 421.082,17.2216 421.5,16.5C 435.238,13.2624 449.238,12.2624 463.5,13.5 Z M 296.5,40.5 C 297.734,47.8427 297.567,55.176 296,62.5C 288.06,116.809 278.393,170.809 267,224.5C 260.248,248.939 253.248,273.272 246,297.5C 239.615,308.287 230.115,314.453 217.5,316C 207.831,317.314 198.497,316.147 189.5,312.5C 185.346,309.194 183.012,304.861 182.5,299.5C 183.975,275.607 188.308,252.273 195.5,229.5C 194.743,227.596 193.743,227.263 192.5,228.5C 186.633,235.021 180.633,241.521 174.5,248C 161.412,257.383 147.079,259.883 131.5,255.5C 127.228,248.619 123.728,241.286 121,233.5C 119.989,232.663 118.822,232.33 117.5,232.5C 117.5,233.833 117.5,235.167 117.5,236.5C 113.357,252.719 108.524,268.719 103,284.5C 98.8851,292.525 94.2184,300.192 89,307.5C 79.7619,315.527 68.9285,319.527 56.5,319.5C 50.0774,318.964 43.744,317.964 37.5,316.5C 28.2447,312.993 24.4114,306.326 26,296.5C 36.2138,245.862 48.8805,195.862 64,146.5C 74.6502,112.865 90.3168,81.8654 111,53.5C 118.793,45.4488 128.293,40.6154 139.5,39C 146.5,38.3333 153.5,38.3333 160.5,39C 165.926,40.2113 170.593,42.7113 174.5,46.5C 175.265,49.6331 175.932,52.7997 176.5,56C 176.046,60.1962 174.713,64.0295 172.5,67.5C 172.197,77.3145 172.197,87.3145 172.5,97.5C 171.503,104.792 170.503,112.125 169.5,119.5C 168.378,121.288 168.211,123.288 169,125.5C 170,126.833 171,126.833 172,125.5C 185.111,101.603 200.444,79.2694 218,58.5C 226.152,50.6858 234.652,43.1858 243.5,36C 258.818,25.6648 274.484,24.9981 290.5,34C 292.734,36.0627 294.734,38.2294 296.5,40.5 Z M 471.5,32.5 C 473.833,35.0026 475.999,37.6693 478,40.5C 482.105,56.1044 479.438,70.4377 470,83.5C 457.254,103.301 439.088,114.634 415.5,117.5C 411.073,116.263 406.74,115.096 402.5,114C 396.182,127.971 389.682,141.804 383,155.5C 380.615,158.379 378.448,161.379 376.5,164.5C 375.957,164.56 375.624,164.893 375.5,165.5C 377,165.833 378.5,166.167 380,166.5C 389.34,165.566 398.674,164.566 408,163.5C 411.886,163.931 415.72,164.597 419.5,165.5C 422.844,168.348 425.677,171.681 428,175.5C 429.44,181.195 428.274,186.195 424.5,190.5C 422.476,192.358 420.309,194.025 418,195.5C 415.112,200.776 411.612,205.609 407.5,210C 405.725,211.439 403.725,212.439 401.5,213C 388.198,215.852 374.865,218.519 361.5,221C 360.333,222.167 359.167,223.333 358,224.5C 347.072,252.237 337.072,280.237 328,308.5C 313.714,323.39 297.214,326.39 278.5,317.5C 275.835,314.665 273.335,311.665 271,308.5C 269.323,302.865 269.323,297.198 271,291.5C 288.817,228.39 306.817,165.39 325,102.5C 328.673,91.8235 332.34,81.1568 336,70.5C 344.123,52.6544 357.956,41.821 377.5,38C 402.815,34.3921 428.148,30.8921 453.5,27.5C 459.796,28.2396 465.796,29.9063 471.5,32.5 Z"/></g>
<g><path style="opacity:0.014" fill="#e3f0f0" d="M 254.5,14.5 C 252.064,15.871 249.397,16.871 246.5,17.5C 248.617,15.3455 251.284,14.3455 254.5,14.5 Z"/></g>
<g><path style="opacity:0.037" fill="#f0f6f7" d="M 463.5,13.5 C 468.079,13.4703 472.079,14.8037 475.5,17.5C 471.341,16.3359 467.341,15.0026 463.5,13.5 Z"/></g>
<g><path style="opacity:0.68" fill="#8fb9bb" d="M 421.5,16.5 C 421.082,17.2216 420.416,17.7216 419.5,18C 410.849,18.8322 402.183,19.3322 393.5,19.5C 402.657,18.178 411.991,17.178 421.5,16.5 Z"/></g>
<g><path style="opacity:0.024" fill="#ecf4f4" d="M 243.5,18.5 C 241.819,20.0075 239.819,21.0075 237.5,21.5C 238.911,19.461 240.911,18.461 243.5,18.5 Z"/></g>
<g><path style="opacity:0.443" fill="#a3c8c9" d="M 393.5,19.5 C 387.444,21.4527 381.111,22.4527 374.5,22.5C 380.569,20.6246 386.902,19.6246 393.5,19.5 Z"/></g>
<g><path style="opacity:0.054" fill="#e6f0f0" d="M 170.5,25.5 C 163.879,24.2428 157.212,23.2428 150.5,22.5C 145.18,23.0988 139.847,23.4321 134.5,23.5C 144.312,21.0159 154.312,20.8493 164.5,23C 166.723,23.5662 168.723,24.3995 170.5,25.5 Z"/></g>
<g><path style="opacity:0.037" fill="#edf6f6" d="M 374.5,22.5 C 372.095,23.7682 369.428,24.4349 366.5,24.5C 368.838,22.9605 371.505,22.2938 374.5,22.5 Z"/></g>
<g><path style="opacity:0.038" fill="#ecf5f5" d="M 127.5,25.5 C 125.11,27.0198 122.443,28.0198 119.5,28.5C 121.684,26.4152 124.351,25.4152 127.5,25.5 Z"/></g>
<g><path style="opacity:0.035" fill="#deeded" d="M 232.5,24.5 C 230.45,26.5475 228.117,28.2141 225.5,29.5C 226.992,26.6769 229.326,25.0102 232.5,24.5 Z"/></g>
<g><path style="opacity:0.206" fill="#eff6f6" d="M 279.5,13.5 C 295.922,14.7513 307.089,23.0846 313,38.5C 313.282,42.0395 313.782,45.5395 314.5,49C 311.484,71.4321 307.817,93.7654 303.5,116C 303.528,117.07 303.861,117.903 304.5,118.5C 304.768,120.099 304.434,121.432 303.5,122.5C 302.474,119.603 302.474,120.27 303.5,124.5C 302.789,127.678 301.622,130.678 300,133.5C 303.224,108.817 306.891,84.1501 311,59.5C 311.667,52.8333 311.667,46.1667 311,39.5C 310.197,36.7558 309.197,34.0891 308,31.5C 300.948,21.5606 291.448,15.5606 279.5,13.5 Z"/></g>
<g><path style="opacity:0.169" fill="#d3e6e6" d="M 225.5,29.5 C 224.415,31.5869 222.749,32.9202 220.5,33.5C 221.585,31.4131 223.251,30.0798 225.5,29.5 Z"/></g>
<g><path style="opacity:0.211" fill="#eff6f6" d="M 170.5,25.5 C 177.127,26.5609 182.627,29.5609 187,34.5C 191.675,43.5936 193.675,53.2602 193,63.5C 193.383,62.944 193.883,62.6107 194.5,62.5C 194.573,64.0269 193.906,65.0269 192.5,65.5C 190.832,67.34 189.332,69.34 188,71.5C 192.161,58.4507 190.994,45.7841 184.5,33.5C 180.064,30.2864 175.397,27.6197 170.5,25.5 Z"/></g>
<g><path style="opacity:0.243" fill="#d9eaea" d="M 106.5,36.5 C 101.833,41.5 97.1667,46.5 92.5,51.5C 94.0038,47.6502 96.3371,44.3169 99.5,41.5C 101.592,39.3951 103.925,37.7284 106.5,36.5 Z"/></g>
<g><path style="opacity:0.18" fill="#eff6f6" d="M 92.5,51.5 C 91.6597,53.8525 90.3264,55.8525 88.5,57.5C 88.8449,54.8021 90.1782,52.8021 92.5,51.5 Z"/></g>
<g><path style="opacity:0.114" fill="#e4f0f0" d="M 332.5,45.5 C 330.656,49.1916 328.323,52.5249 325.5,55.5C 326.851,51.4584 329.185,48.1251 332.5,45.5 Z"/></g>
<g><path style="opacity:0.118" fill="#ddeced" d="M 203.5,51.5 C 202.92,53.7488 201.587,55.4154 199.5,56.5C 200.08,54.2512 201.413,52.5846 203.5,51.5 Z"/></g>
<g><path style="opacity:0.232" fill="#f2f8f8" d="M 475.5,17.5 C 484.88,21.7172 491.38,28.7172 495,38.5C 498.548,75.9534 484.048,104.12 451.5,123C 439.063,129.234 425.897,132.734 412,133.5C 410.215,138.19 408.049,142.69 405.5,147C 410.547,147.338 415.547,148.005 420.5,149C 422.32,149.2 423.653,150.034 424.5,151.5C 417.658,149.452 410.658,148.118 403.5,147.5C 405.667,142.5 407.833,137.5 410,132.5C 455.073,128.312 483.073,104.312 494,60.5C 497.087,42.0225 490.92,27.6891 475.5,17.5 Z"/></g>
<g><path style="opacity:0.165" fill="#eff6f6" d="M 88.5,57.5 C 87.6597,59.8525 86.3264,61.8525 84.5,63.5C 84.8449,60.8021 86.1782,58.8021 88.5,57.5 Z"/></g>
<g><path style="opacity:0.031" fill="#f4f9f9" d="M 324.5,57.5 C 324.008,59.8185 323.008,61.8185 321.5,63.5C 321.461,60.911 322.461,58.911 324.5,57.5 Z"/></g>
<g><path style="opacity:0.035" fill="#f0f6f6" d="M 320.5,66.5 C 320.072,69.7846 319.072,72.7846 317.5,75.5C 317.528,72.0836 318.528,69.0836 320.5,66.5 Z"/></g>
<g><path style="opacity:0.129" fill="#848b8b" d="M 172.5,67.5 C 173.605,77.6594 173.605,87.6594 172.5,97.5C 172.197,87.3145 172.197,77.3145 172.5,67.5 Z"/></g>
<g><path style="opacity:0.157" fill="#eef5f6" d="M 78.5,73.5 C 77.9213,76.3311 76.588,78.6644 74.5,80.5C 74.9977,77.6737 76.3311,75.3403 78.5,73.5 Z"/></g>
<g><path style="opacity:0.047" fill="#f2f7f7" d="M 316.5,78.5 C 316.59,81.1522 315.924,83.4855 314.5,85.5C 314.41,82.8478 315.076,80.5145 316.5,78.5 Z"/></g>
<g><path style="opacity:0.065" fill="#ecf4f4" d="M 74.5,80.5 C 71.3412,88.151 67.6745,95.4843 63.5,102.5C 65.6574,94.3283 69.3241,86.9949 74.5,80.5 Z"/></g>
<g><path style="opacity:0.042" fill="#dce9e9" d="M 314.5,85.5 C 313.991,90.1598 312.658,94.4931 310.5,98.5C 311.057,93.8354 312.39,89.5021 314.5,85.5 Z"/></g>
<g><path style="opacity:0.073" fill="#eff6f6" d="M 63.5,102.5 C 63.2927,105.241 62.2927,107.574 60.5,109.5C 60.7073,106.759 61.7073,104.426 63.5,102.5 Z"/></g>
<g><path style="opacity:0.037" fill="#f4f8f8" d="M 310.5,99.5 C 310.072,102.785 309.072,105.785 307.5,108.5C 307.528,105.084 308.528,102.084 310.5,99.5 Z"/></g>
<g><path style="opacity:0.388" fill="#888e8e" d="M 296.5,40.5 C 294.734,38.2294 292.734,36.0627 290.5,34C 274.484,24.9981 258.818,25.6648 243.5,36C 234.652,43.1858 226.152,50.6858 218,58.5C 200.444,79.2694 185.111,101.603 172,125.5C 171,126.833 170,126.833 169,125.5C 168.211,123.288 168.378,121.288 169.5,119.5C 169.34,121.199 169.506,122.866 170,124.5C 182.77,102.403 197.103,81.4032 213,61.5C 222.271,51.2232 232.438,42.0565 243.5,34C 257.989,25.2443 272.989,24.2443 288.5,31C 292.47,33.1314 295.137,36.298 296.5,40.5 Z"/></g>
<g><path style="opacity:0.063" fill="#f4f9f9" d="M 60.5,109.5 C 58.5377,116.391 56.2044,123.058 53.5,129.5C 54.6584,122.355 56.9917,115.688 60.5,109.5 Z"/></g>
<g><path style="opacity:0.051" fill="#f8fbfb" d="M 53.5,129.5 C 52.5368,134.049 51.2035,138.383 49.5,142.5C 49.6538,137.711 50.9871,133.378 53.5,129.5 Z"/></g>
<g><path style="opacity:0.081" fill="#d5e6e6" d="M 49.5,142.5 C 49.6048,146.258 48.6048,149.592 46.5,152.5C 46.3952,148.742 47.3952,145.408 49.5,142.5 Z"/></g>
<g><path style="opacity:0.064" fill="#dfecec" d="M 46.5,152.5 C 45.9909,157.16 44.6576,161.493 42.5,165.5C 42.7689,160.736 44.1022,156.403 46.5,152.5 Z"/></g>
<g><path style="opacity:0.247" fill="#f3f8f8" d="M 424.5,151.5 C 437.857,157.063 444.857,167.23 445.5,182C 445.14,193.9 439.64,202.4 429,207.5C 424.923,219.239 416.756,226.406 404.5,229C 394.552,231.256 384.552,233.256 374.5,235C 373.069,235.465 371.903,236.299 371,237.5C 361.955,258.254 354.622,279.587 349,301.5C 338.299,329.819 317.799,341.985 287.5,338C 280.189,336.345 273.522,333.345 267.5,329C 264.553,326.564 262.22,323.731 260.5,320.5C 270.273,331.134 282.439,336.801 297,337.5C 320.838,336.62 337.171,325.286 346,303.5C 351.675,280.475 359.342,258.141 369,236.5C 370.8,234.683 372.966,233.516 375.5,233C 385.194,231.128 394.861,229.128 404.5,227C 415.803,224.364 423.303,217.531 427,206.5C 432.156,203.763 436.489,200.096 440,195.5C 447.01,176.524 441.844,161.858 424.5,151.5 Z"/></g>
<g><path style="opacity:0.359" fill="#81898a" d="M 419.5,165.5 C 415.72,164.597 411.886,163.931 408,163.5C 398.674,164.566 389.34,165.566 380,166.5C 378.5,166.167 377,165.833 375.5,165.5C 375.624,164.893 375.957,164.56 376.5,164.5C 377.097,165.139 377.93,165.472 379,165.5C 390.754,163.374 402.588,162.541 414.5,163C 416.491,163.374 418.158,164.207 419.5,165.5 Z"/></g>
<g><path style="opacity:0.064" fill="#f8fbfb" d="M 42.5,166.5 C 41.6124,171.072 40.2791,175.405 38.5,179.5C 38.7689,174.736 40.1022,170.403 42.5,166.5 Z"/></g>
<g><path style="opacity:0.052" fill="#f7fafa" d="M 38.5,179.5 C 38.0743,183.427 37.0743,187.093 35.5,190.5C 35.5165,186.466 36.5165,182.799 38.5,179.5 Z"/></g>
<g><path style="opacity:0.047" fill="#dfecec" d="M 35.5,190.5 C 34.7731,195.418 33.4397,200.085 31.5,204.5C 31.9205,199.471 33.2538,194.805 35.5,190.5 Z"/></g>
<g><path style="opacity:0.05" fill="#f7fafa" d="M 31.5,204.5 C 31.0743,208.427 30.0743,212.093 28.5,215.5C 28.5165,211.466 29.5165,207.799 31.5,204.5 Z"/></g>
<g><path style="opacity:0.031" fill="#f2f8f8" d="M 28.5,216.5 C 27.4565,221.355 26.1231,226.022 24.5,230.5C 24.6102,225.378 25.9436,220.712 28.5,216.5 Z"/></g>
<g><path style="opacity:0.271" fill="#878d8e" d="M 174.5,46.5 C 170.593,42.7113 165.926,40.2113 160.5,39C 153.5,38.3333 146.5,38.3333 139.5,39C 128.293,40.6154 118.793,45.4488 111,53.5C 90.3168,81.8654 74.6502,112.865 64,146.5C 48.8805,195.862 36.2138,245.862 26,296.5C 24.4114,306.326 28.2447,312.993 37.5,316.5C 30.6653,315.167 26.1653,311.167 24,304.5C 24.0339,295.016 25.3672,285.683 28,276.5C 36.728,238.254 46.3947,200.254 57,162.5C 68.0924,121.654 86.0924,84.3204 111,50.5C 128.991,35.9695 148.824,32.8028 170.5,41C 172.464,42.451 173.797,44.2843 174.5,46.5 Z"/></g>
<g><path style="opacity:0.533" fill="#848a8b" d="M 471.5,32.5 C 465.796,29.9063 459.796,28.2396 453.5,27.5C 428.148,30.8921 402.815,34.3921 377.5,38C 357.956,41.821 344.123,52.6544 336,70.5C 332.34,81.1568 328.673,91.8235 325,102.5C 306.817,165.39 288.817,228.39 271,291.5C 269.323,297.198 269.323,302.865 271,308.5C 273.335,311.665 275.835,314.665 278.5,317.5C 270.244,312.988 266.744,305.988 268,296.5C 286.131,231.775 304.464,167.108 323,102.5C 327.054,90.06 331.388,77.7267 336,65.5C 342.017,53.1523 351.517,44.6523 364.5,40C 370.709,37.8645 377.042,36.1978 383.5,35C 406.323,32.0728 429.157,29.2395 452,26.5C 455.888,26.5939 459.721,27.0939 463.5,28C 466.684,28.7542 469.351,30.2542 471.5,32.5 Z"/></g>
<g><path style="opacity:0.044" fill="#d5e6e6" d="M 24.5,230.5 C 24.3185,234.489 23.3185,238.156 21.5,241.5C 21.5165,237.466 22.5165,233.799 24.5,230.5 Z"/></g>
<g><path style="opacity:0.314" fill="#838b8c" d="M 131.5,255.5 C 129.376,254.969 127.876,253.635 127,251.5C 124.333,245.5 121.667,239.5 119,233.5C 118.768,234.737 118.268,235.737 117.5,236.5C 117.5,235.167 117.5,233.833 117.5,232.5C 118.822,232.33 119.989,232.663 121,233.5C 123.728,241.286 127.228,248.619 131.5,255.5 Z"/></g>
<g><path style="opacity:0.048" fill="#ddeaea" d="M 21.5,241.5 C 20.6175,246.702 19.2841,251.702 17.5,256.5C 17.762,251.112 19.0954,246.112 21.5,241.5 Z"/></g>
<g><path style="opacity:0.333" fill="#868c8d" d="M 192.5,228.5 C 193.743,227.263 194.743,227.596 195.5,229.5C 188.308,252.273 183.975,275.607 182.5,299.5C 183.012,304.861 185.346,309.194 189.5,312.5C 182.863,308.886 180.196,303.22 181.5,295.5C 183.055,273.057 187.055,251.057 193.5,229.5C 193.376,228.893 193.043,228.56 192.5,228.5 Z"/></g>
<g><path style="opacity:0.228" fill="#f3f8f8" d="M 169.5,270.5 C 169.265,269.903 168.765,269.57 168,269.5C 153.643,272.73 139.143,273.397 124.5,271.5C 118.971,287.227 111.804,302.227 103,316.5C 92.904,327.297 80.404,333.464 65.5,335C 49.2423,337.126 34.2423,333.793 20.5,325C 17.8823,322.894 15.8823,320.394 14.5,317.5C 25.7503,328.2 39.2503,333.867 55,334.5C 73.5219,334.225 89.1885,327.558 102,314.5C 110.112,300.109 117.279,285.276 123.5,270C 139.002,272.649 154.335,271.816 169.5,267.5C 170.776,268.614 170.776,269.614 169.5,270.5 Z"/></g>
<g><path style="opacity:0.039" fill="#fbfdfd" d="M 12.5,280.5 C 12.4613,284.733 11.7947,288.733 10.5,292.5C 10.3442,288.236 11.0109,284.236 12.5,280.5 Z"/></g>
<g><path style="opacity:0.392" fill="#adcdce" d="M 168.5,279.5 C 168.334,289.172 168.5,298.839 169,308.5C 169.847,310.854 170.68,313.188 171.5,315.5C 169.59,314.025 168.424,312.025 168,309.5C 166.597,299.362 166.764,289.362 168.5,279.5 Z"/></g>
<g><path style="opacity:0.199" fill="#f3f8f8" d="M 256.5,314.5 C 249.896,319.478 242.896,323.978 235.5,328C 214.475,335.502 194.475,333.502 175.5,322C 173.915,319.931 172.581,317.764 171.5,315.5C 175.441,319.937 180.108,323.437 185.5,326C 211.806,335.606 234.973,330.773 255,311.5C 256.039,312.244 256.539,313.244 256.5,314.5 Z"/></g>
<g><path style="opacity:0.051" fill="#f0f6f6" d="M 10.5,306.5 C 11.4959,310.184 12.8292,313.851 14.5,317.5C 11.242,314.631 9.90862,310.964 10.5,306.5 Z"/></g>
<g><path style="opacity:0.063" fill="#f3f8f8" d="M 256.5,314.5 C 258.326,316.147 259.66,318.147 260.5,320.5C 258.178,319.198 256.845,317.198 256.5,314.5 Z"/></g>
</svg>
