<?xml version="1.0" encoding="UTF-8"?>
<!DOCTYPE svg PUBLIC "-//W3C//DTD SVG 1.1//EN" "http://www.w3.org/Graphics/SVG/1.1/DTD/svg11.dtd">
<svg xmlns="http://www.w3.org/2000/svg" version="1.1" width="500px" height="383px" style="shape-rendering:geometricPrecision; text-rendering:geometricPrecision; image-rendering:optimizeQuality; fill-rule:evenodd; clip-rule:evenodd" xmlns:xlink="http://www.w3.org/1999/xlink">
<g><path style="opacity:0.997" fill="#963232" d="M 297.5,35.5 C 314.014,36.9619 330.014,40.9619 345.5,47.5C 349.164,50.3346 353.164,52.668 357.5,54.5C 360.871,57.8715 364.537,60.8715 368.5,63.5C 368.833,64.5 369.5,65.1667 370.5,65.5C 372.453,69.1203 375.119,72.1203 378.5,74.5C 389.509,90.5285 396.176,108.195 398.5,127.5C 398.5,137.167 398.5,146.833 398.5,156.5C 389.1,213.386 355.433,244.22 297.5,249C 271.833,249.333 246.167,249.667 220.5,250C 220,250.5 219.5,251 219,251.5C 218.667,292.833 218.333,334.167 218,375.5C 196.24,376.66 174.406,376.827 152.5,376C 151.501,262.904 151.168,149.737 151.5,36.5C 199.997,35.5012 248.664,35.1678 297.5,35.5 Z M 304.5,94.5 C 306.336,96.588 308.669,97.9213 311.5,98.5C 311.973,99.9063 312.973,100.573 314.5,100.5C 315.833,102.5 317.5,104.167 319.5,105.5C 319.427,107.027 320.094,108.027 321.5,108.5C 321.427,110.027 322.094,111.027 323.5,111.5C 323.66,113.153 324.326,114.486 325.5,115.5C 329.999,130.978 330.666,146.645 327.5,162.5C 327.5,162.833 327.5,163.167 327.5,163.5C 326.069,164.78 325.402,166.447 325.5,168.5C 323.992,170.181 322.992,172.181 322.5,174.5C 321.094,174.973 320.427,175.973 320.5,177.5C 317.167,180.167 314.167,183.167 311.5,186.5C 309.181,186.992 307.181,187.992 305.5,189.5C 303.597,189.796 301.93,190.463 300.5,191.5C 298.214,191.595 296.214,192.262 294.5,193.5C 291.119,193.46 287.786,193.793 284.5,194.5C 263.167,194.5 241.833,194.5 220.5,194.5C 219.995,190.787 219.662,187.287 219.5,184C 220.329,152.905 220.829,121.738 221,90.5C 237.037,89.8723 253.204,89.7057 269.5,90C 281.391,89.961 293.057,91.461 304.5,94.5 Z"/></g>
<g><path style="opacity:0.021" fill="#efdede" d="M 297.5,35.5 C 313.121,35.6546 328.121,38.8213 342.5,45C 343.942,45.3768 344.942,46.2101 345.5,47.5C 330.014,40.9619 314.014,36.9619 297.5,35.5 Z"/></g>
<g><path style="opacity:0.027" fill="#f7eeee" d="M 345.5,47.5 C 347.308,47.4914 348.975,47.9914 350.5,49C 353.266,50.371 355.599,52.2043 357.5,54.5C 353.164,52.668 349.164,50.3346 345.5,47.5 Z"/></g>
<g><path style="opacity:0.043" fill="#f3e7e7" d="M 357.5,54.5 C 362.043,56.3717 365.71,59.3717 368.5,63.5C 364.537,60.8715 360.871,57.8715 357.5,54.5 Z"/></g>
<g><path style="opacity:0.08" fill="#fefffe" d="M 368.5,63.5 C 369.833,63.5 370.5,64.1667 370.5,65.5C 369.5,65.1667 368.833,64.5 368.5,63.5 Z"/></g>
<g><path style="opacity:0.073" fill="#f6eded" d="M 370.5,65.5 C 371.496,65.4142 372.329,65.7476 373,66.5C 375.08,69.0652 376.913,71.7318 378.5,74.5C 375.119,72.1203 372.453,69.1203 370.5,65.5 Z"/></g>
<g><path style="opacity:0.186" fill="#f4e9e8" d="M 304.5,94.5 C 293.057,91.461 281.391,89.961 269.5,90C 253.204,89.7057 237.037,89.8723 221,90.5C 220.829,121.738 220.329,152.905 219.5,184C 219.662,187.287 219.995,190.787 220.5,194.5C 241.833,194.5 263.167,194.5 284.5,194.5C 283.048,195.302 281.382,195.802 279.5,196C 259.833,196.667 240.167,196.667 220.5,196C 220,195.5 219.5,195 219,194.5C 218.333,159.5 218.333,124.5 219,89.5C 243.121,88.0887 267.288,88.2554 291.5,90C 296.101,91.057 300.434,92.557 304.5,94.5 Z"/></g>
<g><path style="opacity:0.033" fill="#f3e4e3" d="M 304.5,94.5 C 307.331,95.0787 309.664,96.412 311.5,98.5C 308.669,97.9213 306.336,96.588 304.5,94.5 Z"/></g>
<g><path style="opacity:0.192" fill="#e6cbcb" d="M 311.5,98.5 C 313.027,98.427 314.027,99.0937 314.5,100.5C 312.973,100.573 311.973,99.9063 311.5,98.5 Z"/></g>
<g><path style="opacity:0.137" fill="#f6eded" d="M 378.5,74.5 C 391.445,89.6535 398.112,107.32 398.5,127.5C 396.176,108.195 389.509,90.5285 378.5,74.5 Z"/></g>
<g><path style="opacity:0.004" fill="#eedcdc" d="M 319.5,105.5 C 320.906,105.973 321.573,106.973 321.5,108.5C 320.094,108.027 319.427,107.027 319.5,105.5 Z"/></g>
<g><path style="opacity:0.004" fill="#f3e4e4" d="M 321.5,108.5 C 322.906,108.973 323.573,109.973 323.5,111.5C 322.094,111.027 321.427,110.027 321.5,108.5 Z"/></g>
<g><path style="opacity:0.01" fill="#efdddd" d="M 325.5,115.5 C 327.865,119.424 329.365,123.757 330,128.5C 330.667,137.5 330.667,146.5 330,155.5C 329.844,158.191 329.011,160.524 327.5,162.5C 330.666,146.645 329.999,130.978 325.5,115.5 Z"/></g>
<g><path style="opacity:0.128" fill="#f2e4e4" d="M 151.5,36.5 C 151.168,149.737 151.501,262.904 152.5,376C 174.406,376.827 196.24,376.66 218,375.5C 218.333,334.167 218.667,292.833 219,251.5C 219.5,251 220,250.5 220.5,250C 246.167,249.667 271.833,249.333 297.5,249C 355.433,244.22 389.1,213.386 398.5,156.5C 396.773,190.708 381.44,216.875 352.5,235C 339.035,242.284 324.702,246.951 309.5,249C 280.149,250.098 250.816,250.931 221.5,251.5C 220.808,252.025 220.308,252.692 220,253.5C 219.833,258.833 219.667,264.167 219.5,269.5C 220.699,304.928 220.699,340.594 219.5,376.5C 218.975,377.192 218.308,377.692 217.5,378C 195.833,378.667 174.167,378.667 152.5,378C 152,377.5 151.5,377 151,376.5C 150.167,262.999 150.334,149.666 151.5,36.5 Z"/></g>
<g><path style="opacity:0.22" fill="#d8b1b0" d="M 300.5,191.5 C 298.898,193.074 296.898,193.741 294.5,193.5C 296.214,192.262 298.214,191.595 300.5,191.5 Z"/></g>
<g><path style="opacity:0.263" fill="#d6a8a6" d="M 305.5,189.5 C 304.365,191.213 302.698,191.88 300.5,191.5C 301.93,190.463 303.597,189.796 305.5,189.5 Z"/></g>
<g><path style="opacity:0.141" fill="#d4a5a4" d="M 320.5,177.5 C 318.5,181.5 315.5,184.5 311.5,186.5C 314.167,183.167 317.167,180.167 320.5,177.5 Z"/></g>
<g><path style="opacity:0.071" fill="#e6cccc" d="M 322.5,174.5 C 322.573,176.027 321.906,177.027 320.5,177.5C 320.427,175.973 321.094,174.973 322.5,174.5 Z"/></g>
<g><path style="opacity:0.329" fill="#d7adab" d="M 327.5,163.5 C 327.88,165.698 327.213,167.365 325.5,168.5C 325.402,166.447 326.069,164.78 327.5,163.5 Z"/></g>
</svg>
