<?xml version="1.0" encoding="UTF-8"?>
<!DOCTYPE svg PUBLIC "-//W3C//DTD SVG 1.1//EN" "http://www.w3.org/Graphics/SVG/1.1/DTD/svg11.dtd">
<svg xmlns="http://www.w3.org/2000/svg" version="1.1" width="500px" height="366px" style="shape-rendering:geometricPrecision; text-rendering:geometricPrecision; image-rendering:optimizeQuality; fill-rule:evenodd; clip-rule:evenodd" xmlns:xlink="http://www.w3.org/1999/xlink">
<g><path style="opacity:1" fill="#060606" d="M 384.5,30.5 C 384.427,32.0269 385.094,33.0269 386.5,33.5C 386.427,35.0269 387.094,36.0269 388.5,36.5C 394.827,48.3176 396.993,60.9843 395,74.5C 392.511,96.6532 380.678,111.153 359.5,118C 347.477,121.838 335.477,122.338 323.5,119.5C 321.485,118.076 319.152,117.41 316.5,117.5C 309.056,115.616 302.723,111.949 297.5,106.5C 297.027,105.094 296.027,104.427 294.5,104.5C 287.541,98.372 281.874,91.2054 277.5,83C 278.13,81.6898 279.13,80.8565 280.5,80.5C 282.027,80.573 283.027,79.9063 283.5,78.5C 285.404,78.2624 286.738,77.2624 287.5,75.5C 288.5,73.8333 289.833,72.5 291.5,71.5C 292.906,71.0269 293.573,70.0269 293.5,68.5C 294.906,68.0269 295.573,67.0269 295.5,65.5C 298.113,57.8188 298.113,50.1521 295.5,42.5C 295.715,40.8212 295.048,39.8212 293.5,39.5C 290.551,35.0554 286.551,31.8887 281.5,30C 261.678,23.2162 243.345,25.8829 226.5,38C 217.161,48.7966 214.994,60.9633 220,74.5C 222.593,79.361 225.427,84.0276 228.5,88.5C 228.427,90.0269 229.094,91.0269 230.5,91.5C 239.055,98.8849 248.055,105.718 257.5,112C 275.052,123.059 292.719,133.892 310.5,144.5C 310.821,146.048 311.821,146.715 313.5,146.5C 331.471,156.314 347.804,168.314 362.5,182.5C 363.757,185.427 365.757,187.761 368.5,189.5C 369.833,190.167 370.833,191.167 371.5,192.5C 371.738,194.404 372.738,195.738 374.5,196.5C 376.984,198.8 378.984,201.467 380.5,204.5C 380.427,206.027 381.094,207.027 382.5,207.5C 382.427,209.027 383.094,210.027 384.5,210.5C 398.688,235.99 402.188,262.99 395,291.5C 386.255,314.905 369.755,330.071 345.5,337C 336.321,339.53 326.988,341.197 317.5,342C 264.167,342.667 210.833,342.667 157.5,342C 151.457,341.271 146.123,339.104 141.5,335.5C 141.027,334.094 140.027,333.427 138.5,333.5C 132.716,328.52 129.216,322.187 128,314.5C 126.568,300.054 128.068,286.054 132.5,272.5C 134.04,270.162 134.706,267.495 134.5,264.5C 137.217,251.298 138.05,237.965 137,224.5C 135.195,215.922 132.695,207.589 129.5,199.5C 129.833,198.833 130.167,198.167 130.5,197.5C 131.167,197.5 131.833,197.5 132.5,197.5C 135.152,197.59 137.485,196.924 139.5,195.5C 160.159,190.121 180.159,191.954 199.5,201C 202.69,203.364 205.69,205.864 208.5,208.5C 208.427,210.027 209.094,211.027 210.5,211.5C 215.522,216.868 219.022,223.202 221,230.5C 223.542,248.744 225.209,267.077 226,285.5C 226.76,292.81 228.594,299.81 231.5,306.5C 231.427,308.027 232.094,309.027 233.5,309.5C 236.167,311.833 238.833,314.167 241.5,316.5C 241.821,318.048 242.821,318.715 244.5,318.5C 256.615,322.709 268.615,322.376 280.5,317.5C 282.989,317.759 284.656,316.759 285.5,314.5C 286.167,313.167 287.167,312.167 288.5,311.5C 289.906,311.027 290.573,310.027 290.5,308.5C 291.906,308.027 292.573,307.027 292.5,305.5C 304.56,275.721 299.893,249.055 278.5,225.5C 277.738,223.738 276.404,222.738 274.5,222.5C 273.5,222.167 272.833,221.5 272.5,220.5C 271.738,218.738 270.404,217.738 268.5,217.5C 268.027,216.094 267.027,215.427 265.5,215.5C 264.833,215.5 264.5,215.167 264.5,214.5C 264.027,213.094 263.027,212.427 261.5,212.5C 261.027,211.094 260.027,210.427 258.5,210.5C 258.027,209.094 257.027,208.427 255.5,208.5C 255.027,207.094 254.027,206.427 252.5,206.5C 252.027,205.094 251.027,204.427 249.5,204.5C 249.027,203.094 248.027,202.427 246.5,202.5C 246.027,201.094 245.027,200.427 243.5,200.5C 242.508,200.672 241.842,200.338 241.5,199.5C 241.027,198.094 240.027,197.427 238.5,197.5C 236.566,196.89 234.899,195.89 233.5,194.5C 233.027,193.094 232.027,192.427 230.5,192.5C 229.508,192.672 228.842,192.338 228.5,191.5C 228.027,190.094 227.027,189.427 225.5,189.5C 216.9,184.89 208.566,179.89 200.5,174.5C 200.027,173.094 199.027,172.427 197.5,172.5C 196.508,172.672 195.842,172.338 195.5,171.5C 195.027,170.094 194.027,169.427 192.5,169.5C 192.027,168.094 191.027,167.427 189.5,167.5C 185.975,166.241 182.975,164.241 180.5,161.5C 180.027,160.094 179.027,159.427 177.5,159.5C 174.467,157.984 171.8,155.984 169.5,153.5C 169.027,152.094 168.027,151.427 166.5,151.5C 165.5,151.167 164.833,150.5 164.5,149.5C 163.415,147.413 161.749,146.08 159.5,145.5C 133.002,121.672 123.335,92.3391 130.5,57.5C 131.924,55.4855 132.59,53.1522 132.5,50.5C 133.716,45.738 135.716,41.4047 138.5,37.5C 139.906,37.0269 140.573,36.0269 140.5,34.5C 140.738,32.5956 141.738,31.2623 143.5,30.5C 144.906,30.0269 145.573,29.0269 145.5,27.5C 145.833,26.5 146.5,25.8333 147.5,25.5C 149.749,24.9202 151.415,23.5869 152.5,21.5C 153.262,19.7376 154.596,18.7376 156.5,18.5C 158.027,18.573 159.027,17.9063 159.5,16.5C 169.313,10.8747 179.98,7.70805 191.5,7C 234.833,6.33333 278.167,6.33333 321.5,7C 335.796,8.16027 349.796,10.8269 363.5,15C 371.957,18.225 378.957,23.3917 384.5,30.5 Z"/></g>
<g><path style="opacity:0.776" fill="#838383" d="M 159.5,16.5 C 159.027,17.9063 158.027,18.573 156.5,18.5C 156.973,17.0937 157.973,16.427 159.5,16.5 Z"/></g>
<g><path style="opacity:0.792" fill="#7d7d7d" d="M 152.5,21.5 C 151.415,23.5869 149.749,24.9202 147.5,25.5C 148.585,23.4131 150.251,22.0798 152.5,21.5 Z"/></g>
<g><path style="opacity:0.659" fill="#9e9e9e" d="M 145.5,27.5 C 145.573,29.0269 144.906,30.0269 143.5,30.5C 143.427,28.9731 144.094,27.9731 145.5,27.5 Z"/></g>
<g><path style="opacity:0.427" fill="#9b9b9b" d="M 384.5,30.5 C 385.906,30.9731 386.573,31.9731 386.5,33.5C 385.094,33.0269 384.427,32.0269 384.5,30.5 Z"/></g>
<g><path style="opacity:0.361" fill="#a2a2a2" d="M 386.5,33.5 C 387.906,33.9731 388.573,34.9731 388.5,36.5C 387.094,36.0269 386.427,35.0269 386.5,33.5 Z"/></g>
<g><path style="opacity:0.427" fill="#959595" d="M 140.5,34.5 C 140.573,36.0269 139.906,37.0269 138.5,37.5C 138.427,35.9731 139.094,34.9731 140.5,34.5 Z"/></g>
<g><path style="opacity:0.89" fill="#858585" d="M 293.5,39.5 C 295.048,39.8212 295.715,40.8212 295.5,42.5C 294.599,41.7095 293.932,40.7095 293.5,39.5 Z"/></g>
<g><path style="opacity:0.902" fill="#747474" d="M 132.5,50.5 C 132.59,53.1522 131.924,55.4855 130.5,57.5C 130.41,54.8478 131.076,52.5145 132.5,50.5 Z"/></g>
<g><path style="opacity:0.384" fill="#a3a3a3" d="M 295.5,65.5 C 295.573,67.0269 294.906,68.0269 293.5,68.5C 293.427,66.9731 294.094,65.9731 295.5,65.5 Z"/></g>
<g><path style="opacity:0.725" fill="#8c8c8c" d="M 293.5,68.5 C 293.573,70.0269 292.906,71.0269 291.5,71.5C 291.427,69.9731 292.094,68.9731 293.5,68.5 Z"/></g>
<g><path style="opacity:0.655" fill="#838383" d="M 287.5,75.5 C 286.738,77.2624 285.404,78.2624 283.5,78.5C 284.262,76.7376 285.596,75.7376 287.5,75.5 Z"/></g>
<g><path style="opacity:0.737" fill="#858585" d="M 283.5,78.5 C 283.027,79.9063 282.027,80.573 280.5,80.5C 280.973,79.0937 281.973,78.427 283.5,78.5 Z"/></g>
<g><path style="opacity:0.729" fill="#8f8f8f" d="M 228.5,88.5 C 229.906,88.9731 230.573,89.9731 230.5,91.5C 229.094,91.0269 228.427,90.0269 228.5,88.5 Z"/></g>
<g><path style="opacity:0.694" fill="#959595" d="M 294.5,104.5 C 296.027,104.427 297.027,105.094 297.5,106.5C 295.973,106.573 294.973,105.906 294.5,104.5 Z"/></g>
<g><path style="opacity:0.957" fill="#656565" d="M 316.5,117.5 C 319.152,117.41 321.485,118.076 323.5,119.5C 320.848,119.59 318.515,118.924 316.5,117.5 Z"/></g>
<g><path style="opacity:0.843" fill="#898989" d="M 159.5,145.5 C 161.749,146.08 163.415,147.413 164.5,149.5C 162.251,148.92 160.585,147.587 159.5,145.5 Z"/></g>
<g><path style="opacity:0.957" fill="#767676" d="M 310.5,144.5 C 311.71,144.932 312.71,145.599 313.5,146.5C 311.821,146.715 310.821,146.048 310.5,144.5 Z"/></g>
<g><path style="opacity:0.722" fill="#939393" d="M 166.5,151.5 C 168.027,151.427 169.027,152.094 169.5,153.5C 167.973,153.573 166.973,152.906 166.5,151.5 Z"/></g>
<g><path style="opacity:0.6" fill="#777777" d="M 177.5,159.5 C 179.027,159.427 180.027,160.094 180.5,161.5C 178.973,161.573 177.973,160.906 177.5,159.5 Z"/></g>
<g><path style="opacity:0.537" fill="#878787" d="M 189.5,167.5 C 191.027,167.427 192.027,168.094 192.5,169.5C 190.973,169.573 189.973,168.906 189.5,167.5 Z"/></g>
<g><path style="opacity:0.439" fill="#979797" d="M 192.5,169.5 C 194.027,169.427 195.027,170.094 195.5,171.5C 193.973,171.573 192.973,170.906 192.5,169.5 Z"/></g>
<g><path style="opacity:0.463" fill="#8f8f8f" d="M 197.5,172.5 C 199.027,172.427 200.027,173.094 200.5,174.5C 198.973,174.573 197.973,173.906 197.5,172.5 Z"/></g>
<g><path style="opacity:0.678" fill="#a5a5a5" d="M 362.5,182.5 C 365.243,184.239 367.243,186.573 368.5,189.5C 365.757,187.761 363.757,185.427 362.5,182.5 Z"/></g>
<g><path style="opacity:0.361" fill="#a7a7a7" d="M 225.5,189.5 C 227.027,189.427 228.027,190.094 228.5,191.5C 226.973,191.573 225.973,190.906 225.5,189.5 Z"/></g>
<g><path style="opacity:0.42" fill="#979797" d="M 230.5,192.5 C 232.027,192.427 233.027,193.094 233.5,194.5C 231.973,194.573 230.973,193.906 230.5,192.5 Z"/></g>
<g><path style="opacity:0.847" fill="#848484" d="M 371.5,192.5 C 373.262,193.262 374.262,194.596 374.5,196.5C 372.738,195.738 371.738,194.404 371.5,192.5 Z"/></g>
<g><path style="opacity:0.914" fill="#6a6a6a" d="M 139.5,195.5 C 137.485,196.924 135.152,197.59 132.5,197.5C 134.515,196.076 136.848,195.41 139.5,195.5 Z"/></g>
<g><path style="opacity:0.063" fill="#e4e4e4" d="M 130.5,197.5 C 130.167,198.167 129.833,198.833 129.5,199.5C 128.243,198.377 128.576,197.711 130.5,197.5 Z"/></g>
<g><path style="opacity:0.361" fill="#9a9a9a" d="M 238.5,197.5 C 240.027,197.427 241.027,198.094 241.5,199.5C 239.973,199.573 238.973,198.906 238.5,197.5 Z"/></g>
<g><path style="opacity:0.561" fill="#7b7b7b" d="M 243.5,200.5 C 245.027,200.427 246.027,201.094 246.5,202.5C 244.973,202.573 243.973,201.906 243.5,200.5 Z"/></g>
<g><path style="opacity:0.498" fill="#8b8b8b" d="M 246.5,202.5 C 248.027,202.427 249.027,203.094 249.5,204.5C 247.973,204.573 246.973,203.906 246.5,202.5 Z"/></g>
<g><path style="opacity:0.502" fill="#8c8c8c" d="M 249.5,204.5 C 251.027,204.427 252.027,205.094 252.5,206.5C 250.973,206.573 249.973,205.906 249.5,204.5 Z"/></g>
<g><path style="opacity:0.502" fill="#8d8d8d" d="M 380.5,204.5 C 381.906,204.973 382.573,205.973 382.5,207.5C 381.094,207.027 380.427,206.027 380.5,204.5 Z"/></g>
<g><path style="opacity:0.463" fill="#939393" d="M 252.5,206.5 C 254.027,206.427 255.027,207.094 255.5,208.5C 253.973,208.573 252.973,207.906 252.5,206.5 Z"/></g>
<g><path style="opacity:0.698" fill="#909090" d="M 208.5,208.5 C 209.906,208.973 210.573,209.973 210.5,211.5C 209.094,211.027 208.427,210.027 208.5,208.5 Z"/></g>
<g><path style="opacity:0.447" fill="#999999" d="M 255.5,208.5 C 257.027,208.427 258.027,209.094 258.5,210.5C 256.973,210.573 255.973,209.906 255.5,208.5 Z"/></g>
<g><path style="opacity:0.329" fill="#a9a9a9" d="M 382.5,207.5 C 383.906,207.973 384.573,208.973 384.5,210.5C 383.094,210.027 382.427,209.027 382.5,207.5 Z"/></g>
<g><path style="opacity:0.522" fill="#8c8c8c" d="M 258.5,210.5 C 260.027,210.427 261.027,211.094 261.5,212.5C 259.973,212.573 258.973,211.906 258.5,210.5 Z"/></g>
<g><path style="opacity:0.6" fill="#7e7e7e" d="M 261.5,212.5 C 263.027,212.427 264.027,213.094 264.5,214.5C 262.973,214.573 261.973,213.906 261.5,212.5 Z"/></g>
<g><path style="opacity:0.475" fill="#9c9c9c" d="M 265.5,215.5 C 267.027,215.427 268.027,216.094 268.5,217.5C 266.973,217.573 265.973,216.906 265.5,215.5 Z"/></g>
<g><path style="opacity:0.847" fill="#7f7f7f" d="M 268.5,217.5 C 270.404,217.738 271.738,218.738 272.5,220.5C 270.596,220.262 269.262,219.262 268.5,217.5 Z"/></g>
<g><path style="opacity:0.725" fill="#999999" d="M 274.5,222.5 C 276.404,222.738 277.738,223.738 278.5,225.5C 276.596,225.262 275.262,224.262 274.5,222.5 Z"/></g>
<g><path style="opacity:0.682" fill="#7b7b7b" d="M 134.5,264.5 C 134.706,267.495 134.04,270.162 132.5,272.5C 132.565,269.572 133.232,266.905 134.5,264.5 Z"/></g>
<g><path style="opacity:0.365" fill="#a7a7a7" d="M 292.5,305.5 C 292.573,307.027 291.906,308.027 290.5,308.5C 290.427,306.973 291.094,305.973 292.5,305.5 Z"/></g>
<g><path style="opacity:0.494" fill="#8d8d8d" d="M 231.5,306.5 C 232.906,306.973 233.573,307.973 233.5,309.5C 232.094,309.027 231.427,308.027 231.5,306.5 Z"/></g>
<g><path style="opacity:0.753" fill="#888888" d="M 290.5,308.5 C 290.573,310.027 289.906,311.027 288.5,311.5C 288.427,309.973 289.094,308.973 290.5,308.5 Z"/></g>
<g><path style="opacity:1" fill="#5a5a5a" d="M 285.5,314.5 C 284.656,316.759 282.989,317.759 280.5,317.5C 281.899,316.11 283.566,315.11 285.5,314.5 Z"/></g>
<g><path style="opacity:0.906" fill="#838383" d="M 241.5,316.5 C 242.71,316.932 243.71,317.599 244.5,318.5C 242.821,318.715 241.821,318.048 241.5,316.5 Z"/></g>
<g><path style="opacity:0.612" fill="#7e7e7e" d="M 138.5,333.5 C 140.027,333.427 141.027,334.094 141.5,335.5C 139.973,335.573 138.973,334.906 138.5,333.5 Z"/></g>
</svg>
