<?xml version="1.0" encoding="UTF-8"?>
<!DOCTYPE svg PUBLIC "-//W3C//DTD SVG 1.1//EN" "http://www.w3.org/Graphics/SVG/1.1/DTD/svg11.dtd">
<svg xmlns="http://www.w3.org/2000/svg" version="1.1" width="500px" height="390px" style="shape-rendering:geometricPrecision; text-rendering:geometricPrecision; image-rendering:optimizeQuality; fill-rule:evenodd; clip-rule:evenodd" xmlns:xlink="http://www.w3.org/1999/xlink">
<g><path style="opacity:1" fill="#106f75" d="M 269.5,256.5 C 269.611,255.883 269.944,255.383 270.5,255C 265.177,254.501 259.844,254.334 254.5,254.5C 253.318,256.814 251.985,259.148 250.5,261.5C 243.273,268.583 236.773,275.583 231,282.5C 230.506,284.134 230.34,285.801 230.5,287.5C 229.177,289.471 227.844,291.471 226.5,293.5C 231.706,295.02 237.039,295.853 242.5,296C 274.504,297.789 306.504,297.789 338.5,296C 341.098,291.984 343.598,287.818 346,283.5C 350.892,277.803 357.059,274.303 364.5,273C 394.909,269.13 420.076,278.63 440,301.5C 442.354,305.203 443.854,309.203 444.5,313.5C 444.666,318.179 444.499,322.845 444,327.5C 443.085,329.918 441.585,331.918 439.5,333.5C 439.872,336.383 439.872,339.383 439.5,342.5C 430.142,357.009 417.142,366.843 400.5,372C 394.97,373.873 389.303,375.039 383.5,375.5C 380.482,375.335 377.482,375.502 374.5,376C 373.584,376.278 372.918,376.778 372.5,377.5C 305.693,387.351 239.026,386.517 172.5,375C 155.168,372.237 140.668,364.403 129,351.5C 119.198,337.956 115.864,322.956 119,306.5C 121.352,297.779 124.685,289.446 129,281.5C 135.004,271.488 141.504,261.822 148.5,252.5C 133.133,251.918 117.8,251.085 102.5,250C 86.0202,244.865 77.3535,233.698 76.5,216.5C 76.7975,200.092 82.4642,185.926 93.5,174C 99.0081,170.246 105.008,167.58 111.5,166C 151.134,164.118 190.801,163.118 230.5,163C 233.463,161.039 236.129,158.706 238.5,156C 236.884,154.923 235.051,154.423 233,154.5C 197.178,155.637 161.345,155.804 125.5,155C 106.505,151.007 96.5046,139.34 95.5,120C 95.6438,102.184 102.31,87.5177 115.5,76C 122.828,71.4998 130.828,69.1665 139.5,69C 185.506,67.1051 231.506,67.1051 277.5,69C 300.395,70.6328 321.395,77.6328 340.5,90C 360.375,107.448 364.209,127.948 352,151.5C 347.66,158.848 342.827,165.848 337.5,172.5C 337.709,173.086 338.043,173.586 338.5,174C 359,175.452 379.333,178.119 399.5,182C 421.277,191.731 428.11,207.898 420,230.5C 413.795,252.383 399.462,264.383 377,266.5C 341.271,261.873 305.437,258.54 269.5,256.5 Z"/></g>
<g><path style="opacity:1" fill="#5c4a84" d="M 317.5,165.5 C 315.719,169.07 313.052,171.737 309.5,173.5C 311.112,171.702 312.612,169.702 314,167.5C 314.816,166.177 315.983,165.511 317.5,165.5 Z"/></g>
<g><path style="opacity:1" fill="#9a3591" d="M 260.5,162.5 C 258.147,166.703 254.814,170.037 250.5,172.5C 250.5,172.167 250.5,171.833 250.5,171.5C 252.86,168.473 255.527,165.806 258.5,163.5C 259.167,163.167 259.833,162.833 260.5,162.5 Z"/></g>
<g><path style="opacity:1" fill="#6c4489" d="M 261.5,160.5 C 261.167,161.167 260.833,161.833 260.5,162.5C 259.833,162.833 259.167,163.167 258.5,163.5C 258.5,161.5 259.5,160.5 261.5,160.5 Z"/></g>
<g><path style="opacity:1" fill="#554c83" d="M 321.5,160.5 C 321.573,162.027 320.906,163.027 319.5,163.5C 319.427,161.973 320.094,160.973 321.5,160.5 Z"/></g>
<g><path style="opacity:1" fill="#783d8b" d="M 325.5,155.5 C 324.92,157.749 323.587,159.415 321.5,160.5C 322.08,158.251 323.413,156.585 325.5,155.5 Z"/></g>
<g><path style="opacity:1" fill="#873e8f" d="M 265.5,153.5 C 265.5,154.5 265.5,155.5 265.5,156.5C 264.5,158.167 263.167,159.5 261.5,160.5C 261.898,157.576 263.231,155.242 265.5,153.5 Z"/></g>
<g><path style="opacity:1" fill="#bf2999" d="M 336.5,134.5 C 335.766,135.708 335.433,137.041 335.5,138.5C 335.5,139.167 335.5,139.833 335.5,140.5C 334.094,140.973 333.427,141.973 333.5,143.5C 333.5,143.833 333.5,144.167 333.5,144.5C 331.538,147.474 329.538,150.474 327.5,153.5C 327.167,154.5 326.5,155.167 325.5,155.5C 326.06,153.199 326.56,150.866 327,148.5C 327.333,148.833 327.667,149.167 328,149.5C 331.142,144.458 333.976,139.458 336.5,134.5 Z"/></g>
<g><path style="opacity:1" fill="#3c587e" d="M 333.5,144.5 C 333.092,148.573 331.092,151.573 327.5,153.5C 329.538,150.474 331.538,147.474 333.5,144.5 Z"/></g>
<g><path style="opacity:1" fill="#704089" d="M 265.5,142.5 C 266.117,142.611 266.617,142.944 267,143.5C 267.667,146.167 267.667,148.833 267,151.5C 266.617,152.056 266.117,152.389 265.5,152.5C 265.5,151.833 265.5,151.167 265.5,150.5C 266.657,147.974 266.657,145.307 265.5,142.5 Z"/></g>
<g><path style="opacity:1" fill="#59498d" d="M 335.5,140.5 C 335.573,142.027 334.906,143.027 333.5,143.5C 333.427,141.973 334.094,140.973 335.5,140.5 Z"/></g>
<g><path style="opacity:1" fill="#d91b9e" d="M 255.5,135.5 C 255.5,135.167 255.5,134.833 255.5,134.5C 258.247,134.187 260.914,134.52 263.5,135.5C 264.307,139.397 265.974,140.063 268.5,137.5C 268.833,137.833 269.167,138.167 269.5,138.5C 268.881,143.482 268.214,148.482 267.5,153.5C 266.824,154.602 266.158,155.602 265.5,156.5C 265.5,155.5 265.5,154.5 265.5,153.5C 265.5,153.167 265.5,152.833 265.5,152.5C 266.117,152.389 266.617,152.056 267,151.5C 267.667,148.833 267.667,146.167 267,143.5C 266.617,142.944 266.117,142.611 265.5,142.5C 263.746,138.012 260.412,135.679 255.5,135.5 Z"/></g>
<g><path style="opacity:1" fill="#873b8f" d="M 338.5,130.5 C 338.5,131.833 338.5,133.167 338.5,134.5C 337.5,135.833 336.5,137.167 335.5,138.5C 335.433,137.041 335.766,135.708 336.5,134.5C 336.5,134.167 336.5,133.833 336.5,133.5C 337.167,132.5 337.833,131.5 338.5,130.5 Z"/></g>
<g><path style="opacity:1" fill="#39547d" d="M 124.5,135.5 C 168.167,135.5 211.833,135.5 255.5,135.5C 260.412,135.679 263.746,138.012 265.5,142.5C 266.657,145.307 266.657,147.974 265.5,150.5C 265.453,147.432 264.953,144.432 264,141.5C 261.876,140.378 260.043,138.878 258.5,137C 213.665,136.833 168.998,136.333 124.5,135.5 Z"/></g>
<g><path style="opacity:1" fill="#963392" d="M 119.5,131.5 C 119.5,131.167 119.5,130.833 119.5,130.5C 121.697,131.845 124.03,133.011 126.5,134C 169.499,134.5 212.499,134.667 255.5,134.5C 255.5,134.833 255.5,135.167 255.5,135.5C 211.833,135.5 168.167,135.5 124.5,135.5C 122.858,134.197 121.191,132.864 119.5,131.5 Z"/></g>
<g><path style="opacity:1" fill="#425282" d="M 115.5,124.5 C 116.653,126.636 117.986,128.636 119.5,130.5C 119.5,130.833 119.5,131.167 119.5,131.5C 118.504,131.586 117.671,131.252 117,130.5C 116.187,128.564 115.687,126.564 115.5,124.5 Z"/></g>
<g><path style="opacity:1" fill="#265c7c" d="M 338.5,116.5 C 339.816,119.087 340.483,122.087 340.5,125.5C 340.483,128.913 339.816,131.913 338.5,134.5C 338.5,133.167 338.5,131.833 338.5,130.5C 339.833,126.833 339.833,123.167 338.5,119.5C 338.5,118.5 338.5,117.5 338.5,116.5 Z"/></g>
<g><path style="opacity:1" fill="#b22a98" d="M 121.5,98.5 C 119.361,105.19 117.695,112.024 116.5,119C 117.058,122.949 118.058,126.782 119.5,130.5C 117.986,128.636 116.653,126.636 115.5,124.5C 115.154,117.958 115.821,111.624 117.5,105.5C 119.088,103.887 120.088,101.887 120.5,99.5C 120.5,98.8333 120.833,98.5 121.5,98.5 Z"/></g>
<g><path style="opacity:1" fill="#c7249c" d="M 335.5,115.5 C 336.857,116.59 337.857,117.924 338.5,119.5C 339.833,123.167 339.833,126.833 338.5,130.5C 337.833,131.5 337.167,132.5 336.5,133.5C 336.746,127.441 336.413,121.441 335.5,115.5 Z"/></g>
<g><path style="opacity:1" fill="#6d428b" d="M 335.5,113.5 C 336.833,114.167 337.833,115.167 338.5,116.5C 338.5,117.5 338.5,118.5 338.5,119.5C 337.857,117.924 336.857,116.59 335.5,115.5C 335.5,114.833 335.5,114.167 335.5,113.5 Z"/></g>
<g><path style="opacity:1" fill="#963693" d="M 328.5,105.5 C 328.833,105.5 329.167,105.5 329.5,105.5C 331.909,107.902 333.909,110.569 335.5,113.5C 332.353,111.454 330.02,108.788 328.5,105.5 Z"/></g>
<g><path style="opacity:1" fill="#4b4d82" d="M 120.5,99.5 C 120.088,101.887 119.088,103.887 117.5,105.5C 117.621,102.895 118.621,100.895 120.5,99.5 Z"/></g>
<g><path style="opacity:1" fill="#b42d98" d="M 320.5,101.5 C 323.326,101.998 325.66,103.331 327.5,105.5C 324.229,105.646 321.895,104.312 320.5,101.5 Z"/></g>
<g><path style="opacity:1" fill="#1d6479" d="M 309.5,95.5 C 309.5,95.1667 309.5,94.8333 309.5,94.5C 315.278,96.7078 321.278,98.3744 327.5,99.5C 327.604,101.703 328.27,103.703 329.5,105.5C 329.167,105.5 328.833,105.5 328.5,105.5C 328.167,105.5 327.833,105.5 327.5,105.5C 325.66,103.331 323.326,101.998 320.5,101.5C 318.664,99.412 316.331,98.0787 313.5,97.5C 312.486,96.3263 311.153,95.6596 309.5,95.5 Z"/></g>
<g><path style="opacity:1" fill="#ae2e97" d="M 313.5,97.5 C 316.331,98.0787 318.664,99.412 320.5,101.5C 317.341,101.426 315.008,100.093 313.5,97.5 Z"/></g>
<g><path style="opacity:1" fill="#8c3693" d="M 309.5,95.5 C 311.153,95.6596 312.486,96.3263 313.5,97.5C 311.901,97.7678 310.568,97.4345 309.5,96.5C 309.5,96.1667 309.5,95.8333 309.5,95.5 Z"/></g>
<g><path style="opacity:1" fill="#8b3798" d="M 123.5,95.5 C 123.573,97.0269 122.906,98.0269 121.5,98.5C 121.427,96.9731 122.094,95.9731 123.5,95.5 Z"/></g>
<g><path style="opacity:1" fill="#574a82" d="M 303.5,93.5 C 305.565,93.5172 307.565,93.8505 309.5,94.5C 309.5,94.8333 309.5,95.1667 309.5,95.5C 307.102,95.7406 305.102,95.0739 303.5,93.5 Z"/></g>
<g><path style="opacity:1" fill="#df16a1" d="M 255.5,88.5 C 260.833,88.5 266.167,88.5 271.5,88.5C 274.625,89.4794 277.958,89.8128 281.5,89.5C 281.918,90.2216 282.584,90.7216 283.5,91C 286.146,91.4974 288.813,91.6641 291.5,91.5C 294.167,91.8333 296.833,92.1667 299.5,92.5C 300.568,93.4345 301.901,93.7678 303.5,93.5C 305.102,95.0739 307.102,95.7406 309.5,95.5C 309.5,95.8333 309.5,96.1667 309.5,96.5C 305.154,96.6657 300.821,96.499 296.5,96C 295.241,95.0766 293.908,94.2432 292.5,93.5C 279.876,91.7994 267.543,90.1327 255.5,88.5 Z"/></g>
<g><path style="opacity:1" fill="#3d567f" d="M 291.5,91.5 C 291.5,91.1667 291.5,90.8333 291.5,90.5C 294.698,89.9644 297.365,90.631 299.5,92.5C 296.833,92.1667 294.167,91.8333 291.5,91.5 Z"/></g>
<g><path style="opacity:1" fill="#9d3297" d="M 281.5,89.5 C 284.518,89.7038 287.518,90.0371 290.5,90.5C 290.833,90.5 291.167,90.5 291.5,90.5C 291.5,90.8333 291.5,91.1667 291.5,91.5C 288.813,91.6641 286.146,91.4974 283.5,91C 282.584,90.7216 281.918,90.2216 281.5,89.5 Z"/></g>
<g><path style="opacity:1" fill="#475081" d="M 271.5,88.5 C 276.844,88.334 282.177,88.5006 287.5,89C 288.737,89.2321 289.737,89.7321 290.5,90.5C 287.518,90.0371 284.518,89.7038 281.5,89.5C 277.958,89.8128 274.625,89.4794 271.5,88.5 Z"/></g>
<g><path style="opacity:1" fill="#d11ea0" d="M 255.5,88.5 C 215.129,88.0749 174.796,89.0749 134.5,91.5C 134.291,92.086 133.957,92.586 133.5,93C 130.832,93.567 128.166,94.067 125.5,94.5C 128.72,92.0214 132.387,90.188 136.5,89C 176.323,87.3237 215.99,87.1571 255.5,88.5 Z"/></g>
<g><path style="opacity:1" fill="#fd01a8" d="M 255.5,88.5 C 267.543,90.1327 279.876,91.7994 292.5,93.5C 293.908,94.2432 295.241,95.0766 296.5,96C 300.821,96.499 305.154,96.6657 309.5,96.5C 310.568,97.4345 311.901,97.7678 313.5,97.5C 315.008,100.093 317.341,101.426 320.5,101.5C 321.895,104.312 324.229,105.646 327.5,105.5C 327.833,105.5 328.167,105.5 328.5,105.5C 330.02,108.788 332.353,111.454 335.5,113.5C 335.5,114.167 335.5,114.833 335.5,115.5C 336.413,121.441 336.746,127.441 336.5,133.5C 336.5,133.833 336.5,134.167 336.5,134.5C 333.976,139.458 331.142,144.458 328,149.5C 327.667,149.167 327.333,148.833 327,148.5C 326.56,150.866 326.06,153.199 325.5,155.5C 323.413,156.585 322.08,158.251 321.5,160.5C 320.094,160.973 319.427,161.973 319.5,163.5C 318.167,163.5 317.5,164.167 317.5,165.5C 315.983,165.511 314.816,166.177 314,167.5C 312.612,169.702 311.112,171.702 309.5,173.5C 305.587,176.242 302.087,179.576 299,183.5C 298.235,185.066 298.402,186.399 299.5,187.5C 299.414,188.496 299.748,189.329 300.5,190C 306.605,192.248 312.939,193.081 319.5,192.5C 321.607,193.468 323.941,193.802 326.5,193.5C 338.264,195.728 350.264,197.062 362.5,197.5C 363.833,197.5 365.167,197.5 366.5,197.5C 373.988,198.916 381.655,200.082 389.5,201C 393.613,202.891 397.613,205.058 401.5,207.5C 401.5,207.833 401.5,208.167 401.5,208.5C 402.344,212.099 402.677,215.766 402.5,219.5C 400.759,221.395 399.759,223.728 399.5,226.5C 399.737,227.791 399.404,228.791 398.5,229.5C 396.621,230.895 395.621,232.895 395.5,235.5C 395.267,237.062 394.6,238.395 393.5,239.5C 392.391,239.557 391.391,239.89 390.5,240.5C 389.791,239.596 388.791,239.263 387.5,239.5C 387.5,240.5 387.5,241.5 387.5,242.5C 384.042,243.22 380.542,243.887 377,244.5C 368.241,242.856 359.408,242.19 350.5,242.5C 349.5,242.5 348.5,242.5 347.5,242.5C 347.082,241.778 346.416,241.278 345.5,241C 331.473,239.928 317.473,238.594 303.5,237C 289.963,236.756 276.463,235.922 263,234.5C 259.833,234.667 256.667,234.833 253.5,235C 252.944,235.383 252.611,235.883 252.5,236.5C 252.158,237.338 251.492,237.672 250.5,237.5C 248.973,237.427 247.973,238.094 247.5,239.5C 243.833,241.167 241.167,243.833 239.5,247.5C 237.167,247.833 235.833,249.167 235.5,251.5C 233.846,252.75 232.179,254.084 230.5,255.5C 229.167,255.5 227.833,255.5 226.5,255.5C 226.5,256.833 226.5,258.167 226.5,259.5C 225.178,259.33 224.011,259.663 223,260.5C 221.587,262.652 220.754,264.986 220.5,267.5C 219.11,268.899 218.11,270.566 217.5,272.5C 215.097,274.27 213.43,276.603 212.5,279.5C 212.167,279.5 211.833,279.5 211.5,279.5C 209.35,281.76 207.183,284.093 205,286.5C 204.517,287.448 204.351,288.448 204.5,289.5C 203.662,289.842 203.328,290.508 203.5,291.5C 202.5,291.5 201.5,291.5 200.5,291.5C 200.334,297.509 200.501,303.509 201,309.5C 202.145,308.316 203.312,308.316 204.5,309.5C 205.605,310.6 206.938,311.267 208.5,311.5C 208.833,311.5 209.167,311.5 209.5,311.5C 209.881,312.931 210.881,313.764 212.5,314C 217.171,314.538 221.838,315.038 226.5,315.5C 229.167,315.5 231.833,315.5 234.5,315.5C 249.451,317.012 264.451,317.679 279.5,317.5C 287.326,318.166 295.326,318.5 303.5,318.5C 314.382,318.724 325.049,318.058 335.5,316.5C 338.625,315.521 341.958,315.187 345.5,315.5C 350.446,315.197 354.446,313.197 357.5,309.5C 358.458,309.047 359.292,308.381 360,307.5C 360.239,303.613 361.072,299.946 362.5,296.5C 372.35,294.66 382.35,293.993 392.5,294.5C 392.611,295.117 392.944,295.617 393.5,296C 395.92,296.29 398.254,296.79 400.5,297.5C 401.806,298.467 402.473,299.801 402.5,301.5C 406.79,301.216 410.123,302.716 412.5,306C 413.448,306.483 414.448,306.649 415.5,306.5C 415.833,306.5 416.167,306.5 416.5,306.5C 416.892,308.179 417.392,309.846 418,311.5C 418.414,311.043 418.914,310.709 419.5,310.5C 420.852,311.524 422.185,312.524 423.5,313.5C 423.869,316.319 424.202,319.152 424.5,322C 423.845,325.219 423.012,328.386 422,331.5C 421.617,332.056 421.117,332.389 420.5,332.5C 419.196,334.959 417.363,336.293 415,336.5C 413.878,338.42 413.044,340.42 412.5,342.5C 408.541,342.147 405.874,343.813 404.5,347.5C 401.274,349.877 397.607,350.877 393.5,350.5C 393.5,351.5 393.5,352.5 393.5,353.5C 392.833,353.5 392.167,353.5 391.5,353.5C 389.302,353.12 387.635,353.787 386.5,355.5C 384.167,355.5 381.833,355.5 379.5,355.5C 372.488,355.75 365.821,357.083 359.5,359.5C 356.833,359.5 354.167,359.5 351.5,359.5C 347.176,359.927 342.842,360.261 338.5,360.5C 308.185,361.844 277.852,362.51 247.5,362.5C 243.143,362.414 238.81,362.08 234.5,361.5C 216.287,359.758 197.954,357.758 179.5,355.5C 178.167,355.5 176.833,355.5 175.5,355.5C 174.71,354.599 173.71,353.932 172.5,353.5C 171.737,352.732 170.737,352.232 169.5,352C 170.821,350.455 170.488,349.289 168.5,348.5C 167.532,349.489 166.365,350.156 165,350.5C 161.188,347.909 157.022,346.242 152.5,345.5C 151.415,343.413 149.749,342.08 147.5,341.5C 146.167,340.5 144.833,339.5 143.5,338.5C 143.5,337.833 143.5,337.167 143.5,336.5C 140.596,328.185 139.263,319.518 139.5,310.5C 139.5,310.167 139.5,309.833 139.5,309.5C 140.407,307.343 141.073,305.01 141.5,302.5C 141.5,302.167 141.5,301.833 141.5,301.5C 145.226,298.878 147.226,295.211 147.5,290.5C 147.5,290.167 147.5,289.833 147.5,289.5C 148.906,289.027 149.573,288.027 149.5,286.5C 151.326,284.853 152.66,282.853 153.5,280.5C 155.104,279.713 155.771,278.38 155.5,276.5C 158.573,274.431 160.906,271.764 162.5,268.5C 163.443,265.6 165.11,263.267 167.5,261.5C 168.906,261.027 169.573,260.027 169.5,258.5C 172.243,256.761 174.243,254.427 175.5,251.5C 177.167,250.5 178.5,249.167 179.5,247.5C 180.906,247.027 181.573,246.027 181.5,244.5C 183.556,243.407 184.556,241.574 184.5,239C 184.492,237.293 184.158,235.793 183.5,234.5C 183.5,233.833 183.167,233.5 182.5,233.5C 182.027,232.094 181.027,231.427 179.5,231.5C 178.833,231.5 178.167,231.5 177.5,231.5C 177.389,230.883 177.056,230.383 176.5,230C 154.16,229.412 131.827,229.578 109.5,230.5C 106.645,229.883 103.978,228.883 101.5,227.5C 100.508,227.672 99.8417,227.338 99.5,226.5C 99.573,224.973 98.9063,223.973 97.5,223.5C 97.5,218.167 97.5,212.833 97.5,207.5C 99.0739,205.898 99.7406,203.898 99.5,201.5C 99.5,200.833 99.5,200.167 99.5,199.5C 101.01,197.678 102.343,195.678 103.5,193.5C 105.179,192.084 106.846,190.75 108.5,189.5C 110.89,189.087 113.223,188.421 115.5,187.5C 127.66,186.833 139.66,186.167 151.5,185.5C 154.167,185.5 156.833,185.5 159.5,185.5C 180.676,185.299 201.842,185.632 223,186.5C 226.5,186.333 230,186.167 233.5,186C 234.571,185.148 235.571,184.315 236.5,183.5C 239.292,183.378 241.292,182.044 242.5,179.5C 245.764,177.906 248.431,175.573 250.5,172.5C 254.814,170.037 258.147,166.703 260.5,162.5C 260.833,161.833 261.167,161.167 261.5,160.5C 263.167,159.5 264.5,158.167 265.5,156.5C 266.158,155.602 266.824,154.602 267.5,153.5C 268.214,148.482 268.881,143.482 269.5,138.5C 269.167,138.167 268.833,137.833 268.5,137.5C 265.974,140.063 264.307,139.397 263.5,135.5C 260.914,134.52 258.247,134.187 255.5,134.5C 212.499,134.667 169.499,134.5 126.5,134C 124.03,133.011 121.697,131.845 119.5,130.5C 118.058,126.782 117.058,122.949 116.5,119C 117.695,112.024 119.361,105.19 121.5,98.5C 122.906,98.0269 123.573,97.0269 123.5,95.5C 124.492,95.6716 125.158,95.3382 125.5,94.5C 128.166,94.067 130.832,93.567 133.5,93C 133.957,92.586 134.291,92.086 134.5,91.5C 174.796,89.0749 215.129,88.0749 255.5,88.5 Z"/></g>
<g><path style="opacity:1" fill="#584882" d="M 271.5,88.5 C 266.167,88.5 260.833,88.5 255.5,88.5C 215.99,87.1571 176.323,87.3237 136.5,89C 132.387,90.188 128.72,92.0214 125.5,94.5C 125.158,95.3382 124.492,95.6716 123.5,95.5C 126.406,91.3676 130.406,88.701 135.5,87.5C 177.829,86.3334 220.163,86.1667 262.5,87C 265.695,87.1805 268.695,87.6805 271.5,88.5 Z"/></g>
<g><path style="opacity:1" fill="#70408a" d="M 250.5,171.5 C 250.5,171.833 250.5,172.167 250.5,172.5C 248.431,175.573 245.764,177.906 242.5,179.5C 244.833,176.5 247.5,173.833 250.5,171.5 Z"/></g>
<g><path style="opacity:1" fill="#74408b" d="M 309.5,173.5 C 306.53,177.142 303.53,180.809 300.5,184.5C 299.596,185.209 299.263,186.209 299.5,187.5C 298.402,186.399 298.235,185.066 299,183.5C 302.087,179.576 305.587,176.242 309.5,173.5 Z"/></g>
<g><path style="opacity:1" fill="#32567c" d="M 239.5,180.5 C 238.694,181.728 237.694,182.728 236.5,183.5C 235.167,183.5 233.833,183.5 232.5,183.5C 197.5,183.5 162.5,183.5 127.5,183.5C 124.5,183.5 121.5,183.5 118.5,183.5C 158.755,183.122 199.088,182.122 239.5,180.5 Z"/></g>
<g><path style="opacity:1" fill="#853a8e" d="M 242.5,179.5 C 241.292,182.044 239.292,183.378 236.5,183.5C 237.694,182.728 238.694,181.728 239.5,180.5C 240.391,179.89 241.391,179.557 242.5,179.5 Z"/></g>
<g><path style="opacity:1" fill="#524c84" d="M 118.5,183.5 C 121.5,183.5 124.5,183.5 127.5,183.5C 125.167,184.167 122.833,184.833 120.5,185.5C 117.5,185.5 114.5,185.5 111.5,185.5C 113.833,184.833 116.167,184.167 118.5,183.5 Z"/></g>
<g><path style="opacity:1" fill="#a92c98" d="M 127.5,183.5 C 162.5,183.5 197.5,183.5 232.5,183.5C 208.167,184.167 183.833,184.833 159.5,185.5C 156.833,185.5 154.167,185.5 151.5,185.5C 141.167,185.5 130.833,185.5 120.5,185.5C 122.833,184.833 125.167,184.167 127.5,183.5 Z"/></g>
<g><path style="opacity:1" fill="#e311a5" d="M 232.5,183.5 C 233.833,183.5 235.167,183.5 236.5,183.5C 235.571,184.315 234.571,185.148 233.5,186C 230,186.167 226.5,186.333 223,186.5C 201.842,185.632 180.676,185.299 159.5,185.5C 183.833,184.833 208.167,184.167 232.5,183.5 Z"/></g>
<g><path style="opacity:1" fill="#df16a1" d="M 111.5,185.5 C 114.5,185.5 117.5,185.5 120.5,185.5C 130.833,185.5 141.167,185.5 151.5,185.5C 139.66,186.167 127.66,186.833 115.5,187.5C 113.223,188.421 110.89,189.087 108.5,189.5C 108.833,188.833 109.167,188.167 109.5,187.5C 110.833,187.5 111.5,186.833 111.5,185.5 Z"/></g>
<g><path style="opacity:1" fill="#22617a" d="M 300.5,184.5 C 303.77,186.046 307.104,187.88 310.5,190C 324.56,190.597 338.226,192.097 351.5,194.5C 347.901,193.656 344.234,193.323 340.5,193.5C 336.833,193.5 333.167,193.5 329.5,193.5C 329.082,192.778 328.416,192.278 327.5,192C 324.854,191.503 322.187,191.336 319.5,191.5C 312.375,192.003 305.708,190.669 299.5,187.5C 299.263,186.209 299.596,185.209 300.5,184.5 Z"/></g>
<g><path style="opacity:1" fill="#a42f97" d="M 299.5,187.5 C 305.708,190.669 312.375,192.003 319.5,191.5C 319.5,191.833 319.5,192.167 319.5,192.5C 312.939,193.081 306.605,192.248 300.5,190C 299.748,189.329 299.414,188.496 299.5,187.5 Z"/></g>
<g><path style="opacity:1" fill="#8c388e" d="M 109.5,187.5 C 109.167,188.167 108.833,188.833 108.5,189.5C 106.846,190.75 105.179,192.084 103.5,193.5C 103.5,192.833 103.5,192.167 103.5,191.5C 104.95,189.39 106.95,188.057 109.5,187.5 Z"/></g>
<g><path style="opacity:1" fill="#6c4386" d="M 319.5,191.5 C 322.187,191.336 324.854,191.503 327.5,192C 328.416,192.278 329.082,192.778 329.5,193.5C 328.5,193.5 327.5,193.5 326.5,193.5C 323.941,193.802 321.607,193.468 319.5,192.5C 319.5,192.167 319.5,191.833 319.5,191.5 Z"/></g>
<g><path style="opacity:1" fill="#4d4d83" d="M 340.5,193.5 C 344.234,193.323 347.901,193.656 351.5,194.5C 353.735,194.205 355.735,194.539 357.5,195.5C 353.154,195.666 348.821,195.499 344.5,195C 342.942,194.79 341.609,194.29 340.5,193.5 Z"/></g>
<g><path style="opacity:1" fill="#bb259a" d="M 326.5,193.5 C 327.5,193.5 328.5,193.5 329.5,193.5C 333.167,193.5 336.833,193.5 340.5,193.5C 341.609,194.29 342.942,194.79 344.5,195C 348.821,195.499 353.154,195.666 357.5,195.5C 358.5,195.5 359.5,195.5 360.5,195.5C 361.167,196.167 361.833,196.833 362.5,197.5C 350.264,197.062 338.264,195.728 326.5,193.5 Z"/></g>
<g><path style="opacity:1" fill="#763f8d" d="M 360.5,195.5 C 363.059,195.198 365.393,195.532 367.5,196.5C 367.5,196.833 367.5,197.167 367.5,197.5C 367.167,197.5 366.833,197.5 366.5,197.5C 365.167,197.5 363.833,197.5 362.5,197.5C 361.833,196.833 361.167,196.167 360.5,195.5 Z"/></g>
<g><path style="opacity:1" fill="#31587c" d="M 367.5,197.5 C 367.5,197.167 367.5,196.833 367.5,196.5C 373.271,195.887 378.604,196.554 383.5,198.5C 378.203,197.725 372.87,197.392 367.5,197.5 Z"/></g>
<g><path style="opacity:1" fill="#5a4885" d="M 103.5,191.5 C 103.5,192.167 103.5,192.833 103.5,193.5C 102.343,195.678 101.01,197.678 99.5,199.5C 99.8961,196.279 101.229,193.612 103.5,191.5 Z"/></g>
<g><path style="opacity:1" fill="#395480" d="M 383.5,198.5 C 386.518,198.335 389.518,198.502 392.5,199C 393.056,199.383 393.389,199.883 393.5,200.5C 390.017,199.99 386.684,199.323 383.5,198.5 Z"/></g>
<g><path style="opacity:1" fill="#b52999" d="M 366.5,197.5 C 366.833,197.5 367.167,197.5 367.5,197.5C 372.87,197.392 378.203,197.725 383.5,198.5C 386.684,199.323 390.017,199.99 393.5,200.5C 393.842,201.338 394.508,201.672 395.5,201.5C 395.973,202.906 396.973,203.573 398.5,203.5C 399.833,204.167 400.833,205.167 401.5,206.5C 401.5,206.833 401.5,207.167 401.5,207.5C 397.613,205.058 393.613,202.891 389.5,201C 381.655,200.082 373.988,198.916 366.5,197.5 Z"/></g>
<g><path style="opacity:1" fill="#584a84" d="M 395.5,201.5 C 397.027,201.427 398.027,202.094 398.5,203.5C 396.973,203.573 395.973,202.906 395.5,201.5 Z"/></g>
<g><path style="opacity:1" fill="#7e3d8c" d="M 99.5,201.5 C 99.7406,203.898 99.0739,205.898 97.5,207.5C 97.2594,205.102 97.9261,203.102 99.5,201.5 Z"/></g>
<g><path style="opacity:1" fill="#31587e" d="M 401.5,206.5 C 402.15,206.804 402.817,207.137 403.5,207.5C 403.833,209.833 404.167,212.167 404.5,214.5C 404.471,217.269 403.805,219.603 402.5,221.5C 402.5,220.833 402.5,220.167 402.5,219.5C 403.641,216.36 403.808,213.027 403,209.5C 402.617,208.944 402.117,208.611 401.5,208.5C 401.5,208.167 401.5,207.833 401.5,207.5C 401.5,207.167 401.5,206.833 401.5,206.5 Z"/></g>
<g><path style="opacity:1" fill="#91318f" d="M 401.5,208.5 C 402.117,208.611 402.617,208.944 403,209.5C 403.808,213.027 403.641,216.36 402.5,219.5C 402.677,215.766 402.344,212.099 401.5,208.5 Z"/></g>
<g><path style="opacity:1" fill="#624682" d="M 97.5,207.5 C 97.5,212.833 97.5,218.167 97.5,223.5C 94.9041,218.151 94.9041,212.817 97.5,207.5 Z"/></g>
<g><path style="opacity:1" fill="#5c4782" d="M 97.5,223.5 C 98.9063,223.973 99.573,224.973 99.5,226.5C 98.0937,226.027 97.427,225.027 97.5,223.5 Z"/></g>
<g><path style="opacity:1" fill="#993390" d="M 402.5,219.5 C 402.5,220.167 402.5,220.833 402.5,221.5C 401.935,223.42 400.935,225.087 399.5,226.5C 399.759,223.728 400.759,221.395 402.5,219.5 Z"/></g>
<g><path style="opacity:1" fill="#385880" d="M 402.5,221.5 C 402.658,226.078 400.991,229.745 397.5,232.5C 397.557,231.391 397.89,230.391 398.5,229.5C 399.404,228.791 399.737,227.791 399.5,226.5C 400.935,225.087 401.935,223.42 402.5,221.5 Z"/></g>
<g><path style="opacity:1" fill="#843b8f" d="M 101.5,227.5 C 103.978,228.883 106.645,229.883 109.5,230.5C 109.5,230.833 109.5,231.167 109.5,231.5C 105.981,231.741 103.315,230.407 101.5,227.5 Z"/></g>
<g><path style="opacity:1" fill="#a92c99" d="M 177.5,231.5 C 154.833,231.5 132.167,231.5 109.5,231.5C 109.5,231.167 109.5,230.833 109.5,230.5C 131.827,229.578 154.16,229.412 176.5,230C 177.056,230.383 177.389,230.883 177.5,231.5 Z"/></g>
<g><path style="opacity:1" fill="#a83097" d="M 398.5,229.5 C 397.89,230.391 397.557,231.391 397.5,232.5C 397.573,234.027 396.906,235.027 395.5,235.5C 395.621,232.895 396.621,230.895 398.5,229.5 Z"/></g>
<g><path style="opacity:1" fill="#8a388f" d="M 179.5,232.5 C 179.5,232.167 179.5,231.833 179.5,231.5C 181.027,231.427 182.027,232.094 182.5,233.5C 181.391,233.443 180.391,233.11 179.5,232.5 Z"/></g>
<g><path style="opacity:1" fill="#d11ca1" d="M 347.5,242.5 C 343.534,241.838 339.534,241.505 335.5,241.5C 327.5,240.833 319.5,240.167 311.5,239.5C 308.833,239.5 306.167,239.5 303.5,239.5C 302.048,238.698 300.382,238.198 298.5,238C 292.175,237.5 285.842,237.334 279.5,237.5C 270.498,237.214 261.498,236.881 252.5,236.5C 252.611,235.883 252.944,235.383 253.5,235C 256.667,234.833 259.833,234.667 263,234.5C 276.463,235.922 289.963,236.756 303.5,237C 317.473,238.594 331.473,239.928 345.5,241C 346.416,241.278 347.082,241.778 347.5,242.5 Z"/></g>
<g><path style="opacity:1" fill="#37547c" d="M 179.5,232.5 C 180.391,233.11 181.391,233.443 182.5,233.5C 183.167,233.5 183.5,233.833 183.5,234.5C 183.802,237.059 183.468,239.393 182.5,241.5C 182.5,239.167 182.5,236.833 182.5,234.5C 180.821,234.715 179.821,234.048 179.5,232.5 Z"/></g>
<g><path style="opacity:1" fill="#44507e" d="M 252.5,236.5 C 261.498,236.881 270.498,237.214 279.5,237.5C 279.5,237.833 279.5,238.167 279.5,238.5C 269.448,238.216 259.448,238.55 249.5,239.5C 249.833,238.833 250.167,238.167 250.5,237.5C 251.492,237.672 252.158,237.338 252.5,236.5 Z"/></g>
<g><path style="opacity:1" fill="#703e8e" d="M 250.5,237.5 C 250.167,238.167 249.833,238.833 249.5,239.5C 248.833,239.5 248.167,239.5 247.5,239.5C 247.973,238.094 248.973,237.427 250.5,237.5 Z"/></g>
<g><path style="opacity:1" fill="#763d89" d="M 279.5,238.5 C 279.5,238.167 279.5,237.833 279.5,237.5C 285.842,237.334 292.175,237.5 298.5,238C 300.382,238.198 302.048,238.698 303.5,239.5C 295.483,239.499 287.483,239.166 279.5,238.5 Z"/></g>
<g><path style="opacity:1" fill="#da199f" d="M 390.5,240.5 C 389.833,241.5 389.167,242.5 388.5,243.5C 387.833,243.5 387.167,243.5 386.5,243.5C 384.973,243.427 383.973,244.094 383.5,245.5C 379.167,245.5 374.833,245.5 370.5,245.5C 369.737,244.732 368.737,244.232 367.5,244C 363.848,243.501 360.182,243.335 356.5,243.5C 354.5,243.5 352.5,243.5 350.5,243.5C 350.5,243.167 350.5,242.833 350.5,242.5C 359.408,242.19 368.241,242.856 377,244.5C 380.542,243.887 384.042,243.22 387.5,242.5C 387.5,241.5 387.5,240.5 387.5,239.5C 388.791,239.263 389.791,239.596 390.5,240.5 Z"/></g>
<g><path style="opacity:1" fill="#43557d" d="M 311.5,239.5 C 319.5,240.167 327.5,240.833 335.5,241.5C 335.5,241.833 335.5,242.167 335.5,242.5C 328.825,242.666 322.158,242.5 315.5,242C 313.934,241.392 312.6,240.558 311.5,239.5 Z"/></g>
<g><path style="opacity:1" fill="#803a8c" d="M 335.5,242.5 C 335.5,242.167 335.5,241.833 335.5,241.5C 339.534,241.505 343.534,241.838 347.5,242.5C 348.5,242.5 349.5,242.5 350.5,242.5C 350.5,242.833 350.5,243.167 350.5,243.5C 345.482,243.387 340.482,243.053 335.5,242.5 Z"/></g>
<g><path style="opacity:1" fill="#a32f94" d="M 183.5,234.5 C 184.158,235.793 184.492,237.293 184.5,239C 184.556,241.574 183.556,243.407 181.5,244.5C 181.557,243.391 181.89,242.391 182.5,241.5C 183.468,239.393 183.802,237.059 183.5,234.5 Z"/></g>
<g><path style="opacity:1" fill="#474f83" d="M 393.5,239.5 C 392.415,241.587 390.749,242.92 388.5,243.5C 389.167,242.5 389.833,241.5 390.5,240.5C 391.391,239.89 392.391,239.557 393.5,239.5 Z"/></g>
<g><path style="opacity:1" fill="#504c84" d="M 247.5,239.5 C 245.167,242.5 242.5,245.167 239.5,247.5C 241.167,243.833 243.833,241.167 247.5,239.5 Z"/></g>
<g><path style="opacity:1" fill="#3b567e" d="M 335.5,242.5 C 340.482,243.053 345.482,243.387 350.5,243.5C 352.5,243.5 354.5,243.5 356.5,243.5C 356.611,244.117 356.944,244.617 357.5,245C 361.821,245.499 366.154,245.666 370.5,245.5C 374.833,245.5 379.167,245.5 383.5,245.5C 374.676,246.657 365.676,246.824 356.5,246C 349.414,245.041 342.414,243.875 335.5,242.5 Z"/></g>
<g><path style="opacity:1" fill="#9d3393" d="M 356.5,243.5 C 360.182,243.335 363.848,243.501 367.5,244C 368.737,244.232 369.737,244.732 370.5,245.5C 366.154,245.666 361.821,245.499 357.5,245C 356.944,244.617 356.611,244.117 356.5,243.5 Z"/></g>
<g><path style="opacity:1" fill="#7a3b8b" d="M 386.5,243.5 C 386.027,244.906 385.027,245.573 383.5,245.5C 383.973,244.094 384.973,243.427 386.5,243.5 Z"/></g>
<g><path style="opacity:1" fill="#8b3794" d="M 181.5,244.5 C 181.573,246.027 180.906,247.027 179.5,247.5C 179.427,245.973 180.094,244.973 181.5,244.5 Z"/></g>
<g><path style="opacity:1" fill="#7a3d89" d="M 179.5,247.5 C 178.5,249.167 177.167,250.5 175.5,251.5C 175.833,249.167 177.167,247.833 179.5,247.5 Z"/></g>
<g><path style="opacity:1" fill="#5f468b" d="M 239.5,247.5 C 238.5,249.167 237.167,250.5 235.5,251.5C 235.833,249.167 237.167,247.833 239.5,247.5 Z"/></g>
<g><path style="opacity:1" fill="#5a4987" d="M 235.5,251.5 C 233.547,255.12 230.881,258.12 227.5,260.5C 228.075,258.589 229.075,256.922 230.5,255.5C 232.179,254.084 233.846,252.75 235.5,251.5 Z"/></g>
<g><path style="opacity:1" fill="#3a8082" d="M 269.5,256.5 C 265.486,256.334 261.486,256.501 257.5,257C 247.891,266.766 238.891,276.933 230.5,287.5C 230.34,285.801 230.506,284.134 231,282.5C 236.773,275.583 243.273,268.583 250.5,261.5C 251.985,259.148 253.318,256.814 254.5,254.5C 259.844,254.334 265.177,254.501 270.5,255C 269.944,255.383 269.611,255.883 269.5,256.5 Z"/></g>
<g><path style="opacity:1" fill="#773e8d" d="M 175.5,251.5 C 174.243,254.427 172.243,256.761 169.5,258.5C 170.757,255.573 172.757,253.239 175.5,251.5 Z"/></g>
<g><path style="opacity:1" fill="#89398f" d="M 169.5,258.5 C 169.573,260.027 168.906,261.027 167.5,261.5C 167.5,261.167 167.5,260.833 167.5,260.5C 167.833,259.5 168.5,258.833 169.5,258.5 Z"/></g>
<g><path style="opacity:1" fill="#dc189f" d="M 230.5,255.5 C 229.075,256.922 228.075,258.589 227.5,260.5C 225.413,261.585 224.08,263.251 223.5,265.5C 222.167,265.5 221.5,266.167 221.5,267.5C 221.167,267.5 220.833,267.5 220.5,267.5C 220.754,264.986 221.587,262.652 223,260.5C 224.011,259.663 225.178,259.33 226.5,259.5C 226.5,258.167 226.5,256.833 226.5,255.5C 227.833,255.5 229.167,255.5 230.5,255.5 Z"/></g>
<g><path style="opacity:1" fill="#425481" d="M 167.5,260.5 C 167.5,260.833 167.5,261.167 167.5,261.5C 165.11,263.267 163.443,265.6 162.5,268.5C 161.5,269.167 160.5,269.833 159.5,270.5C 161.396,267.716 163.063,264.716 164.5,261.5C 165.325,260.614 166.325,260.281 167.5,260.5 Z"/></g>
<g><path style="opacity:1" fill="#47527f" d="M 227.5,260.5 C 227.269,263.063 225.935,264.73 223.5,265.5C 224.08,263.251 225.413,261.585 227.5,260.5 Z"/></g>
<g><path style="opacity:1" fill="#6d4289" d="M 220.5,267.5 C 220.833,267.5 221.167,267.5 221.5,267.5C 220.876,269.754 219.543,271.421 217.5,272.5C 218.11,270.566 219.11,268.899 220.5,267.5 Z"/></g>
<g><path style="opacity:1" fill="#933892" d="M 162.5,268.5 C 160.906,271.764 158.573,274.431 155.5,276.5C 156.415,274.246 157.748,272.246 159.5,270.5C 160.5,269.833 161.5,269.167 162.5,268.5 Z"/></g>
<g><path style="opacity:1" fill="#375a7f" d="M 217.5,272.5 C 217.435,276.107 215.769,278.44 212.5,279.5C 213.43,276.603 215.097,274.27 217.5,272.5 Z"/></g>
<g><path style="opacity:1" fill="#953695" d="M 155.5,276.5 C 155.771,278.38 155.104,279.713 153.5,280.5C 153.66,278.847 154.326,277.514 155.5,276.5 Z"/></g>
<g><path style="opacity:1" fill="#833a90" d="M 211.5,279.5 C 209.898,283.095 207.898,286.429 205.5,289.5C 205.167,289.5 204.833,289.5 204.5,289.5C 204.351,288.448 204.517,287.448 205,286.5C 207.183,284.093 209.35,281.76 211.5,279.5 Z"/></g>
<g><path style="opacity:1" fill="#923691" d="M 153.5,280.5 C 152.66,282.853 151.326,284.853 149.5,286.5C 149.845,283.802 151.178,281.802 153.5,280.5 Z"/></g>
<g><path style="opacity:1" fill="#853892" d="M 149.5,286.5 C 149.573,288.027 148.906,289.027 147.5,289.5C 147.427,287.973 148.094,286.973 149.5,286.5 Z"/></g>
<g><path style="opacity:1" fill="#7a3b8d" d="M 388.5,293.5 C 380.825,292.268 373.158,292.268 365.5,293.5C 365.5,292.833 365.833,292.5 366.5,292.5C 373.117,291.411 379.783,291.244 386.5,292C 387.416,292.278 388.082,292.778 388.5,293.5 Z"/></g>
<g><path style="opacity:1" fill="#285c7b" d="M 396.5,293.5 C 395.167,293.5 393.833,293.5 392.5,293.5C 391.167,293.5 389.833,293.5 388.5,293.5C 388.082,292.778 387.416,292.278 386.5,292C 379.783,291.244 373.117,291.411 366.5,292.5C 366.611,291.883 366.944,291.383 367.5,291C 377.528,289.764 387.195,290.597 396.5,293.5 Z"/></g>
<g><path style="opacity:1" fill="#cd209e" d="M 388.5,293.5 C 389.833,293.5 391.167,293.5 392.5,293.5C 392.5,293.833 392.5,294.167 392.5,294.5C 382.35,293.993 372.35,294.66 362.5,296.5C 361.072,299.946 360.239,303.613 360,307.5C 359.292,308.381 358.458,309.047 357.5,309.5C 357.5,309.167 357.5,308.833 357.5,308.5C 357.5,308.167 357.5,307.833 357.5,307.5C 358.117,307.389 358.617,307.056 359,306.5C 359.259,303.413 359.759,300.413 360.5,297.5C 361.585,295.413 363.251,294.08 365.5,293.5C 373.158,292.268 380.825,292.268 388.5,293.5 Z"/></g>
<g><path style="opacity:1" fill="#5b488b" d="M 392.5,294.5 C 392.5,294.167 392.5,293.833 392.5,293.5C 393.833,293.5 395.167,293.5 396.5,293.5C 396.842,294.338 397.508,294.672 398.5,294.5C 398.5,294.833 398.5,295.167 398.5,295.5C 396.435,295.483 394.435,295.15 392.5,294.5 Z"/></g>
<g><path style="opacity:1" fill="#1d6479" d="M 398.5,295.5 C 398.5,295.167 398.5,294.833 398.5,294.5C 400.527,294.338 402.527,294.505 404.5,295C 407.148,298.109 410.315,298.943 414,297.5C 414.195,298.819 414.028,300.153 413.5,301.5C 411.579,300.637 409.579,299.971 407.5,299.5C 406.167,298.833 404.833,298.167 403.5,297.5C 402.22,296.069 400.553,295.402 398.5,295.5 Z"/></g>
<g><path style="opacity:1" fill="#733d8d" d="M 145.5,293.5 C 145.573,295.027 144.906,296.027 143.5,296.5C 143.427,294.973 144.094,293.973 145.5,293.5 Z"/></g>
<g><path style="opacity:1" fill="#ad2f9c" d="M 392.5,294.5 C 394.435,295.15 396.435,295.483 398.5,295.5C 400.553,295.402 402.22,296.069 403.5,297.5C 402.5,297.5 401.5,297.5 400.5,297.5C 398.254,296.79 395.92,296.29 393.5,296C 392.944,295.617 392.611,295.117 392.5,294.5 Z"/></g>
<g><path style="opacity:1" fill="#be2b9c" d="M 147.5,290.5 C 147.226,295.211 145.226,298.878 141.5,301.5C 141.796,299.597 142.463,297.93 143.5,296.5C 144.906,296.027 145.573,295.027 145.5,293.5C 145.427,291.973 146.094,290.973 147.5,290.5 Z"/></g>
<g><path style="opacity:1" fill="#435282" d="M 204.5,289.5 C 204.833,289.5 205.167,289.5 205.5,289.5C 204.873,293.317 203.873,296.983 202.5,300.5C 203.06,302.821 204.06,304.821 205.5,306.5C 205.5,306.833 205.5,307.167 205.5,307.5C 205.167,307.5 204.833,307.5 204.5,307.5C 200.887,302.412 200.554,297.078 203.5,291.5C 203.328,290.508 203.662,289.842 204.5,289.5 Z"/></g>
<g><path style="opacity:1" fill="#4f4d83" d="M 360.5,297.5 C 359.759,300.413 359.259,303.413 359,306.5C 358.617,307.056 358.117,307.389 357.5,307.5C 357.69,303.705 358.69,300.372 360.5,297.5 Z"/></g>
<g><path style="opacity:1" fill="#da1ba1" d="M 400.5,297.5 C 401.5,297.5 402.5,297.5 403.5,297.5C 404.833,298.167 406.167,298.833 407.5,299.5C 410.761,301.09 413.427,303.424 415.5,306.5C 414.448,306.649 413.448,306.483 412.5,306C 410.123,302.716 406.79,301.216 402.5,301.5C 402.473,299.801 401.806,298.467 400.5,297.5 Z"/></g>
<g><path style="opacity:1" fill="#5c4b86" d="M 407.5,299.5 C 409.579,299.971 411.579,300.637 413.5,301.5C 414.833,303.167 416.167,304.833 417.5,306.5C 417.167,306.5 416.833,306.5 416.5,306.5C 416.167,306.5 415.833,306.5 415.5,306.5C 413.427,303.424 410.761,301.09 407.5,299.5 Z"/></g>
<g><path style="opacity:1" fill="#d31e9e" d="M 203.5,291.5 C 200.554,297.078 200.887,302.412 204.5,307.5C 204.5,308.167 204.5,308.833 204.5,309.5C 203.312,308.316 202.145,308.316 201,309.5C 200.501,303.509 200.334,297.509 200.5,291.5C 201.5,291.5 202.5,291.5 203.5,291.5 Z"/></g>
<g><path style="opacity:1" fill="#ae2e95" d="M 141.5,302.5 C 141.073,305.01 140.407,307.343 139.5,309.5C 139.5,308.5 139.5,307.5 139.5,306.5C 139.229,304.62 139.896,303.287 141.5,302.5 Z"/></g>
<g><path style="opacity:1" fill="#89388f" d="M 204.5,307.5 C 204.833,307.5 205.167,307.5 205.5,307.5C 206.5,308.833 207.5,310.167 208.5,311.5C 206.938,311.267 205.605,310.6 204.5,309.5C 204.5,308.833 204.5,308.167 204.5,307.5 Z"/></g>
<g><path style="opacity:1" fill="#5d4987" d="M 139.5,306.5 C 139.5,307.5 139.5,308.5 139.5,309.5C 139.5,309.833 139.5,310.167 139.5,310.5C 138.778,310.918 138.278,311.584 138,312.5C 137.501,316.486 137.334,320.486 137.5,324.5C 136.352,320.019 136.185,315.352 137,310.5C 137.608,308.934 138.442,307.6 139.5,306.5 Z"/></g>
<g><path style="opacity:1" fill="#c9259a" d="M 416.5,306.5 C 416.833,306.5 417.167,306.5 417.5,306.5C 420.213,308.214 422.213,310.547 423.5,313.5C 422.185,312.524 420.852,311.524 419.5,310.5C 418.914,310.709 418.414,311.043 418,311.5C 417.392,309.846 416.892,308.179 416.5,306.5 Z"/></g>
<g><path style="opacity:1" fill="#8b388f" d="M 357.5,308.5 C 357.5,308.833 357.5,309.167 357.5,309.5C 354.446,313.197 350.446,315.197 345.5,315.5C 346.167,314.833 346.833,314.167 347.5,313.5C 351.634,313.349 354.967,311.683 357.5,308.5 Z"/></g>
<g><path style="opacity:1" fill="#266078" d="M 233.5,314.5 C 230.193,313.949 226.86,313.616 223.5,313.5C 218.638,313.882 213.972,313.216 209.5,311.5C 209.167,311.5 208.833,311.5 208.5,311.5C 207.5,310.167 206.5,308.833 205.5,307.5C 205.5,307.167 205.5,306.833 205.5,306.5C 206.93,306.579 208.264,306.246 209.5,305.5C 209.833,305.833 210.167,306.167 210.5,306.5C 208.149,308.759 208.815,310.259 212.5,311C 220.115,312.146 227.782,312.812 235.5,313C 234.584,313.278 233.918,313.778 233.5,314.5 Z"/></g>
<g><path style="opacity:1" fill="#b12996" d="M 209.5,311.5 C 213.972,313.216 218.638,313.882 223.5,313.5C 224.5,314.167 225.5,314.833 226.5,315.5C 221.838,315.038 217.171,314.538 212.5,314C 210.881,313.764 209.881,312.931 209.5,311.5 Z"/></g>
<g><path style="opacity:1" fill="#773e8b" d="M 223.5,313.5 C 226.86,313.616 230.193,313.949 233.5,314.5C 233.833,314.5 234.167,314.5 234.5,314.5C 234.5,314.833 234.5,315.167 234.5,315.5C 231.833,315.5 229.167,315.5 226.5,315.5C 225.5,314.833 224.5,314.167 223.5,313.5 Z"/></g>
<g><path style="opacity:1" fill="#41567e" d="M 347.5,313.5 C 346.833,314.167 346.167,314.833 345.5,315.5C 341.958,315.187 338.625,315.521 335.5,316.5C 316.845,317.318 298.179,317.651 279.5,317.5C 264.451,317.679 249.451,317.012 234.5,315.5C 234.5,315.167 234.5,314.833 234.5,314.5C 258.674,314.333 282.84,314.667 307,315.5C 320.536,315.165 334.036,314.499 347.5,313.5 Z"/></g>
<g><path style="opacity:1" fill="#cc209d" d="M 139.5,310.5 C 139.263,319.518 140.596,328.185 143.5,336.5C 142.167,334.833 140.833,333.167 139.5,331.5C 139.5,331.167 139.5,330.833 139.5,330.5C 139.741,328.102 139.074,326.102 137.5,324.5C 137.334,320.486 137.501,316.486 138,312.5C 138.278,311.584 138.778,310.918 139.5,310.5 Z"/></g>
<g><path style="opacity:1" fill="#c323a0" d="M 335.5,316.5 C 325.049,318.058 314.382,318.724 303.5,318.5C 295.326,318.5 287.326,318.166 279.5,317.5C 298.179,317.651 316.845,317.318 335.5,316.5 Z"/></g>
<g><path style="opacity:1" fill="#4f4c82" d="M 424.5,313.5 C 425.117,313.611 425.617,313.944 426,314.5C 426.815,319.352 426.648,324.019 425.5,328.5C 425.726,323.438 425.392,318.438 424.5,313.5 Z"/></g>
<g><path style="opacity:1" fill="#b62a97" d="M 423.5,313.5 C 423.833,313.5 424.167,313.5 424.5,313.5C 425.392,318.438 425.726,323.438 425.5,328.5C 423.801,330.566 422.468,332.9 421.5,335.5C 421.167,335.5 420.833,335.5 420.5,335.5C 420.5,334.5 420.5,333.5 420.5,332.5C 421.117,332.389 421.617,332.056 422,331.5C 423.012,328.386 423.845,325.219 424.5,322C 424.202,319.152 423.869,316.319 423.5,313.5 Z"/></g>
<g><path style="opacity:1" fill="#4a4e83" d="M 137.5,324.5 C 139.074,326.102 139.741,328.102 139.5,330.5C 137.926,328.898 137.259,326.898 137.5,324.5 Z"/></g>
<g><path style="opacity:1" fill="#3e8487" d="M 444.5,313.5 C 446.913,323.839 445.247,333.505 439.5,342.5C 439.872,339.383 439.872,336.383 439.5,333.5C 441.585,331.918 443.085,329.918 444,327.5C 444.499,322.845 444.666,318.179 444.5,313.5 Z"/></g>
<g><path style="opacity:1" fill="#38587c" d="M 139.5,331.5 C 140.833,333.167 142.167,334.833 143.5,336.5C 143.5,337.167 143.5,337.833 143.5,338.5C 141.069,336.954 139.736,334.621 139.5,331.5 Z"/></g>
<g><path style="opacity:1" fill="#38557f" d="M 143.5,338.5 C 144.833,339.5 146.167,340.5 147.5,341.5C 148.167,342.5 148.833,343.5 149.5,344.5C 146.5,343.5 144.5,341.5 143.5,338.5 Z"/></g>
<g><path style="opacity:1" fill="#325c80" d="M 420.5,335.5 C 420.833,335.5 421.167,335.5 421.5,335.5C 420.34,340.77 417.007,343.77 411.5,344.5C 414.5,341.5 417.5,338.5 420.5,335.5 Z"/></g>
<g><path style="opacity:1" fill="#db1aa0" d="M 420.5,332.5 C 420.5,333.5 420.5,334.5 420.5,335.5C 417.5,338.5 414.5,341.5 411.5,344.5C 409.596,344.738 408.262,345.738 407.5,347.5C 406.833,347.5 406.167,347.5 405.5,347.5C 405.167,347.5 404.833,347.5 404.5,347.5C 405.874,343.813 408.541,342.147 412.5,342.5C 413.044,340.42 413.878,338.42 415,336.5C 417.363,336.293 419.196,334.959 420.5,332.5 Z"/></g>
<g><path style="opacity:1" fill="#9c3193" d="M 147.5,341.5 C 149.749,342.08 151.415,343.413 152.5,345.5C 151.391,345.443 150.391,345.11 149.5,344.5C 148.833,343.5 148.167,342.5 147.5,341.5 Z"/></g>
<g><path style="opacity:1" fill="#32587b" d="M 149.5,344.5 C 150.391,345.11 151.391,345.443 152.5,345.5C 152.973,346.906 153.973,347.573 155.5,347.5C 155.5,347.833 155.5,348.167 155.5,348.5C 152.663,348.316 150.663,346.982 149.5,344.5 Z"/></g>
<g><path style="opacity:1" fill="#594885" d="M 411.5,344.5 C 410.738,346.262 409.404,347.262 407.5,347.5C 408.262,345.738 409.596,344.738 411.5,344.5 Z"/></g>
<g><path style="opacity:1" fill="#823b8e" d="M 155.5,348.5 C 155.5,348.167 155.5,347.833 155.5,347.5C 157.027,347.427 158.027,348.094 158.5,349.5C 157.391,349.443 156.391,349.11 155.5,348.5 Z"/></g>
<g><path style="opacity:1" fill="#da1ba0" d="M 152.5,345.5 C 157.022,346.242 161.188,347.909 165,350.5C 166.365,350.156 167.532,349.489 168.5,348.5C 170.488,349.289 170.821,350.455 169.5,352C 170.737,352.232 171.737,352.732 172.5,353.5C 171.5,353.5 170.5,353.5 169.5,353.5C 167.315,353.296 165.315,352.63 163.5,351.5C 162.833,351.5 162.167,351.5 161.5,351.5C 161.027,350.094 160.027,349.427 158.5,349.5C 158.027,348.094 157.027,347.427 155.5,347.5C 153.973,347.573 152.973,346.906 152.5,345.5 Z"/></g>
<g><path style="opacity:1" fill="#a83096" d="M 404.5,347.5 C 404.833,347.5 405.167,347.5 405.5,347.5C 403.066,348.985 400.733,350.652 398.5,352.5C 398.167,352.5 397.833,352.5 397.5,352.5C 396.167,352.833 394.833,353.167 393.5,353.5C 393.5,352.5 393.5,351.5 393.5,350.5C 397.607,350.877 401.274,349.877 404.5,347.5 Z"/></g>
<g><path style="opacity:1" fill="#554888" d="M 158.5,349.5 C 160.027,349.427 161.027,350.094 161.5,351.5C 159.973,351.573 158.973,350.906 158.5,349.5 Z"/></g>
<g><path style="opacity:1" fill="#2b5e7f" d="M 405.5,347.5 C 406.167,347.5 406.833,347.5 407.5,347.5C 405.547,350.978 402.547,352.645 398.5,352.5C 400.733,350.652 403.066,348.985 405.5,347.5 Z"/></g>
<g><path style="opacity:1" fill="#8e3792" d="M 169.5,353.5 C 170.5,353.5 171.5,353.5 172.5,353.5C 173.71,353.932 174.71,354.599 175.5,355.5C 173.102,355.741 171.102,355.074 169.5,353.5 Z"/></g>
<g><path style="opacity:1" fill="#6d418d" d="M 391.5,353.5 C 390.07,354.537 388.403,355.204 386.5,355.5C 387.635,353.787 389.302,353.12 391.5,353.5 Z"/></g>
<g><path style="opacity:1" fill="#22637a" d="M 163.5,351.5 C 165.315,352.63 167.315,353.296 169.5,353.5C 171.102,355.074 173.102,355.741 175.5,355.5C 175.5,355.833 175.5,356.167 175.5,356.5C 172.881,356.232 170.381,356.565 168,357.5C 165.126,356.468 163.626,354.468 163.5,351.5 Z"/></g>
<g><path style="opacity:1" fill="#733f8d" d="M 175.5,356.5 C 175.5,356.167 175.5,355.833 175.5,355.5C 176.833,355.5 178.167,355.5 179.5,355.5C 180.5,356.167 181.5,356.833 182.5,357.5C 180.139,357.326 177.806,356.993 175.5,356.5 Z"/></g>
<g><path style="opacity:1" fill="#9b3395" d="M 379.5,355.5 C 372.951,357.195 366.284,358.528 359.5,359.5C 365.821,357.083 372.488,355.75 379.5,355.5 Z"/></g>
<g><path style="opacity:1" fill="#45507f" d="M 183.5,357.5 C 188.43,358.648 193.43,359.315 198.5,359.5C 198.5,359.833 198.5,360.167 198.5,360.5C 192.958,361.228 187.958,360.228 183.5,357.5 Z"/></g>
<g><path style="opacity:1" fill="#93348e" d="M 198.5,360.5 C 198.5,360.167 198.5,359.833 198.5,359.5C 203.434,359.229 208.1,359.896 212.5,361.5C 208.131,361.533 203.798,361.2 199.5,360.5C 199.167,360.5 198.833,360.5 198.5,360.5 Z"/></g>
<g><path style="opacity:1" fill="#d619a0" d="M 179.5,355.5 C 197.954,357.758 216.287,359.758 234.5,361.5C 230.5,361.5 226.5,361.5 222.5,361.5C 219.167,361.5 215.833,361.5 212.5,361.5C 208.1,359.896 203.434,359.229 198.5,359.5C 193.43,359.315 188.43,358.648 183.5,357.5C 183.167,357.5 182.833,357.5 182.5,357.5C 181.5,356.833 180.5,356.167 179.5,355.5 Z"/></g>
<g><path style="opacity:1" fill="#82378e" d="M 351.5,359.5 C 347.433,361.054 343.1,361.72 338.5,361.5C 338.5,361.167 338.5,360.833 338.5,360.5C 342.842,360.261 347.176,359.927 351.5,359.5 Z"/></g>
<g><path style="opacity:1" fill="#30597d" d="M 397.5,352.5 C 395.341,354.34 392.675,355.507 389.5,356C 382.098,356.911 374.765,358.244 367.5,360C 356.908,361.795 346.241,362.628 335.5,362.5C 335.5,362.167 335.5,361.833 335.5,361.5C 336.5,361.5 337.5,361.5 338.5,361.5C 343.1,361.72 347.433,361.054 351.5,359.5C 354.167,359.5 356.833,359.5 359.5,359.5C 366.284,358.528 372.951,357.195 379.5,355.5C 381.833,355.5 384.167,355.5 386.5,355.5C 388.403,355.204 390.07,354.537 391.5,353.5C 392.167,353.5 392.833,353.5 393.5,353.5C 394.833,353.167 396.167,352.833 397.5,352.5 Z"/></g>
<g><path style="opacity:1" fill="#3c537e" d="M 199.5,360.5 C 203.798,361.2 208.131,361.533 212.5,361.5C 215.833,361.5 219.167,361.5 222.5,361.5C 222.5,361.833 222.5,362.167 222.5,362.5C 215.492,362.666 208.492,362.5 201.5,362C 200.584,361.722 199.918,361.222 199.5,360.5 Z"/></g>
<g><path style="opacity:1" fill="#ab2c99" d="M 222.5,362.5 C 222.5,362.167 222.5,361.833 222.5,361.5C 226.5,361.5 230.5,361.5 234.5,361.5C 238.81,362.08 243.143,362.414 247.5,362.5C 247.5,362.833 247.5,363.167 247.5,363.5C 239.483,363.499 231.483,363.166 223.5,362.5C 223.167,362.5 222.833,362.5 222.5,362.5 Z"/></g>
<g><path style="opacity:1" fill="#86398f" d="M 335.5,361.5 C 335.5,361.833 335.5,362.167 335.5,362.5C 327.505,362.935 319.505,363.269 311.5,363.5C 319.271,361.845 327.271,361.178 335.5,361.5 Z"/></g>
<g><path style="opacity:1" fill="#d419a0" d="M 338.5,360.5 C 338.5,360.833 338.5,361.167 338.5,361.5C 337.5,361.5 336.5,361.5 335.5,361.5C 327.271,361.178 319.271,361.845 311.5,363.5C 308.833,363.5 306.167,363.5 303.5,363.5C 284.833,363.5 266.167,363.5 247.5,363.5C 247.5,363.167 247.5,362.833 247.5,362.5C 277.852,362.51 308.185,361.844 338.5,360.5 Z"/></g>
<g><path style="opacity:1" fill="#4e4c81" d="M 223.5,362.5 C 231.483,363.166 239.483,363.499 247.5,363.5C 266.167,363.5 284.833,363.5 303.5,363.5C 303.5,363.833 303.5,364.167 303.5,364.5C 278.831,365.741 254.164,365.574 229.5,364C 227.292,363.809 225.292,363.309 223.5,362.5 Z"/></g>
<g><path style="opacity:1" fill="#2b5979" d="M 335.5,362.5 C 333.369,363.314 331.036,363.814 328.5,364C 320.173,364.5 311.84,364.666 303.5,364.5C 303.5,364.167 303.5,363.833 303.5,363.5C 306.167,363.5 308.833,363.5 311.5,363.5C 319.505,363.269 327.505,362.935 335.5,362.5 Z"/></g>
<g><path style="opacity:1" fill="#629da1" d="M 383.5,375.5 C 380.054,376.687 376.387,377.354 372.5,377.5C 372.918,376.778 373.584,376.278 374.5,376C 377.482,375.502 380.482,375.335 383.5,375.5 Z"/></g>
</svg>
